<svg width="250" height="309" viewBox="0 0 250 309" fill="none" xmlns="http://www.w3.org/2000/svg">
<path fill-rule="evenodd" clip-rule="evenodd" d="M91.8312 214.763H89.2046C88.7471 214.763 88.2909 214.815 87.8448 214.916L78.0232 217.148C76.6945 217.45 75.4069 217.911 74.1882 218.52L67.4104 221.909C67.0958 222.066 66.8005 222.259 66.5303 222.485C65.3593 223.46 64.789 224.916 64.9036 226.353C64.0721 226.66 63.3158 227.205 62.7452 227.975L54.9812 238.456C54.6298 238.931 54.1535 239.298 53.6054 239.517L53.1626 239.694C52.2215 240.071 51.6044 240.982 51.6044 241.996C51.6044 242.732 51.9311 243.429 52.4963 243.9L53.7224 244.922C54.5554 245.616 55.6055 245.996 56.6898 245.996H57.5371C58.7736 245.996 59.9039 245.298 60.4568 244.192L60.7543 243.597C61.0681 242.969 61.0395 242.225 60.6784 241.623C60.0694 240.608 60.4428 239.289 61.4938 238.744L68.727 234.994C70.4389 234.106 71.3237 232.383 71.2803 230.663C71.8237 230.656 72.3649 230.589 72.8941 230.465L80.4631 228.684C81.2876 228.49 82.0965 228.234 82.883 227.92L90.2197 224.985L93.21 223.789C94.768 223.166 95.6597 221.52 95.3306 219.874L94.1949 216.467C93.8557 215.45 92.9036 214.763 91.8312 214.763Z" fill="#FFDBAC"/>
<path d="M87.8448 214.916L87.734 214.428V214.428L87.8448 214.916ZM78.0232 217.148L77.9124 216.661V216.661L78.0232 217.148ZM74.1882 218.52L73.9646 218.073L74.1882 218.52ZM67.4104 221.909L67.634 222.356L67.4104 221.909ZM66.5303 222.485L66.2102 222.101V222.101L66.5303 222.485ZM64.9036 226.353L65.0767 226.822L65.4321 226.691L65.402 226.314L64.9036 226.353ZM62.7452 227.975L62.3434 227.677L62.7452 227.975ZM54.9812 238.456L55.3829 238.754L55.3829 238.754L54.9812 238.456ZM53.6054 239.517L53.7911 239.982L53.7911 239.982L53.6054 239.517ZM53.1626 239.694L52.9769 239.23H52.9769L53.1626 239.694ZM52.4963 243.9L52.8164 243.516H52.8164L52.4963 243.9ZM53.7224 244.922L53.4023 245.306L53.7224 244.922ZM60.6784 241.623L61.1072 241.366L60.6784 241.623ZM61.4938 238.744L61.7239 239.188L61.7239 239.188L61.4938 238.744ZM68.727 234.994L68.4969 234.55L68.727 234.994ZM71.2803 230.663L71.2735 230.163L70.7677 230.17L70.7804 230.676L71.2803 230.663ZM72.8941 230.465L72.7796 229.978L72.8941 230.465ZM80.4631 228.684L80.5776 229.171L80.4631 228.684ZM82.883 227.92L82.6973 227.456L82.883 227.92ZM90.2197 224.985L90.034 224.521L90.2197 224.985ZM93.21 223.789L93.3957 224.253L93.21 223.789ZM95.3306 219.874L95.8209 219.776L95.8148 219.746L95.8049 219.716L95.3306 219.874ZM94.1949 216.467L94.6692 216.309V216.309L94.1949 216.467ZM89.2046 215.263H91.8312V214.263H89.2046V215.263ZM87.9556 215.404C88.3654 215.31 88.7843 215.263 89.2046 215.263V214.263C88.7098 214.263 88.2165 214.319 87.734 214.428L87.9556 215.404ZM78.134 217.636L87.9556 215.404L87.734 214.428L77.9124 216.661L78.134 217.636ZM74.4118 218.967C75.5947 218.376 76.8444 217.929 78.134 217.636L77.9124 216.661C76.5446 216.971 75.2191 217.446 73.9646 218.073L74.4118 218.967ZM67.634 222.356L74.4118 218.967L73.9646 218.073L67.1868 221.462L67.634 222.356ZM66.8504 222.869C67.091 222.668 67.3539 222.496 67.634 222.356L67.1868 221.462C66.8377 221.636 66.51 221.851 66.2102 222.101L66.8504 222.869ZM65.402 226.314C65.2999 225.033 65.8081 223.737 66.8504 222.869L66.2102 222.101C64.9106 223.184 64.278 224.799 64.4052 226.393L65.402 226.314ZM63.147 228.273C63.6579 227.583 64.3337 227.097 65.0767 226.822L64.7304 225.884C63.8105 226.224 62.9737 226.827 62.3434 227.677L63.147 228.273ZM55.3829 238.754L63.147 228.273L62.3434 227.677L54.5794 238.159L55.3829 238.754ZM53.7911 239.982C54.4253 239.728 54.9764 239.303 55.3829 238.754L54.5794 238.159C54.2832 238.559 53.8817 238.868 53.4197 239.053L53.7911 239.982ZM53.3483 240.159L53.7911 239.982L53.4197 239.053L52.9769 239.23L53.3483 240.159ZM52.1044 241.996C52.1044 241.187 52.597 240.459 53.3483 240.159L52.9769 239.23C51.846 239.683 51.1044 240.778 51.1044 241.996H52.1044ZM52.8164 243.516C52.3652 243.14 52.1044 242.583 52.1044 241.996H51.1044C51.1044 242.88 51.4971 243.719 52.1762 244.285L52.8164 243.516ZM54.0425 244.538L52.8164 243.516L52.1762 244.285L53.4023 245.306L54.0425 244.538ZM56.6898 245.496C55.7224 245.496 54.7856 245.157 54.0425 244.538L53.4023 245.306C54.3252 246.075 55.4885 246.496 56.6898 246.496V245.496ZM57.5371 245.496H56.6898V246.496H57.5371V245.496ZM60.0096 243.968C59.5414 244.905 58.5842 245.496 57.5371 245.496V246.496C58.9629 246.496 60.2664 245.691 60.904 244.416L60.0096 243.968ZM60.307 243.374L60.0096 243.968L60.904 244.416L61.2015 243.821L60.307 243.374ZM60.2497 241.88C60.5228 242.335 60.5445 242.899 60.307 243.374L61.2015 243.821C61.5918 243.04 61.5562 242.114 61.1072 241.366L60.2497 241.88ZM61.2636 238.301C59.9567 238.978 59.4923 240.618 60.2497 241.88L61.1072 241.366C60.6465 240.598 60.929 239.6 61.7239 239.188L61.2636 238.301ZM68.4969 234.55L61.2636 238.301L61.7239 239.188L68.9572 235.438L68.4969 234.55ZM70.7804 230.676C70.8194 232.218 70.0271 233.756 68.4969 234.55L68.9572 235.438C70.8506 234.456 71.828 232.548 71.7801 230.651L70.7804 230.676ZM72.7796 229.978C72.2857 230.094 71.7807 230.156 71.2735 230.163L71.2871 231.163C71.8668 231.155 72.4441 231.084 73.0087 230.951L72.7796 229.978ZM80.3486 228.197L72.7796 229.978L73.0087 230.951L80.5776 229.171L80.3486 228.197ZM82.6973 227.456C81.934 227.761 81.1489 228.009 80.3486 228.197L80.5776 229.171C81.4264 228.971 82.2591 228.708 83.0687 228.384L82.6973 227.456ZM90.034 224.521L82.6973 227.456L83.0687 228.384L90.4054 225.449L90.034 224.521ZM93.0243 223.325L90.034 224.521L90.4054 225.449L93.3957 224.253L93.0243 223.325ZM94.8403 219.972C95.1221 221.381 94.3585 222.791 93.0243 223.325L93.3957 224.253C95.1775 223.541 96.1973 221.658 95.8209 219.776L94.8403 219.972ZM93.7205 216.625L94.8563 220.032L95.8049 219.716L94.6692 216.309L93.7205 216.625ZM91.8312 215.263C92.6884 215.263 93.4494 215.812 93.7205 216.625L94.6692 216.309C94.262 215.087 93.1189 214.263 91.8312 214.263V215.263Z" fill="black"/>
<path fill-rule="evenodd" clip-rule="evenodd" d="M159.661 214.763H162.289C162.747 214.763 163.203 214.815 163.649 214.916L173.475 217.148C174.803 217.45 176.091 217.911 177.309 218.52L184.09 221.909C184.405 222.066 184.7 222.259 184.97 222.485C186.141 223.46 186.712 224.915 186.598 226.352C187.429 226.659 188.185 227.204 188.756 227.974L196.523 238.456C196.875 238.931 197.351 239.298 197.899 239.517L198.343 239.695C199.284 240.071 199.901 240.982 199.901 241.996C199.901 242.732 199.574 243.429 199.009 243.9L197.783 244.922C196.949 245.616 195.899 245.996 194.814 245.996H193.966C192.729 245.996 191.599 245.298 191.046 244.192L190.748 243.597C190.434 242.969 190.463 242.225 190.824 241.623C191.433 240.608 191.06 239.289 190.009 238.745L182.774 234.994C181.062 234.107 180.177 232.384 180.22 230.663C179.676 230.656 179.135 230.589 178.605 230.465L171.033 228.684C170.208 228.49 169.4 228.235 168.613 227.92L161.274 224.985L158.282 223.789C156.724 223.166 155.832 221.52 156.161 219.874L157.297 216.467C157.637 215.45 158.589 214.763 159.661 214.763Z" fill="#FFDBAC"/>
<path d="M163.649 214.916L163.76 214.428V214.428L163.649 214.916ZM173.475 217.148L173.586 216.661L173.475 217.148ZM177.309 218.52L177.533 218.072L177.309 218.52ZM184.09 221.909L184.314 221.462L184.09 221.909ZM184.97 222.485L185.29 222.1L184.97 222.485ZM186.598 226.352L186.424 226.821L186.069 226.69L186.099 226.313L186.598 226.352ZM188.756 227.974L189.158 227.676L188.756 227.974ZM196.523 238.456L196.122 238.754H196.122L196.523 238.456ZM197.899 239.517L197.714 239.982H197.714L197.899 239.517ZM198.343 239.695L198.528 239.23H198.528L198.343 239.695ZM199.009 243.9L198.689 243.516L198.689 243.516L199.009 243.9ZM197.783 244.922L198.103 245.306H198.103L197.783 244.922ZM191.046 244.192L190.599 244.416V244.416L191.046 244.192ZM190.748 243.597L191.196 243.374L190.748 243.597ZM190.824 241.623L190.396 241.366L190.824 241.623ZM190.009 238.745L189.779 239.188L190.009 238.745ZM182.774 234.994L182.544 235.438L182.774 234.994ZM180.22 230.663L180.227 230.163L180.733 230.17L180.72 230.676L180.22 230.663ZM178.605 230.465L178.49 230.951L178.605 230.465ZM171.033 228.684L171.147 228.197L171.033 228.684ZM168.613 227.92L168.428 228.384L168.613 227.92ZM161.274 224.985L161.459 224.521L161.274 224.985ZM158.282 223.789L158.096 224.253L158.282 223.789ZM156.161 219.874L155.671 219.776L155.677 219.746L155.687 219.716L156.161 219.874ZM157.297 216.467L156.823 216.309V216.309L157.297 216.467ZM162.289 215.263H159.661V214.263H162.289V215.263ZM163.538 215.404C163.129 215.31 162.71 215.263 162.289 215.263V214.263C162.784 214.263 163.277 214.319 163.76 214.428L163.538 215.404ZM173.364 217.636L163.538 215.404L163.76 214.428L173.586 216.661L173.364 217.636ZM177.086 218.967C175.903 218.376 174.654 217.929 173.364 217.636L173.586 216.661C174.953 216.972 176.279 217.445 177.533 218.072L177.086 218.967ZM183.867 222.356L177.086 218.967L177.533 218.072L184.314 221.462L183.867 222.356ZM184.65 222.869C184.41 222.668 184.147 222.496 183.867 222.356L184.314 221.462C184.663 221.636 184.991 221.851 185.29 222.1L184.65 222.869ZM186.099 226.313C186.201 225.033 185.693 223.737 184.65 222.869L185.29 222.1C186.59 223.183 187.223 224.798 187.096 226.392L186.099 226.313ZM188.354 228.271C187.843 227.582 187.167 227.096 186.424 226.821L186.771 225.883C187.691 226.223 188.527 226.826 189.158 227.676L188.354 228.271ZM196.122 238.754L188.354 228.271L189.158 227.676L196.925 238.159L196.122 238.754ZM197.714 239.982C197.079 239.728 196.528 239.303 196.122 238.754L196.925 238.159C197.221 238.559 197.623 238.868 198.085 239.053L197.714 239.982ZM198.157 240.159L197.714 239.982L198.085 239.053L198.528 239.23L198.157 240.159ZM199.401 241.996C199.401 241.187 198.908 240.459 198.157 240.159L198.528 239.23C199.659 239.683 200.401 240.778 200.401 241.996H199.401ZM198.689 243.516C199.14 243.14 199.401 242.583 199.401 241.996H200.401C200.401 242.88 200.008 243.719 199.329 244.284L198.689 243.516ZM197.463 244.538L198.689 243.516L199.329 244.284L198.103 245.306L197.463 244.538ZM194.814 245.496C195.782 245.496 196.719 245.157 197.463 244.538L198.103 245.306C197.179 246.075 196.016 246.496 194.814 246.496V245.496ZM193.966 245.496H194.814V246.496H193.966V245.496ZM191.493 243.969C191.962 244.905 192.919 245.496 193.966 245.496V246.496C192.54 246.496 191.237 245.691 190.599 244.416L191.493 243.969ZM191.196 243.374L191.493 243.969L190.599 244.416L190.301 243.821L191.196 243.374ZM191.253 241.88C190.98 242.335 190.958 242.899 191.196 243.374L190.301 243.821C189.911 243.04 189.946 242.114 190.396 241.366L191.253 241.88ZM190.239 238.301C191.546 238.978 192.011 240.618 191.253 241.88L190.396 241.366C190.856 240.598 190.574 239.601 189.779 239.188L190.239 238.301ZM183.004 234.551L190.239 238.301L189.779 239.188L182.544 235.438L183.004 234.551ZM180.72 230.676C180.681 232.218 181.474 233.757 183.004 234.551L182.544 235.438C180.65 234.457 179.672 232.549 179.72 230.651L180.72 230.676ZM178.719 229.978C179.214 230.094 179.719 230.156 180.227 230.163L180.213 231.163C179.633 231.155 179.055 231.084 178.49 230.951L178.719 229.978ZM171.147 228.197L178.719 229.978L178.49 230.951L170.918 229.17L171.147 228.197ZM168.799 227.456C169.562 227.761 170.347 228.009 171.147 228.197L170.918 229.17C170.07 228.971 169.237 228.708 168.428 228.384L168.799 227.456ZM161.459 224.521L168.799 227.456L168.428 228.384L161.088 225.449L161.459 224.521ZM158.467 223.325L161.459 224.521L161.088 225.449L158.096 224.253L158.467 223.325ZM156.651 219.972C156.37 221.381 157.133 222.791 158.467 223.325L158.096 224.253C156.314 223.54 155.294 221.658 155.671 219.776L156.651 219.972ZM157.772 216.625L156.636 220.032L155.687 219.716L156.823 216.309L157.772 216.625ZM159.661 215.263C158.804 215.263 158.043 215.812 157.772 216.625L156.823 216.309C157.23 215.087 158.374 214.263 159.661 214.263V215.263Z" fill="black"/>
<path d="M116.91 208.517L118.095 200.222C118.402 198.071 120.093 196.38 122.244 196.073C122.474 196.04 122.705 196.023 122.936 196.023H127.132C130.412 196.023 133.215 198.387 133.77 201.621L135.494 211.679C135.927 214.207 134.717 216.733 132.475 217.978C131.577 218.477 130.568 218.738 129.542 218.738H122.89C121.943 218.738 121.007 218.536 120.145 218.144C117.272 216.838 115.716 213.688 116.426 210.613L116.91 208.517Z" fill="#FFDBAC" stroke="black"/>
<path d="M90.2197 214.763L108.96 209.653H113.208C115.513 209.653 117.659 210.831 118.897 212.776C120.135 214.721 122.281 215.899 124.587 215.899H128.244C130.333 215.899 132.23 214.678 133.094 212.776C133.959 210.874 135.855 209.653 137.945 209.653H143.032L163.475 214.763L158.932 223.849L149.279 221.578L145.871 223.849V237.478V247.132V255.65V264.168H107.824V243.725V233.503V225.553L105.552 221.578L93.627 223.849L90.2197 214.763Z" fill="white" stroke="black"/>
<circle cx="124.814" cy="122.814" r="76.314" fill="#FFDBAC" stroke="black" stroke-width="3"/>
<path d="M122.972 125.116L129.504 145.528C129.917 146.819 128.954 148.138 127.599 148.138H122.972" stroke="black"/>
<path d="M134.023 123.274V123.274C127.827 121.101 121.08 121.078 114.871 123.21L114.684 123.274" stroke="black"/>
<path d="M66.526 104.059L50.6835 119.591L49.9468 120.143C49.4915 120.485 48.8418 120.16 48.8418 119.591V119.083C48.8418 114.525 49.3648 109.982 50.4005 105.544C51.5059 100.806 53.1873 96.2219 55.4072 91.8932L57.4346 87.9396C59.9864 82.9637 63.0722 78.2804 66.6374 73.9723L66.9142 73.6379C70.5088 69.2944 74.5925 65.3801 79.0842 61.9726C83.4654 58.6489 88.2066 55.8288 93.2184 53.5654L94.152 53.1438C98.0098 51.4015 102.016 50.0087 106.123 48.9821C110.592 47.8648 115.16 47.1862 119.761 46.9562L120.832 46.9026C127.756 46.5564 134.696 47.0921 141.485 48.4966L144.613 49.1439L148.079 50.3739C155.251 52.9188 162.046 56.4207 168.281 60.7846C174.271 64.9778 179.691 69.9306 184.407 75.5191L187.08 78.6871C188.844 80.7783 190.354 83.0715 191.578 85.5187L192.085 86.5336C195.717 93.798 198.258 101.558 199.625 109.564L200.786 116.368C201.162 117.622 199.633 118.562 198.684 117.66L177.974 97.9683C175.581 95.6931 172.122 94.9362 168.998 96.004L144.137 104.501C140.05 105.898 135.559 105.465 131.814 103.314L123.538 98.5591C118.911 95.9012 113.221 95.9012 108.594 98.5591L101.405 102.689C97.0459 105.193 91.7218 105.347 87.2251 103.099L83.7353 101.354C78.0093 98.4907 71.0974 99.5772 66.526 104.059Z" fill="#3B3024" stroke="black"/>
<path d="M139.088 166.555L112.382 169.318L119.289 178.527H132.181L139.088 166.555Z" fill="white" stroke="black"/>
<path fill-rule="evenodd" clip-rule="evenodd" d="M96.3828 167.444L118.122 156.772C118.592 156.542 119.082 156.355 119.586 156.215L122.167 155.498C125.414 154.596 128.836 154.528 132.116 155.3L134.005 155.745C134.628 155.891 135.225 156.126 135.78 156.444L154.164 166.948C155.539 165.989 157.054 165.243 158.658 164.737L161.649 163.793L176.532 158.265C177.352 157.96 178.195 157.721 179.053 157.549L182.013 156.957C183.765 156.607 185.571 156.634 187.312 157.035L189.42 157.522C190.229 157.709 190.974 158.109 191.577 158.681C192.107 159.237 192.15 160.097 191.678 160.703L189.275 163.793L181.649 173.927C180.96 174.842 180.178 175.684 179.316 176.438L169.78 184.776C168.966 185.488 168.083 186.119 167.146 186.659L158.886 191.419L148.802 195.901C147.246 196.592 145.593 197.04 143.901 197.228L127.377 199.064C126.285 199.185 125.184 199.198 124.089 199.101L112.018 198.036C110.731 197.923 109.46 197.659 108.234 197.25L92.8474 192.121C91.4497 191.655 90.1204 191.005 88.8945 190.188L76.9127 182.2C76.0045 181.594 75.1583 180.901 74.3865 180.129L67.0021 172.744C65.6489 171.391 64.5399 169.813 63.7249 168.082C63.3763 167.341 62.9731 166.627 62.5191 165.946L60.5056 162.926C60.4611 162.859 60.4256 162.786 60.4002 162.71C60.198 162.103 60.6724 161.484 61.3108 161.522L67.8055 161.904L82.6997 162.672C84.6686 162.773 86.6036 163.225 88.4137 164.006L96.3828 167.444ZM99.0226 168.584L99.3525 168.726C100.969 169.423 102.463 170.373 103.78 171.541L118.806 184.859C120.897 186.712 123.594 187.736 126.388 187.736C129.227 187.736 131.964 186.679 134.067 184.772L150.598 169.779L152.386 168.332L137.146 162.757C135.68 162.221 134.172 161.807 132.638 161.519C129.291 160.891 125.858 160.873 122.505 161.465L119.749 161.951L99.0226 168.584Z" fill="#3B3024" stroke="#3B3024"/>
<circle cx="147.836" cy="122.814" r="13.7736" fill="#920000" fill-opacity="0.57" stroke="black"/>
<circle cx="100.871" cy="122.814" r="13.7736" fill="#920000" fill-opacity="0.57" stroke="black"/>
<path d="M119.975 246.276C119.892 246.793 119.571 247.12 119.013 247.26C118.316 247.427 117.451 247.218 116.418 246.632C117.715 247.372 118.35 248.16 118.322 248.997C118.322 249.513 118.092 249.868 117.631 250.064C117.115 250.287 116.641 250.161 116.209 249.687C115.735 249.171 115.497 248.327 115.497 247.155C115.497 248.661 115.127 249.61 114.388 250.001C113.914 250.267 113.474 250.224 113.07 249.875C112.624 249.499 112.533 248.997 112.798 248.369C113.064 247.741 113.656 247.163 114.577 246.633C113.293 247.372 112.296 247.525 111.584 247.093C111.124 246.814 110.936 246.423 111.019 245.921C111.089 245.405 111.403 245.07 111.961 244.916C112.658 244.735 113.53 244.944 114.576 245.544C113.278 244.791 112.644 243.996 112.672 243.16C112.7 242.643 112.951 242.288 113.425 242.092C113.955 241.883 114.43 242.03 114.848 242.531C115.085 242.824 115.252 243.215 115.35 243.703H115.622C115.818 242.741 116.243 242.19 116.899 242.05C117.387 241.938 117.777 242.085 118.07 242.489C118.461 243.019 118.406 243.626 117.903 244.309C117.569 244.757 117.073 245.168 116.417 245.544C117.7 244.805 118.699 244.652 119.409 245.084C119.884 245.363 120.072 245.76 119.975 246.276ZM115.905 245.68C115.786 245.562 115.651 245.502 115.497 245.502C115.344 245.502 115.212 245.562 115.1 245.68C114.988 245.799 114.932 245.935 114.932 246.088C114.932 246.242 114.988 246.374 115.1 246.486C115.212 246.598 115.344 246.653 115.497 246.653C115.651 246.653 115.786 246.597 115.905 246.486C116.023 246.374 116.083 246.242 116.083 246.088C116.083 245.935 116.023 245.799 115.905 245.68Z" fill="#28ABE3"/>
<path d="M137.975 222.276C137.892 222.793 137.571 223.12 137.013 223.26C136.316 223.427 135.451 223.218 134.418 222.632C135.715 223.372 136.35 224.16 136.322 224.997C136.322 225.513 136.092 225.868 135.631 226.064C135.115 226.287 134.641 226.161 134.209 225.687C133.735 225.171 133.497 224.327 133.497 223.155C133.497 224.661 133.127 225.61 132.388 226.001C131.914 226.267 131.474 226.224 131.07 225.875C130.624 225.499 130.533 224.997 130.798 224.369C131.064 223.741 131.656 223.163 132.577 222.633C131.293 223.372 130.296 223.525 129.584 223.093C129.124 222.814 128.936 222.423 129.019 221.921C129.089 221.405 129.403 221.07 129.961 220.916C130.658 220.735 131.53 220.944 132.576 221.544C131.278 220.791 130.644 219.996 130.672 219.16C130.7 218.643 130.951 218.288 131.425 218.092C131.955 217.883 132.43 218.03 132.848 218.531C133.085 218.824 133.252 219.215 133.35 219.703H133.622C133.818 218.741 134.243 218.19 134.899 218.05C135.387 217.938 135.777 218.085 136.07 218.489C136.461 219.019 136.406 219.626 135.903 220.309C135.569 220.757 135.073 221.168 134.417 221.544C135.7 220.805 136.699 220.652 137.409 221.084C137.884 221.363 138.072 221.76 137.975 222.276ZM133.905 221.68C133.786 221.562 133.651 221.502 133.497 221.502C133.344 221.502 133.212 221.562 133.1 221.68C132.988 221.799 132.932 221.935 132.932 222.088C132.932 222.242 132.988 222.374 133.1 222.486C133.212 222.598 133.344 222.653 133.497 222.653C133.651 222.653 133.786 222.597 133.905 222.486C134.023 222.374 134.083 222.242 134.083 222.088C134.083 221.935 134.023 221.799 133.905 221.68Z" fill="#088BB7"/>
<path d="M124.975 222.276C124.892 222.793 124.571 223.12 124.013 223.26C123.316 223.427 122.451 223.218 121.418 222.632C122.715 223.372 123.35 224.16 123.322 224.997C123.322 225.513 123.092 225.868 122.631 226.064C122.115 226.287 121.641 226.161 121.209 225.687C120.735 225.171 120.497 224.327 120.497 223.155C120.497 224.661 120.127 225.61 119.388 226.001C118.914 226.267 118.474 226.224 118.07 225.875C117.624 225.499 117.533 224.997 117.798 224.369C118.064 223.741 118.656 223.163 119.577 222.633C118.293 223.372 117.296 223.525 116.584 223.093C116.124 222.814 115.936 222.423 116.019 221.921C116.089 221.405 116.403 221.07 116.961 220.916C117.658 220.735 118.53 220.944 119.576 221.544C118.278 220.791 117.644 219.996 117.672 219.16C117.7 218.643 117.951 218.288 118.425 218.092C118.955 217.883 119.43 218.03 119.848 218.531C120.085 218.824 120.252 219.215 120.35 219.703H120.622C120.818 218.741 121.243 218.19 121.899 218.05C122.387 217.938 122.777 218.085 123.07 218.489C123.461 219.019 123.406 219.626 122.903 220.309C122.569 220.757 122.073 221.168 121.417 221.544C122.7 220.805 123.699 220.652 124.409 221.084C124.884 221.363 125.072 221.76 124.975 222.276ZM120.905 221.68C120.786 221.562 120.651 221.502 120.497 221.502C120.344 221.502 120.212 221.562 120.1 221.68C119.988 221.799 119.932 221.935 119.932 222.088C119.932 222.242 119.988 222.374 120.1 222.486C120.212 222.598 120.344 222.653 120.497 222.653C120.651 222.653 120.786 222.597 120.905 222.486C121.023 222.374 121.083 222.242 121.083 222.088C121.083 221.935 121.023 221.799 120.905 221.68Z" fill="#28ABE3"/>
<path d="M130.983 228.851C130.928 229.195 130.714 229.414 130.342 229.507C129.877 229.618 129.3 229.478 128.612 229.088C129.477 229.581 129.9 230.107 129.881 230.664C129.881 231.008 129.728 231.245 129.421 231.376C129.077 231.525 128.761 231.441 128.473 231.125C128.157 230.781 127.998 230.218 127.998 229.437C127.998 230.441 127.751 231.073 127.259 231.334C126.943 231.511 126.649 231.483 126.38 231.25C126.082 230.999 126.022 230.664 126.199 230.246C126.376 229.827 126.771 229.442 127.385 229.089C126.529 229.581 125.864 229.684 125.389 229.395C125.083 229.209 124.957 228.949 125.013 228.614C125.059 228.27 125.269 228.046 125.64 227.944C126.105 227.824 126.687 227.963 127.384 228.363C126.519 227.861 126.096 227.331 126.115 226.773C126.133 226.429 126.301 226.192 126.617 226.062C126.97 225.922 127.287 226.02 127.565 226.354C127.723 226.55 127.835 226.81 127.9 227.135H128.081C128.212 226.494 128.495 226.126 128.932 226.033C129.258 225.959 129.518 226.057 129.714 226.326C129.974 226.679 129.937 227.084 129.602 227.54C129.379 227.838 129.049 228.112 128.612 228.363C129.467 227.87 130.132 227.768 130.606 228.056C130.923 228.242 131.048 228.507 130.983 228.851ZM128.27 228.454C128.191 228.375 128.1 228.335 127.998 228.335C127.896 228.335 127.808 228.375 127.733 228.454C127.658 228.533 127.622 228.623 127.622 228.725C127.622 228.828 127.659 228.916 127.733 228.991C127.808 229.065 127.896 229.102 127.998 229.102C128.1 229.102 128.191 229.065 128.27 228.991C128.349 228.916 128.389 228.828 128.389 228.725C128.389 228.623 128.349 228.533 128.27 228.454Z" fill="#088BB7"/>
<path d="M135.885 239.328C135.84 239.609 135.665 239.787 135.361 239.863C134.982 239.954 134.511 239.84 133.949 239.521C134.655 239.924 135.001 240.353 134.986 240.808C134.986 241.089 134.86 241.283 134.61 241.389C134.329 241.511 134.071 241.442 133.835 241.184C133.577 240.903 133.448 240.444 133.448 239.806C133.448 240.626 133.246 241.142 132.844 241.355C132.586 241.5 132.347 241.477 132.127 241.287C131.884 241.082 131.834 240.808 131.979 240.467C132.123 240.125 132.446 239.81 132.947 239.522C132.248 239.924 131.705 240.008 131.318 239.772C131.067 239.62 130.965 239.408 131.01 239.134C131.048 238.853 131.219 238.671 131.523 238.587C131.902 238.489 132.377 238.602 132.947 238.929C132.24 238.519 131.895 238.087 131.91 237.631C131.925 237.35 132.062 237.157 132.32 237.05C132.609 236.936 132.867 237.016 133.094 237.289C133.223 237.449 133.314 237.661 133.368 237.927H133.516C133.622 237.403 133.854 237.103 134.211 237.027C134.477 236.966 134.689 237.046 134.849 237.266C135.061 237.555 135.031 237.885 134.758 238.257C134.576 238.5 134.306 238.724 133.949 238.929C134.647 238.527 135.19 238.443 135.577 238.679C135.836 238.83 135.938 239.047 135.885 239.328ZM133.67 239.003C133.605 238.939 133.531 238.906 133.448 238.906C133.364 238.906 133.292 238.939 133.231 239.003C133.17 239.068 133.14 239.142 133.14 239.225C133.14 239.309 133.171 239.381 133.231 239.442C133.292 239.503 133.364 239.533 133.448 239.533C133.531 239.533 133.605 239.502 133.67 239.442C133.734 239.381 133.767 239.309 133.767 239.225C133.767 239.142 133.734 239.068 133.67 239.003Z" fill="#088BB7"/>
<path d="M141.975 246.276C141.892 246.793 141.571 247.12 141.013 247.26C140.316 247.427 139.451 247.218 138.418 246.632C139.715 247.372 140.35 248.16 140.322 248.997C140.322 249.513 140.092 249.868 139.631 250.064C139.115 250.287 138.641 250.161 138.209 249.687C137.735 249.171 137.497 248.327 137.497 247.155C137.497 248.661 137.127 249.61 136.388 250.001C135.914 250.267 135.474 250.224 135.07 249.875C134.624 249.499 134.533 248.997 134.798 248.369C135.064 247.741 135.656 247.163 136.577 246.633C135.293 247.372 134.296 247.525 133.584 247.093C133.124 246.814 132.936 246.423 133.019 245.921C133.089 245.405 133.403 245.07 133.961 244.916C134.658 244.735 135.53 244.944 136.576 245.544C135.278 244.791 134.644 243.996 134.672 243.16C134.7 242.643 134.951 242.288 135.425 242.092C135.955 241.883 136.43 242.03 136.848 242.531C137.085 242.824 137.252 243.215 137.35 243.703H137.622C137.818 242.741 138.243 242.19 138.899 242.05C139.387 241.938 139.777 242.085 140.07 242.489C140.461 243.019 140.406 243.626 139.903 244.309C139.569 244.757 139.073 245.168 138.417 245.544C139.7 244.805 140.699 244.652 141.409 245.084C141.884 245.363 142.072 245.76 141.975 246.276ZM137.905 245.68C137.786 245.562 137.651 245.502 137.497 245.502C137.344 245.502 137.212 245.562 137.1 245.68C136.988 245.799 136.932 245.935 136.932 246.088C136.932 246.242 136.988 246.374 137.1 246.486C137.212 246.598 137.344 246.653 137.497 246.653C137.651 246.653 137.786 246.597 137.905 246.486C138.023 246.374 138.083 246.242 138.083 246.088C138.083 245.935 138.023 245.799 137.905 245.68Z" fill="#28ABE3"/>
<path d="M117.975 259.276C117.892 259.793 117.571 260.12 117.013 260.26C116.316 260.427 115.451 260.218 114.418 259.632C115.715 260.372 116.35 261.16 116.322 261.997C116.322 262.513 116.092 262.868 115.631 263.064C115.115 263.287 114.641 263.161 114.209 262.687C113.735 262.171 113.497 261.327 113.497 260.155C113.497 261.661 113.127 262.61 112.388 263.001C111.914 263.267 111.474 263.224 111.07 262.875C110.624 262.499 110.533 261.997 110.798 261.369C111.064 260.741 111.656 260.163 112.577 259.633C111.293 260.372 110.296 260.525 109.584 260.093C109.124 259.814 108.936 259.423 109.019 258.921C109.089 258.405 109.403 258.07 109.961 257.916C110.658 257.735 111.53 257.944 112.576 258.544C111.278 257.791 110.644 256.996 110.672 256.16C110.7 255.643 110.951 255.288 111.425 255.092C111.955 254.883 112.43 255.03 112.848 255.531C113.085 255.824 113.252 256.215 113.35 256.703H113.622C113.818 255.741 114.243 255.19 114.899 255.05C115.387 254.938 115.777 255.085 116.07 255.489C116.461 256.019 116.406 256.626 115.903 257.309C115.569 257.757 115.073 258.168 114.417 258.544C115.7 257.805 116.699 257.652 117.409 258.084C117.884 258.363 118.072 258.76 117.975 259.276ZM113.905 258.68C113.786 258.562 113.651 258.502 113.497 258.502C113.344 258.502 113.212 258.562 113.1 258.68C112.988 258.799 112.932 258.935 112.932 259.088C112.932 259.242 112.988 259.374 113.1 259.486C113.212 259.598 113.344 259.653 113.497 259.653C113.651 259.653 113.786 259.597 113.905 259.486C114.023 259.374 114.083 259.242 114.083 259.088C114.083 258.935 114.023 258.799 113.905 258.68Z" fill="#088BB7"/>
<path d="M143.975 258.276C143.892 258.793 143.571 259.12 143.013 259.26C142.316 259.427 141.451 259.218 140.418 258.632C141.715 259.372 142.35 260.16 142.322 260.997C142.322 261.513 142.092 261.868 141.631 262.064C141.115 262.287 140.641 262.161 140.209 261.687C139.735 261.171 139.497 260.327 139.497 259.155C139.497 260.661 139.127 261.61 138.388 262.001C137.914 262.267 137.474 262.224 137.07 261.875C136.624 261.499 136.533 260.997 136.798 260.369C137.064 259.741 137.656 259.163 138.577 258.633C137.293 259.372 136.296 259.525 135.584 259.093C135.124 258.814 134.936 258.423 135.019 257.921C135.089 257.405 135.403 257.07 135.961 256.916C136.658 256.735 137.53 256.944 138.576 257.544C137.278 256.791 136.644 255.996 136.672 255.16C136.7 254.643 136.951 254.288 137.425 254.092C137.955 253.883 138.43 254.03 138.848 254.531C139.085 254.824 139.252 255.215 139.35 255.703H139.622C139.818 254.741 140.243 254.19 140.899 254.05C141.387 253.938 141.777 254.085 142.07 254.489C142.461 255.019 142.406 255.626 141.903 256.309C141.569 256.757 141.073 257.168 140.417 257.544C141.7 256.805 142.699 256.652 143.409 257.084C143.884 257.363 144.072 257.76 143.975 258.276ZM139.905 257.68C139.786 257.562 139.651 257.502 139.497 257.502C139.344 257.502 139.212 257.562 139.1 257.68C138.988 257.799 138.932 257.935 138.932 258.088C138.932 258.242 138.988 258.374 139.1 258.486C139.212 258.598 139.344 258.653 139.497 258.653C139.651 258.653 139.786 258.597 139.905 258.486C140.023 258.374 140.083 258.242 140.083 258.088C140.083 257.935 140.023 257.799 139.905 257.68Z" fill="#28ABE3"/>
<path d="M130.975 256.276C130.892 256.793 130.571 257.12 130.013 257.26C129.316 257.427 128.451 257.218 127.418 256.632C128.715 257.372 129.35 258.16 129.322 258.997C129.322 259.513 129.092 259.868 128.631 260.064C128.115 260.287 127.641 260.161 127.209 259.687C126.735 259.171 126.497 258.327 126.497 257.155C126.497 258.661 126.127 259.61 125.388 260.001C124.914 260.267 124.474 260.224 124.07 259.875C123.624 259.499 123.533 258.997 123.798 258.369C124.064 257.741 124.656 257.163 125.577 256.633C124.293 257.372 123.296 257.525 122.584 257.093C122.124 256.814 121.936 256.423 122.019 255.921C122.089 255.405 122.403 255.07 122.961 254.916C123.658 254.735 124.53 254.944 125.576 255.544C124.278 254.791 123.644 253.996 123.672 253.16C123.7 252.643 123.951 252.288 124.425 252.092C124.955 251.883 125.43 252.03 125.848 252.531C126.085 252.824 126.252 253.215 126.35 253.703H126.622C126.818 252.741 127.243 252.19 127.899 252.05C128.387 251.938 128.777 252.085 129.07 252.489C129.461 253.019 129.406 253.626 128.903 254.309C128.569 254.757 128.073 255.168 127.417 255.544C128.7 254.805 129.699 254.652 130.409 255.084C130.884 255.363 131.072 255.76 130.975 256.276ZM126.905 255.68C126.786 255.562 126.651 255.502 126.497 255.502C126.344 255.502 126.212 255.562 126.1 255.68C125.988 255.799 125.932 255.935 125.932 256.088C125.932 256.242 125.988 256.374 126.1 256.486C126.212 256.598 126.344 256.653 126.497 256.653C126.651 256.653 126.786 256.597 126.905 256.486C127.023 256.374 127.083 256.242 127.083 256.088C127.083 255.935 127.023 255.799 126.905 255.68Z" fill="#28ABE3"/>
<path d="M143.975 233.276C143.892 233.793 143.571 234.12 143.013 234.26C142.316 234.427 141.451 234.218 140.418 233.632C141.715 234.372 142.35 235.16 142.322 235.997C142.322 236.513 142.092 236.868 141.631 237.064C141.115 237.287 140.641 237.161 140.209 236.687C139.735 236.171 139.497 235.327 139.497 234.155C139.497 235.661 139.127 236.61 138.388 237.001C137.914 237.267 137.474 237.224 137.07 236.875C136.624 236.499 136.533 235.997 136.798 235.369C137.064 234.741 137.656 234.163 138.577 233.633C137.293 234.372 136.296 234.525 135.584 234.093C135.124 233.814 134.936 233.423 135.019 232.921C135.089 232.405 135.403 232.07 135.961 231.916C136.658 231.735 137.53 231.944 138.576 232.544C137.278 231.791 136.644 230.996 136.672 230.16C136.7 229.643 136.951 229.288 137.425 229.092C137.955 228.883 138.43 229.03 138.848 229.531C139.085 229.824 139.252 230.215 139.35 230.703H139.622C139.818 229.741 140.243 229.19 140.899 229.05C141.387 228.938 141.777 229.085 142.07 229.489C142.461 230.019 142.406 230.626 141.903 231.309C141.569 231.757 141.073 232.168 140.417 232.544C141.7 231.805 142.699 231.652 143.409 232.084C143.884 232.363 144.072 232.76 143.975 233.276ZM139.905 232.68C139.786 232.562 139.651 232.502 139.497 232.502C139.344 232.502 139.212 232.562 139.1 232.68C138.988 232.799 138.932 232.935 138.932 233.088C138.932 233.242 138.988 233.374 139.1 233.486C139.212 233.598 139.344 233.653 139.497 233.653C139.651 233.653 139.786 233.597 139.905 233.486C140.023 233.374 140.083 233.242 140.083 233.088C140.083 232.935 140.023 232.799 139.905 232.68Z" fill="#28ABE3"/>
<path d="M129.975 237.276C129.892 237.793 129.571 238.12 129.013 238.26C128.316 238.427 127.451 238.218 126.418 237.632C127.715 238.372 128.35 239.16 128.322 239.997C128.322 240.513 128.092 240.868 127.631 241.064C127.115 241.287 126.641 241.161 126.209 240.687C125.735 240.171 125.497 239.327 125.497 238.155C125.497 239.661 125.127 240.61 124.388 241.001C123.914 241.267 123.474 241.224 123.07 240.875C122.624 240.499 122.533 239.997 122.798 239.369C123.064 238.741 123.656 238.163 124.577 237.633C123.293 238.372 122.296 238.525 121.584 238.093C121.124 237.814 120.936 237.423 121.019 236.921C121.089 236.405 121.403 236.07 121.961 235.916C122.658 235.735 123.53 235.944 124.576 236.544C123.278 235.791 122.644 234.996 122.672 234.16C122.7 233.643 122.951 233.288 123.425 233.092C123.955 232.883 124.43 233.03 124.848 233.531C125.085 233.824 125.252 234.215 125.35 234.703H125.622C125.818 233.741 126.243 233.19 126.899 233.05C127.387 232.938 127.777 233.085 128.07 233.489C128.461 234.019 128.406 234.626 127.903 235.309C127.569 235.757 127.073 236.168 126.417 236.544C127.7 235.805 128.699 235.652 129.409 236.084C129.884 236.363 130.072 236.76 129.975 237.276ZM125.905 236.68C125.786 236.562 125.651 236.502 125.497 236.502C125.344 236.502 125.212 236.562 125.1 236.68C124.988 236.799 124.932 236.935 124.932 237.088C124.932 237.242 124.988 237.374 125.1 237.486C125.212 237.598 125.344 237.653 125.497 237.653C125.651 237.653 125.786 237.597 125.905 237.486C126.023 237.374 126.083 237.242 126.083 237.088C126.083 236.935 126.023 236.799 125.905 236.68Z" fill="#28ABE3"/>
<path d="M117.975 234.276C117.892 234.793 117.571 235.12 117.013 235.26C116.316 235.427 115.451 235.218 114.418 234.632C115.715 235.372 116.35 236.16 116.322 236.997C116.322 237.513 116.092 237.868 115.631 238.064C115.115 238.287 114.641 238.161 114.209 237.687C113.735 237.171 113.497 236.327 113.497 235.155C113.497 236.661 113.127 237.61 112.388 238.001C111.914 238.267 111.474 238.224 111.07 237.875C110.624 237.499 110.533 236.997 110.798 236.369C111.064 235.741 111.656 235.163 112.577 234.633C111.293 235.372 110.296 235.525 109.584 235.093C109.124 234.814 108.936 234.423 109.019 233.921C109.089 233.405 109.403 233.07 109.961 232.916C110.658 232.735 111.53 232.944 112.576 233.544C111.278 232.791 110.644 231.996 110.672 231.16C110.7 230.643 110.951 230.288 111.425 230.092C111.955 229.883 112.43 230.03 112.848 230.531C113.085 230.824 113.252 231.215 113.35 231.703H113.622C113.818 230.741 114.243 230.19 114.899 230.05C115.387 229.938 115.777 230.085 116.07 230.489C116.461 231.019 116.406 231.626 115.903 232.309C115.569 232.757 115.073 233.168 114.417 233.544C115.7 232.805 116.699 232.652 117.409 233.084C117.884 233.363 118.072 233.76 117.975 234.276ZM113.905 233.68C113.786 233.562 113.651 233.502 113.497 233.502C113.344 233.502 113.212 233.562 113.1 233.68C112.988 233.799 112.932 233.935 112.932 234.088C112.932 234.242 112.988 234.374 113.1 234.486C113.212 234.598 113.344 234.653 113.497 234.653C113.651 234.653 113.786 234.597 113.905 234.486C114.023 234.374 114.083 234.242 114.083 234.088C114.083 233.935 114.023 233.799 113.905 233.68Z" fill="#088BB7"/>
<path d="M111.975 216.276C111.892 216.793 111.571 217.12 111.013 217.26C110.316 217.427 109.451 217.218 108.418 216.632C109.715 217.372 110.35 218.16 110.322 218.997C110.322 219.513 110.092 219.868 109.631 220.064C109.115 220.287 108.641 220.161 108.209 219.687C107.735 219.171 107.497 218.327 107.497 217.155C107.497 218.661 107.127 219.61 106.388 220.001C105.914 220.267 105.474 220.224 105.07 219.875C104.624 219.499 104.533 218.997 104.798 218.369C105.064 217.741 105.656 217.163 106.577 216.633C105.293 217.372 104.296 217.525 103.584 217.093C103.124 216.814 102.936 216.423 103.019 215.921C103.089 215.405 103.403 215.07 103.961 214.916C104.658 214.735 105.53 214.944 106.576 215.544C105.278 214.791 104.644 213.996 104.672 213.16C104.7 212.643 104.951 212.288 105.425 212.092C105.955 211.883 106.43 212.03 106.848 212.531C107.085 212.824 107.252 213.215 107.35 213.703H107.622C107.818 212.741 108.243 212.19 108.899 212.05C109.387 211.938 109.777 212.085 110.07 212.489C110.461 213.019 110.406 213.626 109.903 214.309C109.569 214.757 109.073 215.168 108.417 215.544C109.7 214.805 110.699 214.652 111.409 215.084C111.884 215.363 112.072 215.76 111.975 216.276ZM107.905 215.68C107.786 215.562 107.651 215.502 107.497 215.502C107.344 215.502 107.212 215.562 107.1 215.68C106.988 215.799 106.932 215.935 106.932 216.088C106.932 216.242 106.988 216.374 107.1 216.486C107.212 216.598 107.344 216.653 107.497 216.653C107.651 216.653 107.786 216.597 107.905 216.486C108.023 216.374 108.083 216.242 108.083 216.088C108.083 215.935 108.023 215.799 107.905 215.68Z" fill="#088BB7"/>
<path d="M98.9862 217.376C98.9397 217.662 98.7617 217.845 98.4515 217.922C98.0642 218.015 97.5836 217.899 97.0102 217.573C97.7306 217.984 98.0831 218.422 98.0678 218.887C98.0678 219.174 97.9398 219.371 97.6841 219.48C97.3974 219.604 97.1342 219.534 96.8938 219.271C96.6306 218.984 96.4984 218.515 96.4984 217.864C96.4984 218.701 96.2928 219.228 95.8821 219.445C95.6189 219.593 95.3745 219.569 95.15 219.375C94.902 219.166 94.8515 218.887 94.999 218.538C95.1464 218.189 95.4755 217.868 95.9872 217.574C95.274 217.984 94.7199 218.07 94.3245 217.829C94.0689 217.674 93.9643 217.457 94.0107 217.178C94.0495 216.892 94.224 216.705 94.5337 216.62C94.9209 216.52 95.4056 216.635 95.9867 216.969C95.2658 216.551 94.9132 216.109 94.9291 215.644C94.9444 215.357 95.0842 215.16 95.3474 215.051C95.6418 214.935 95.9056 215.017 96.1377 215.295C96.2694 215.458 96.3622 215.675 96.4168 215.946H96.5678C96.6765 215.411 96.9127 215.105 97.277 215.028C97.5484 214.966 97.7653 215.047 97.928 215.272C98.1449 215.566 98.1142 215.903 97.8352 216.283C97.6495 216.531 97.3739 216.76 97.0097 216.969C97.7224 216.558 98.277 216.473 98.6719 216.713C98.9357 216.868 99.0403 217.089 98.9862 217.376ZM96.725 217.045C96.6592 216.979 96.5836 216.946 96.4984 216.946C96.4132 216.946 96.3398 216.979 96.2775 217.045C96.2153 217.11 96.1847 217.186 96.1847 217.271C96.1847 217.356 96.2158 217.43 96.2775 217.492C96.3398 217.554 96.4132 217.585 96.4984 217.585C96.5836 217.585 96.6592 217.554 96.725 217.492C96.7908 217.43 96.8239 217.356 96.8239 217.271C96.8239 217.186 96.7908 217.11 96.725 217.045Z" fill="#28ABE3"/>
<path d="M114.986 224.376C114.94 224.662 114.762 224.845 114.451 224.922C114.064 225.015 113.584 224.899 113.01 224.573C113.731 224.984 114.083 225.422 114.068 225.887C114.068 226.174 113.94 226.371 113.684 226.48C113.397 226.604 113.134 226.534 112.894 226.271C112.631 225.984 112.498 225.515 112.498 224.864C112.498 225.701 112.293 226.228 111.882 226.445C111.619 226.593 111.374 226.569 111.15 226.375C110.902 226.166 110.852 225.887 110.999 225.538C111.146 225.189 111.475 224.868 111.987 224.574C111.274 224.984 110.72 225.07 110.324 224.829C110.069 224.674 109.964 224.457 110.011 224.178C110.049 223.892 110.224 223.705 110.534 223.62C110.921 223.52 111.406 223.635 111.987 223.969C111.266 223.551 110.913 223.109 110.929 222.644C110.944 222.357 111.084 222.16 111.347 222.051C111.642 221.935 111.906 222.017 112.138 222.295C112.269 222.458 112.362 222.675 112.417 222.946H112.568C112.677 222.411 112.913 222.105 113.277 222.028C113.548 221.966 113.765 222.047 113.928 222.272C114.145 222.566 114.114 222.903 113.835 223.283C113.649 223.531 113.374 223.76 113.01 223.969C113.722 223.558 114.277 223.473 114.672 223.713C114.936 223.868 115.04 224.089 114.986 224.376ZM112.725 224.045C112.659 223.979 112.584 223.946 112.498 223.946C112.413 223.946 112.34 223.979 112.278 224.045C112.215 224.11 112.185 224.186 112.185 224.271C112.185 224.356 112.216 224.43 112.278 224.492C112.34 224.554 112.413 224.585 112.498 224.585C112.584 224.585 112.659 224.554 112.725 224.492C112.791 224.43 112.824 224.356 112.824 224.271C112.824 224.186 112.791 224.11 112.725 224.045Z" fill="#28ABE3"/>
<path d="M127.986 247.376C127.94 247.662 127.762 247.845 127.451 247.922C127.064 248.015 126.584 247.899 126.01 247.573C126.731 247.984 127.083 248.422 127.068 248.887C127.068 249.174 126.94 249.371 126.684 249.48C126.397 249.604 126.134 249.534 125.894 249.271C125.631 248.984 125.498 248.515 125.498 247.864C125.498 248.701 125.293 249.228 124.882 249.445C124.619 249.593 124.374 249.569 124.15 249.375C123.902 249.166 123.852 248.887 123.999 248.538C124.146 248.189 124.475 247.868 124.987 247.574C124.274 247.984 123.72 248.07 123.324 247.829C123.069 247.674 122.964 247.457 123.011 247.178C123.049 246.892 123.224 246.705 123.534 246.62C123.921 246.52 124.406 246.635 124.987 246.969C124.266 246.551 123.913 246.109 123.929 245.644C123.944 245.357 124.084 245.16 124.347 245.051C124.642 244.935 124.906 245.017 125.138 245.295C125.269 245.458 125.362 245.675 125.417 245.946H125.568C125.677 245.411 125.913 245.105 126.277 245.028C126.548 244.966 126.765 245.047 126.928 245.272C127.145 245.566 127.114 245.903 126.835 246.283C126.649 246.531 126.374 246.76 126.01 246.969C126.722 246.558 127.277 246.473 127.672 246.713C127.936 246.868 128.04 247.089 127.986 247.376ZM125.725 247.045C125.659 246.979 125.584 246.946 125.498 246.946C125.413 246.946 125.34 246.979 125.278 247.045C125.215 247.11 125.185 247.186 125.185 247.271C125.185 247.356 125.216 247.43 125.278 247.492C125.34 247.554 125.413 247.585 125.498 247.585C125.584 247.585 125.659 247.554 125.725 247.492C125.791 247.43 125.824 247.356 125.824 247.271C125.824 247.186 125.791 247.11 125.725 247.045Z" fill="#088BB7"/>
<path d="M149.975 216.276C149.892 216.793 149.571 217.12 149.013 217.26C148.316 217.427 147.451 217.218 146.418 216.632C147.715 217.372 148.35 218.16 148.322 218.997C148.322 219.513 148.092 219.868 147.631 220.064C147.115 220.287 146.641 220.161 146.209 219.687C145.735 219.171 145.497 218.327 145.497 217.155C145.497 218.661 145.127 219.61 144.388 220.001C143.914 220.267 143.474 220.224 143.07 219.875C142.624 219.499 142.533 218.997 142.798 218.369C143.064 217.741 143.656 217.163 144.577 216.633C143.293 217.372 142.296 217.525 141.584 217.093C141.124 216.814 140.936 216.423 141.019 215.921C141.089 215.405 141.403 215.07 141.961 214.916C142.658 214.735 143.53 214.944 144.576 215.544C143.278 214.791 142.644 213.996 142.672 213.16C142.7 212.643 142.951 212.288 143.425 212.092C143.955 211.883 144.43 212.03 144.848 212.531C145.085 212.824 145.252 213.215 145.35 213.703H145.622C145.818 212.741 146.243 212.19 146.899 212.05C147.387 211.938 147.777 212.085 148.07 212.489C148.461 213.019 148.406 213.626 147.903 214.309C147.569 214.757 147.073 215.168 146.417 215.544C147.7 214.805 148.699 214.652 149.409 215.084C149.884 215.363 150.072 215.76 149.975 216.276ZM145.905 215.68C145.786 215.562 145.651 215.502 145.497 215.502C145.344 215.502 145.212 215.562 145.1 215.68C144.988 215.799 144.932 215.935 144.932 216.088C144.932 216.242 144.988 216.374 145.1 216.486C145.212 216.598 145.344 216.653 145.497 216.653C145.651 216.653 145.786 216.597 145.905 216.486C146.023 216.374 146.083 216.242 146.083 216.088C146.083 215.935 146.023 215.799 145.905 215.68Z" fill="#28ABE3"/>
<path d="M158.983 217.851C158.928 218.195 158.714 218.414 158.342 218.507C157.877 218.618 157.3 218.478 156.612 218.088C157.477 218.581 157.9 219.107 157.881 219.664C157.881 220.008 157.728 220.245 157.421 220.376C157.077 220.525 156.761 220.441 156.473 220.125C156.157 219.781 155.998 219.218 155.998 218.437C155.998 219.441 155.751 220.073 155.259 220.334C154.943 220.511 154.649 220.483 154.38 220.25C154.082 219.999 154.022 219.664 154.199 219.246C154.376 218.827 154.771 218.442 155.385 218.089C154.529 218.581 153.864 218.684 153.389 218.395C153.083 218.209 152.957 217.949 153.013 217.614C153.059 217.27 153.269 217.046 153.64 216.944C154.105 216.824 154.687 216.963 155.384 217.363C154.519 216.861 154.096 216.331 154.115 215.773C154.133 215.429 154.301 215.192 154.617 215.062C154.97 214.922 155.287 215.02 155.565 215.354C155.723 215.55 155.835 215.81 155.9 216.135H156.081C156.212 215.494 156.495 215.126 156.932 215.033C157.258 214.959 157.518 215.057 157.714 215.326C157.974 215.679 157.937 216.084 157.602 216.54C157.379 216.838 157.049 217.112 156.612 217.363C157.467 216.87 158.132 216.768 158.606 217.056C158.923 217.242 159.048 217.507 158.983 217.851ZM156.27 217.454C156.191 217.375 156.1 217.335 155.998 217.335C155.896 217.335 155.808 217.375 155.733 217.454C155.658 217.533 155.622 217.623 155.622 217.725C155.622 217.828 155.659 217.916 155.733 217.991C155.808 218.065 155.896 218.102 155.998 218.102C156.1 218.102 156.191 218.065 156.27 217.991C156.349 217.916 156.389 217.828 156.389 217.725C156.389 217.623 156.349 217.533 156.27 217.454Z" fill="#088BB7"/>
</svg>
