<svg width="49" height="49" viewBox="0 0 49 49" fill="none" xmlns="http://www.w3.org/2000/svg">
<path d="M24.4936 47.5C37.1931 47.5 47.4873 37.2021 47.4873 24.5C47.4873 11.7979 37.1931 1.5 24.4936 1.5C11.7942 1.5 1.5 11.7979 1.5 24.5C1.5 37.2021 11.7942 47.5 24.4936 47.5Z" fill="white" stroke="black" stroke-width="3"/>
<path d="M24.4963 3C12.6196 3 3 12.6196 3 24.4962C3 34.0083 9.1533 42.0426 17.6981 44.8908C18.7729 45.0789 19.1759 44.8908 19.1759 43.8697C19.1759 43.6923 19.1727 43.3722 19.1684 42.9544C19.1605 42.1698 19.1491 41.0408 19.1491 39.8661C13.7481 40.8603 12.3509 38.5494 11.9209 37.3403C11.6791 36.7222 10.6312 34.8144 9.71758 34.3039C8.96521 33.9009 7.8904 32.9067 9.69071 32.8798C11.3835 32.8529 12.5927 34.4383 12.9958 35.0831C14.9304 38.3345 18.0205 37.4209 19.2565 36.8566C19.4446 35.4593 20.0089 34.5189 20.6269 33.9815C15.844 33.4441 10.8461 31.59 10.8461 23.3677C10.8461 21.03 11.6791 19.0953 13.0495 17.5906C12.8345 17.0532 12.0822 14.8498 13.2645 11.8941C13.2645 11.8941 15.0648 11.3298 19.1759 14.0974C20.8956 13.6138 22.7228 13.3719 24.55 13.3719C26.3772 13.3719 28.2044 13.6138 29.9241 14.0974C34.0352 11.3029 35.8355 11.8941 35.8355 11.8941C37.0178 14.8498 36.2654 17.0532 36.0505 17.5906C37.4209 19.0953 38.2539 21.0031 38.2539 23.3677C38.2539 31.6169 33.2291 33.4441 28.4462 33.9815C29.2254 34.6532 29.8972 35.943 29.8972 37.9583C29.8972 39.872 29.8853 41.5358 29.8773 42.6484C29.8733 43.2073 29.8703 43.6272 29.8703 43.8697C29.8703 44.434 30.2734 45.1058 31.3482 44.8908C35.6158 43.4505 39.3242 40.708 41.9513 37.0494C44.5783 33.3908 45.9918 29.0004 45.9925 24.4962C45.9925 12.6196 36.3729 3 24.4963 3Z" fill="black"/>
<path d="M24.4963 3C12.6196 3 3 12.6196 3 24.4962C3 34.0083 9.1533 42.0426 17.6981 44.8908C18.7729 45.0789 19.1759 44.8908 19.1759 43.8697C19.1759 43.6923 19.1727 43.3722 19.1684 42.9544C19.1605 42.1698 19.1491 41.0408 19.1491 39.8661C13.7481 40.8603 12.3509 38.5494 11.9209 37.3403C11.6791 36.7222 10.6312 34.8144 9.71758 34.3039C8.96521 33.9009 7.8904 32.9067 9.69071 32.8798C11.3835 32.8529 12.5927 34.4383 12.9958 35.0831C14.9304 38.3345 18.0205 37.4209 19.2565 36.8566C19.4446 35.4593 20.0089 34.5189 20.6269 33.9815C15.844 33.4441 10.8461 31.59 10.8461 23.3677C10.8461 21.03 11.6791 19.0953 13.0495 17.5906C12.8345 17.0532 12.0822 14.8498 13.2645 11.8941C13.2645 11.8941 15.0648 11.3298 19.1759 14.0974C20.8956 13.6138 22.7228 13.3719 24.55 13.3719C26.3772 13.3719 28.2044 13.6138 29.9241 14.0974C34.0352 11.3029 35.8355 11.8941 35.8355 11.8941C37.0178 14.8498 36.2654 17.0532 36.0505 17.5906C37.4209 19.0953 38.2539 21.0031 38.2539 23.3677C38.2539 31.6169 33.2291 33.4441 28.4462 33.9815C29.2254 34.6532 29.8972 35.943 29.8972 37.9583C29.8972 39.872 29.8853 41.5358 29.8773 42.6484C29.8733 43.2073 29.8703 43.6272 29.8703 43.8697C29.8703 44.434 30.2734 45.1058 31.3482 44.8908C35.6158 43.4505 39.3242 40.708 41.9513 37.0494C44.5783 33.3908 45.9918 29.0004 45.9925 24.4962C45.9925 12.6196 36.3729 3 24.4963 3Z" stroke="black"/>
</svg>
