<svg width="52" height="52" viewBox="0 0 52 52" fill="none" xmlns="http://www.w3.org/2000/svg">
<circle cx="26" cy="26" r="26" fill="black"/>
<path d="M13.445 13.3037C13.6546 13.1051 13.9364 12.9959 14.2284 13.0001C14.5205 13.0044 14.7988 13.1217 15.0023 13.3263C15.2248 13.5529 15.3469 13.856 15.3421 14.1699C15.3373 14.4837 15.2061 14.7831 14.9769 15.0032C11.9845 17.9599 10.3087 21.9509 10.3141 26.1081C10.3141 30.6052 12.2347 34.6639 15.3217 37.5429C15.4409 37.6505 15.5369 37.7802 15.6042 37.9244C15.6715 38.0686 15.7088 38.2245 15.7137 38.3829C15.7187 38.5413 15.6913 38.6991 15.6331 38.847C15.5749 38.995 15.4871 39.1301 15.3749 39.2446C15.1758 39.4454 14.9044 39.5625 14.6183 39.5709C14.3323 39.5794 14.0541 39.4785 13.843 39.2898C11.9961 37.6009 10.5244 35.5593 9.51925 33.2917C8.51412 31.0241 7.99701 28.579 8.00001 26.1081C8.00001 21.1048 10.0827 16.576 13.445 13.3037Z" fill="white"/>
<path d="M37.0221 15.0021C36.7932 14.7818 36.6623 14.4822 36.658 14.1683C36.6537 13.8544 36.7762 13.5515 36.999 13.3252C37.2024 13.1213 37.4803 13.0044 37.7718 13.0001C38.0634 12.9959 38.3447 13.1047 38.5543 13.3026C40.2828 14.9802 41.6539 16.9755 42.5886 19.1732C43.5233 21.371 44.003 23.7278 44 26.1075C44 31.3054 41.7551 35.9925 38.1562 39.2898C37.945 39.4785 37.6668 39.5794 37.3807 39.5709C37.0946 39.5625 36.8231 39.4454 36.6241 39.2446C36.5121 39.1302 36.4246 38.9952 36.3667 38.8474C36.3087 38.6997 36.2814 38.5421 36.2863 38.384C36.2913 38.2258 36.3284 38.0702 36.3955 37.9262C36.4626 37.7822 36.5584 37.6526 36.6773 37.5451C38.2624 36.0697 39.5238 34.2949 40.3848 32.3287C41.2458 30.3625 41.6883 28.2459 41.6856 26.1075C41.6856 21.7774 39.9059 17.8587 37.0221 14.9999V15.0021Z" fill="white"/>
<path d="M17.2337 17.5656C17.4103 17.38 17.6464 17.2795 17.8902 17.286C18.1339 17.2926 18.3653 17.4057 18.5335 17.6006C18.9456 18.0555 18.904 18.8034 18.4978 19.2626C16.8809 21.0973 15.9779 23.5568 15.9814 26.1162C15.9814 28.9372 17.0573 31.4827 18.7832 33.2781C19.2191 33.7308 19.2785 34.5049 18.8525 34.9751C18.6892 35.1625 18.4669 35.2733 18.2315 35.2847C17.9962 35.2961 17.7659 35.2072 17.5884 35.0363C16.4573 33.91 15.5533 32.5339 14.9352 30.9972C14.317 29.4605 13.9984 27.7975 14 26.1162C14 22.7703 15.2364 19.7459 17.2337 17.5656Z" fill="white"/>
<path d="M33.5025 19.2624C33.0963 18.8032 33.0547 18.0554 33.4668 17.6006C33.635 17.4057 33.8664 17.2926 34.1101 17.286C34.3538 17.2795 34.59 17.38 34.7665 17.5656C35.7924 18.6827 36.6067 20.0139 37.1618 21.4817C37.7169 22.9495 38.0019 24.5245 38 26.1151C38.0022 27.7964 37.684 29.4595 37.0662 30.9964C36.4484 32.5332 35.5448 33.9096 34.4139 35.0363C34.2356 35.2079 34.0042 35.2968 33.7679 35.2846C33.5316 35.2724 33.3088 35.1599 33.1458 34.9707C32.7218 34.5027 32.7813 33.7287 33.2172 33.2761C34.103 32.3573 34.8086 31.2477 35.2905 30.016C35.7723 28.7843 36.0202 27.4567 36.0187 26.1151C36.0223 23.556 35.1193 21.0968 33.5025 19.2624Z" fill="white"/>
<path d="M27.7602 21.9186C26.5682 21.5992 25.2981 21.7664 24.2294 22.3834C23.1607 23.0004 22.3809 24.0167 22.0615 25.2087C21.7421 26.4007 21.9093 27.6707 22.5263 28.7394C23.1433 29.8082 24.1596 30.588 25.3516 30.9074C26.5436 31.2268 27.8137 31.0596 28.8824 30.4425C29.9511 29.8255 30.7309 28.8092 31.0503 27.6172C31.3697 26.4253 31.2025 25.1552 30.5855 24.0865C29.9684 23.0178 28.9521 22.238 27.7602 21.9186Z" fill="white"/>
</svg>
