<svg width="150" height="150" viewBox="0 0 150 150" fill="none" xmlns="http://www.w3.org/2000/svg">
<path d="M13.5582 67.0679L43.8304 132.954C44.4889 134.388 46.1447 135.066 47.6196 134.507L136.376 100.873C138.21 100.178 138.895 97.9376 137.762 96.3357L85.5143 22.4686C84.0777 20.4375 80.9355 20.9369 80.1994 23.3133L65.3269 71.3304C64.861 72.8344 63.3118 73.7224 61.7786 73.3642L16.9668 62.8941C14.537 62.3264 12.5165 64.8005 13.5582 67.0679Z" fill="#00C2FF"/>
<path d="M58.815 66.9065L20.9448 58.5352C18.3532 57.9623 17.7274 54.5539 19.9463 53.0977L70.9714 19.6125C73.3288 18.0655 76.3248 20.3302 75.4794 23.0201L62.3245 64.8767C61.858 66.361 60.3342 67.2423 58.815 66.9065Z" fill="#FE8989"/>
</svg>
