<svg width="250" height="309" viewBox="0 0 250 309" fill="none" xmlns="http://www.w3.org/2000/svg">
<path fill-rule="evenodd" clip-rule="evenodd" d="M89.7235 215.991H87.1081C86.6525 215.991 86.1983 216.042 85.7541 216.143L75.9831 218.364C74.6543 218.666 73.3667 219.126 72.148 219.736L65.407 223.106C65.0938 223.263 64.7997 223.455 64.5307 223.679C63.3648 224.651 62.7968 226.1 62.9109 227.531C62.083 227.837 61.3299 228.379 60.7618 229.146L53.0309 239.583C52.6811 240.055 52.2068 240.421 51.6611 240.639L51.2202 240.815C50.2831 241.19 49.6686 242.098 49.6686 243.107C49.6686 243.84 49.994 244.534 50.5567 245.003L51.7775 246.021C52.607 246.712 53.6526 247.09 54.7323 247.09H55.576C56.8071 247.09 57.9326 246.395 58.4832 245.294L58.7793 244.701C59.0919 244.076 59.0634 243.335 58.7039 242.736C58.0974 241.725 58.4692 240.412 59.5157 239.869L66.718 236.135C68.4225 235.251 69.3036 233.535 69.2604 231.823C69.8015 231.815 70.3403 231.749 70.8673 231.625L78.3986 229.853C79.2232 229.659 80.0321 229.404 80.8186 229.089L88.1189 226.169L91.0963 224.978C92.6477 224.357 93.5356 222.718 93.2079 221.08L92.077 217.687C91.7393 216.674 90.7913 215.991 89.7235 215.991Z" fill="#FFDBAC"/>
<path d="M85.7541 216.143L85.8649 216.63L85.7541 216.143ZM75.9831 218.364L76.0939 218.851L75.9831 218.364ZM72.148 219.736L71.9244 219.288L72.148 219.736ZM65.407 223.106L65.6306 223.553L65.6306 223.553L65.407 223.106ZM64.5307 223.679L64.2106 223.295V223.295L64.5307 223.679ZM62.9109 227.531L63.0841 228L63.4395 227.869L63.4094 227.491L62.9109 227.531ZM60.7618 229.146L60.36 228.848V228.848L60.7618 229.146ZM53.0309 239.583L53.4327 239.88L53.4327 239.88L53.0309 239.583ZM51.6611 240.639L51.4754 240.175L51.4754 240.175L51.6611 240.639ZM51.2202 240.815L51.4059 241.28H51.4059L51.2202 240.815ZM50.5567 245.003L50.8768 244.619L50.8768 244.619L50.5567 245.003ZM51.7775 246.021L51.4574 246.405H51.4574L51.7775 246.021ZM58.7039 242.736L59.1326 242.478H59.1326L58.7039 242.736ZM59.5157 239.869L59.2855 239.425L59.5157 239.869ZM66.718 236.135L66.4879 235.691L66.718 236.135ZM69.2604 231.823L69.2536 231.323L68.7477 231.33L68.7605 231.835L69.2604 231.823ZM70.8673 231.625L70.9818 232.112L70.8673 231.625ZM78.3986 229.853L78.5131 230.34L78.3986 229.853ZM80.8186 229.089L81.0043 229.553L81.0043 229.553L80.8186 229.089ZM88.1189 226.169L87.9332 225.705L88.1189 226.169ZM91.0963 224.978L91.282 225.442L91.0963 224.978ZM93.2079 221.08L93.6982 220.982L93.6921 220.951L93.6822 220.922L93.2079 221.08ZM92.077 217.687L92.5513 217.529V217.529L92.077 217.687ZM87.1081 216.491H89.7235V215.491H87.1081V216.491ZM85.8649 216.63C86.2728 216.538 86.6898 216.491 87.1081 216.491V215.491C86.6152 215.491 86.1239 215.546 85.6433 215.655L85.8649 216.63ZM76.0939 218.851L85.8649 216.63L85.6433 215.655L75.8722 217.876L76.0939 218.851ZM72.3716 220.183C73.5545 219.591 74.8042 219.144 76.0939 218.851L75.8722 217.876C74.5044 218.187 73.179 218.661 71.9244 219.288L72.3716 220.183ZM65.6306 223.553L72.3716 220.183L71.9244 219.288L65.1834 222.659L65.6306 223.553ZM64.8508 224.063C65.0902 223.864 65.3519 223.693 65.6306 223.553L65.1834 222.659C64.8357 222.833 64.5093 223.046 64.2106 223.295L64.8508 224.063ZM63.4094 227.491C63.3077 226.217 63.8135 224.928 64.8508 224.063L64.2106 223.295C62.916 224.374 62.2859 225.983 62.4125 227.571L63.4094 227.491ZM61.1636 229.444C61.672 228.757 62.3446 228.273 63.0841 228L62.7378 227.062C61.8214 227.4 60.9878 228.001 60.36 228.848L61.1636 229.444ZM53.4327 239.88L61.1636 229.444L60.36 228.848L52.6291 239.285L53.4327 239.88ZM51.8468 241.103C52.4786 240.851 53.0277 240.427 53.4327 239.88L52.6291 239.285C52.3345 239.683 51.935 239.991 51.4754 240.175L51.8468 241.103ZM51.4059 241.28L51.8468 241.103L51.4754 240.175L51.0345 240.351L51.4059 241.28ZM50.1686 243.107C50.1686 242.302 50.6586 241.578 51.4059 241.28L51.0345 240.351C49.9075 240.802 49.1686 241.893 49.1686 243.107H50.1686ZM50.8768 244.619C50.428 244.245 50.1686 243.691 50.1686 243.107H49.1686C49.1686 243.988 49.5599 244.823 50.2366 245.387L50.8768 244.619ZM52.0976 245.637L50.8768 244.619L50.2366 245.387L51.4574 246.405L52.0976 245.637ZM54.7323 246.59C53.7695 246.59 52.8372 246.253 52.0976 245.637L51.4574 246.405C52.3768 247.171 53.5356 247.59 54.7323 247.59V246.59ZM55.576 246.59H54.7323V247.59H55.576V246.59ZM58.036 245.07C57.5701 246.002 56.6177 246.59 55.576 246.59V247.59C56.9965 247.59 58.2951 246.788 58.9304 245.517L58.036 245.07ZM58.3321 244.478L58.036 245.07L58.9304 245.517L59.2266 244.925L58.3321 244.478ZM58.2751 242.993C58.5467 243.446 58.5682 244.006 58.3321 244.478L59.2266 244.925C59.6156 244.147 59.5801 243.224 59.1326 242.478L58.2751 242.993ZM59.2855 239.425C57.9831 240.101 57.5203 241.735 58.2751 242.993L59.1326 242.478C58.6745 241.715 58.9554 240.723 59.7459 240.313L59.2855 239.425ZM66.4879 235.691L59.2855 239.425L59.7459 240.313L66.9482 236.579L66.4879 235.691ZM68.7605 231.835C68.7993 233.37 68.0108 234.901 66.4879 235.691L66.9482 236.579C68.8343 235.601 69.8079 233.7 69.7602 231.81L68.7605 231.835ZM70.7528 231.138C70.2611 231.254 69.7584 231.316 69.2536 231.323L69.2672 232.323C69.8446 232.315 70.4195 232.244 70.9818 232.112L70.7528 231.138ZM78.2841 229.366L70.7528 231.138L70.9818 232.112L78.5131 230.34L78.2841 229.366ZM80.6329 228.625C79.8695 228.93 79.0844 229.178 78.2841 229.366L78.5131 230.34C79.362 230.14 80.1947 229.877 81.0043 229.553L80.6329 228.625ZM87.9332 225.705L80.6329 228.625L81.0043 229.553L88.3046 226.633L87.9332 225.705ZM90.9106 224.514L87.9332 225.705L88.3046 226.633L91.282 225.442L90.9106 224.514ZM92.7176 221.178C92.998 222.58 92.2382 223.983 90.9106 224.514L91.282 225.442C93.0572 224.732 94.0731 222.857 93.6982 220.982L92.7176 221.178ZM91.6027 217.845L92.7335 221.238L93.6822 220.922L92.5513 217.529L91.6027 217.845ZM89.7235 216.491C90.5761 216.491 91.333 217.037 91.6027 217.845L92.5513 217.529C92.1456 216.312 91.0065 215.491 89.7235 215.491V216.491Z" fill="black"/>
<path fill-rule="evenodd" clip-rule="evenodd" d="M157.263 215.991H159.88C160.336 215.991 160.79 216.042 161.234 216.143L171.01 218.364C172.338 218.666 173.625 219.126 174.844 219.735L181.588 223.106C181.901 223.263 182.195 223.455 182.464 223.679C183.63 224.65 184.198 226.1 184.084 227.53C184.912 227.836 185.666 228.378 186.234 229.145L193.968 239.583C194.318 240.055 194.792 240.421 195.338 240.639L195.78 240.816C196.717 241.19 197.331 242.098 197.331 243.107C197.331 243.84 197.006 244.534 196.443 245.003L195.222 246.021C194.392 246.712 193.346 247.09 192.266 247.09H191.421C190.19 247.09 189.065 246.395 188.514 245.294L188.218 244.701C187.905 244.076 187.934 243.335 188.293 242.736C188.9 241.725 188.528 240.412 187.481 239.87L180.278 236.135C178.573 235.252 177.691 233.536 177.734 231.823C177.193 231.815 176.653 231.749 176.126 231.625L168.591 229.853C167.767 229.659 166.958 229.404 166.172 229.089L158.869 226.169L155.89 224.978C154.338 224.357 153.45 222.718 153.778 221.08L154.909 217.687C155.247 216.674 156.195 215.991 157.263 215.991Z" fill="#FFDBAC"/>
<path d="M161.234 216.143L161.345 215.655V215.655L161.234 216.143ZM171.01 218.364L171.12 217.876L171.01 218.364ZM174.844 219.735L175.067 219.288L174.844 219.735ZM181.588 223.106L181.364 223.553L181.588 223.106ZM182.464 223.679L182.144 224.063V224.063L182.464 223.679ZM184.084 227.53L183.911 227.999L183.556 227.868L183.586 227.491L184.084 227.53ZM186.234 229.145L185.832 229.443L186.234 229.145ZM193.968 239.583L194.37 239.285H194.37L193.968 239.583ZM195.338 240.639L195.152 241.103H195.152L195.338 240.639ZM195.78 240.816L195.594 241.28L195.78 240.816ZM196.443 245.003L196.763 245.387L196.763 245.387L196.443 245.003ZM195.222 246.021L194.902 245.636H194.902L195.222 246.021ZM188.514 245.294L188.961 245.07L188.514 245.294ZM188.218 244.701L187.771 244.925L188.218 244.701ZM188.293 242.736L187.865 242.478L188.293 242.736ZM187.481 239.87L187.712 239.426H187.712L187.481 239.87ZM180.278 236.135L180.048 236.579L180.278 236.135ZM177.734 231.823L177.741 231.323L178.247 231.33L178.234 231.835L177.734 231.823ZM176.126 231.625L176.24 231.138H176.24L176.126 231.625ZM168.591 229.853L168.477 230.34H168.477L168.591 229.853ZM166.172 229.089L165.986 229.554L166.172 229.089ZM158.869 226.169L159.054 225.705L158.869 226.169ZM155.89 224.978L156.075 224.513L155.89 224.978ZM153.778 221.08L153.288 220.982L153.294 220.951L153.304 220.922L153.778 221.08ZM154.909 217.687L154.435 217.529V217.529L154.909 217.687ZM159.88 216.491H157.263V215.491H159.88V216.491ZM161.123 216.63C160.716 216.538 160.298 216.491 159.88 216.491V215.491C160.373 215.491 160.864 215.546 161.345 215.655L161.123 216.63ZM170.899 218.851L161.123 216.63L161.345 215.655L171.12 217.876L170.899 218.851ZM174.62 220.182C173.438 219.591 172.188 219.144 170.899 218.851L171.12 217.876C172.488 218.187 173.813 218.661 175.067 219.288L174.62 220.182ZM181.364 223.553L174.62 220.182L175.067 219.288L181.812 222.659L181.364 223.553ZM182.144 224.063C181.905 223.864 181.643 223.693 181.364 223.553L181.812 222.659C182.159 222.833 182.486 223.046 182.784 223.295L182.144 224.063ZM183.586 227.491C183.687 226.217 183.181 224.927 182.144 224.063L182.784 223.295C184.079 224.373 184.709 225.983 184.583 227.57L183.586 227.491ZM185.832 229.443C185.323 228.756 184.651 228.272 183.911 227.999L184.258 227.061C185.174 227.399 186.008 228 186.635 228.847L185.832 229.443ZM193.566 239.88L185.832 229.443L186.635 228.847L194.37 239.285L193.566 239.88ZM195.152 241.103C194.521 240.851 193.971 240.427 193.566 239.88L194.37 239.285C194.664 239.683 195.064 239.991 195.524 240.175L195.152 241.103ZM195.594 241.28L195.152 241.103L195.524 240.175L195.965 240.351L195.594 241.28ZM196.831 243.107C196.831 242.302 196.341 241.579 195.594 241.28L195.965 240.351C197.092 240.802 197.831 241.893 197.831 243.107H196.831ZM196.123 244.619C196.572 244.245 196.831 243.691 196.831 243.107H197.831C197.831 243.988 197.44 244.823 196.763 245.387L196.123 244.619ZM194.902 245.636L196.123 244.619L196.763 245.387L195.542 246.405L194.902 245.636ZM192.266 246.59C193.229 246.59 194.162 246.253 194.902 245.636L195.542 246.405C194.622 247.171 193.463 247.59 192.266 247.59V246.59ZM191.421 246.59H192.266V247.59H191.421V246.59ZM188.961 245.07C189.427 246.002 190.379 246.59 191.421 246.59V247.59C190.001 247.59 188.702 246.788 188.067 245.518L188.961 245.07ZM188.665 244.478L188.961 245.07L188.067 245.518L187.771 244.925L188.665 244.478ZM188.722 242.993C188.45 243.446 188.429 244.006 188.665 244.478L187.771 244.925C187.381 244.147 187.417 243.224 187.865 242.478L188.722 242.993ZM187.712 239.426C189.014 240.101 189.477 241.735 188.722 242.993L187.865 242.478C188.323 241.715 188.042 240.723 187.251 240.313L187.712 239.426ZM180.508 235.691L187.712 239.426L187.251 240.313L180.048 236.579L180.508 235.691ZM178.234 231.835C178.196 233.371 178.984 234.902 180.508 235.691L180.048 236.579C178.161 235.601 177.187 233.701 177.235 231.81L178.234 231.835ZM176.24 231.138C176.733 231.254 177.236 231.316 177.741 231.323L177.728 232.323C177.15 232.315 176.574 232.244 176.011 232.112L176.24 231.138ZM168.706 229.366L176.24 231.138L176.011 232.112L168.477 230.34L168.706 229.366ZM166.358 228.625C167.121 228.93 167.906 229.178 168.706 229.366L168.477 230.34C167.628 230.14 166.796 229.877 165.986 229.554L166.358 228.625ZM159.054 225.705L166.358 228.625L165.986 229.554L158.683 226.633L159.054 225.705ZM156.075 224.513L159.054 225.705L158.683 226.633L155.704 225.442L156.075 224.513ZM154.269 221.178C153.988 222.58 154.748 223.983 156.075 224.513L155.704 225.442C153.929 224.732 152.913 222.857 153.288 220.982L154.269 221.178ZM155.384 217.845L154.253 221.238L153.304 220.922L154.435 217.529L155.384 217.845ZM157.263 216.491C156.411 216.491 155.654 217.037 155.384 217.845L154.435 217.529C154.841 216.312 155.98 215.491 157.263 215.491V216.491Z" fill="black"/>
<path d="M114.695 209.771L115.875 201.512C116.181 199.37 117.864 197.686 120.007 197.38C120.235 197.348 120.465 197.331 120.695 197.331H124.873C128.139 197.331 130.931 199.685 131.483 202.904L133.2 212.92C133.631 215.437 132.426 217.952 130.193 219.192C129.3 219.689 128.295 219.949 127.273 219.949H120.649C119.706 219.949 118.774 219.747 117.916 219.357C115.055 218.057 113.506 214.921 114.213 211.859L114.695 209.771Z" fill="#FFDBAC" stroke="black"/>
<path d="M88.1189 215.991L106.779 210.902H111.009C113.304 210.902 115.441 212.075 116.674 214.012C117.907 215.949 120.043 217.122 122.339 217.122H125.98C128.061 217.122 129.949 215.906 130.81 214.012C131.671 212.118 133.559 210.902 135.64 210.902H140.705L161.061 215.991L156.538 225.038L146.925 222.776L143.533 225.038V238.609V248.222V256.703V265.185H105.648V244.829V234.651V226.735L103.386 222.776L91.5116 225.038L88.1189 215.991Z" fill="black" stroke="black"/>
<circle cx="123.5" cy="123.5" r="76" fill="#FFDBAC" stroke="black" stroke-width="3"/>
<path d="M109.209 118.456H80.0338C78.4303 118.456 77.4788 120.248 78.3772 121.576L86.2187 133.168C86.5907 133.718 87.2113 134.047 87.8753 134.047H105.117C105.965 134.047 106.721 133.513 107.003 132.713L111.095 121.121C111.554 119.82 110.589 118.456 109.209 118.456Z" fill="black" fill-opacity="0.24" stroke="black"/>
<path d="M135.957 118.456H165.132C166.735 118.456 167.687 120.248 166.788 121.576L158.947 133.168C158.575 133.718 157.954 134.047 157.29 134.047H140.048C139.2 134.047 138.444 133.513 138.162 132.713L134.071 121.121C133.612 119.82 134.577 118.456 135.957 118.456Z" fill="black" fill-opacity="0.24" stroke="black"/>
<path d="M121.666 125.793L128.168 146.112C128.581 147.403 127.618 148.722 126.263 148.722H121.666" stroke="black"/>
<path d="M111.118 119.831H134.047" stroke="black"/>
<path d="M80.852 125.334L52.8787 117.08" stroke="black"/>
<path d="M164.314 125.334L198.707 116.621" stroke="black"/>
<path d="M65.4164 104.851L49.6687 120.29L48.9349 120.84C48.4815 121.18 47.8344 120.857 47.8344 120.29V119.785C47.8344 115.245 48.3552 110.72 49.3868 106.299C50.4877 101.581 52.1623 97.0153 54.3732 92.704L56.3925 88.7664C58.934 83.8106 62.0073 79.1462 65.5582 74.8555L65.8338 74.5224C69.4139 70.1965 73.4811 66.2979 77.9548 62.9042C82.3182 59.5939 87.0403 56.7852 92.0319 54.5309L92.9617 54.111C96.804 52.3758 100.794 50.9886 104.884 49.9661C109.335 48.8533 113.885 48.1775 118.467 47.9484L119.534 47.895C126.43 47.5502 133.342 48.0837 140.103 49.4826L143.219 50.1272L146.672 51.3523C153.814 53.8869 160.582 57.3747 166.791 61.721C172.757 65.8972 178.156 70.8301 182.852 76.396L185.515 79.5513C187.272 81.634 188.776 83.918 189.994 86.3553L190.5 87.3661C194.117 94.6012 196.648 102.33 198.009 110.304L199.166 117.08C199.54 118.329 198.017 119.265 197.072 118.367L176.445 98.7547C174.062 96.4887 170.617 95.7348 167.505 96.7983L142.771 105.252C138.684 106.649 134.193 106.216 130.448 104.065L122.259 99.3604C117.632 96.7025 111.942 96.7025 107.315 99.3604L100.214 103.44C95.8545 105.944 90.5305 106.098 86.0338 103.85L82.6257 102.146C76.8997 99.2827 69.9878 100.369 65.4164 104.851Z" fill="#3B3024" stroke="black"/>
<path d="M137.716 167.065L111.118 169.817L117.997 178.988H130.837L137.716 167.065Z" fill="white" stroke="black"/>
<path fill-rule="evenodd" clip-rule="evenodd" d="M95.1836 167.95L116.835 157.321C117.303 157.092 117.791 156.906 118.293 156.767L120.864 156.052C124.098 155.154 127.506 155.086 130.772 155.855L132.654 156.298C133.274 156.444 133.869 156.678 134.422 156.994L152.731 167.456C154.101 166.501 155.61 165.757 157.208 165.254L160.186 164.314L175.01 158.808C175.826 158.504 176.666 158.266 177.52 158.095L180.468 157.506C182.213 157.157 184.012 157.183 185.746 157.583L187.845 158.068C188.652 158.254 189.394 158.652 189.994 159.222C190.521 159.776 190.564 160.633 190.094 161.237L187.701 164.314L180.106 174.407C179.42 175.318 178.641 176.157 177.782 176.908L168.285 185.212C167.474 185.921 166.595 186.55 165.661 187.088L157.435 191.828L147.392 196.292C145.842 196.981 144.195 197.427 142.51 197.614L126.052 199.443C124.965 199.563 123.868 199.576 122.778 199.48L110.756 198.419C109.473 198.306 108.208 198.043 106.987 197.636L91.6624 192.527C90.2704 192.063 88.9464 191.416 87.7255 190.602L75.7921 182.646C74.8875 182.043 74.0447 181.352 73.276 180.584L65.9214 173.229C64.5737 171.881 63.4692 170.31 62.6575 168.585C62.3103 167.847 61.9087 167.136 61.4565 166.458L59.4512 163.45C59.4068 163.383 59.3715 163.311 59.3462 163.235C59.1448 162.631 59.6173 162.014 60.2531 162.052L66.7216 162.432L81.5557 163.197C83.5166 163.298 85.4438 163.748 87.2467 164.526L95.1836 167.95ZM97.8127 169.085L98.1413 169.227C99.7508 169.921 101.239 170.868 102.551 172.03L117.516 185.295C119.599 187.141 122.285 188.16 125.068 188.16C127.895 188.16 130.622 187.107 132.716 185.208L149.18 170.275L150.961 168.835L135.783 163.282C134.322 162.748 132.821 162.335 131.293 162.049C127.959 161.424 124.54 161.405 121.2 161.995L118.456 162.479L97.8127 169.085Z" fill="#3B3024" stroke="#3B3024"/>
<path d="M121.381 223.342V228.662C121.381 228.99 121.332 229.303 121.235 229.6C121.137 229.893 120.988 230.148 120.789 230.367C120.59 230.586 120.34 230.76 120.039 230.889C119.738 231.018 119.385 231.082 118.979 231.082C118.826 231.082 118.67 231.07 118.51 231.047C118.354 231.027 118.201 231 118.053 230.965C117.908 230.926 117.772 230.881 117.643 230.83C117.514 230.775 117.403 230.717 117.309 230.654V229.605C117.551 229.781 117.819 229.92 118.111 230.021C118.408 230.123 118.701 230.174 118.99 230.174C119.416 230.174 119.744 230.045 119.975 229.787C120.205 229.525 120.32 229.15 120.32 228.662V224.244H117.408V223.342H121.381ZM129.342 228.926C129.342 229.289 129.268 229.607 129.119 229.881C128.971 230.154 128.764 230.383 128.498 230.566C128.232 230.746 127.912 230.881 127.537 230.971C127.166 231.061 126.756 231.105 126.307 231.105C126.104 231.105 125.9 231.098 125.697 231.082C125.498 231.066 125.305 231.047 125.117 231.023C124.934 231 124.76 230.973 124.596 230.941C124.432 230.91 124.283 230.877 124.15 230.842V229.834C124.443 229.943 124.771 230.029 125.135 230.092C125.502 230.154 125.918 230.186 126.383 230.186C126.719 230.186 127.004 230.16 127.238 230.109C127.477 230.055 127.67 229.977 127.818 229.875C127.971 229.77 128.08 229.643 128.146 229.494C128.217 229.346 128.252 229.176 128.252 228.984C128.252 228.777 128.193 228.602 128.076 228.457C127.963 228.309 127.812 228.178 127.625 228.064C127.438 227.947 127.223 227.842 126.98 227.748C126.742 227.65 126.498 227.551 126.248 227.449C125.998 227.348 125.752 227.238 125.51 227.121C125.271 227 125.059 226.859 124.871 226.699C124.684 226.535 124.531 226.344 124.414 226.125C124.301 225.906 124.244 225.646 124.244 225.346C124.244 225.084 124.299 224.826 124.408 224.572C124.518 224.318 124.688 224.094 124.918 223.898C125.148 223.699 125.443 223.539 125.803 223.418C126.166 223.297 126.598 223.236 127.098 223.236C127.227 223.236 127.365 223.242 127.514 223.254C127.666 223.266 127.818 223.283 127.971 223.307C128.127 223.326 128.279 223.35 128.428 223.377C128.58 223.404 128.721 223.434 128.85 223.465V224.402C128.549 224.316 128.248 224.252 127.947 224.209C127.646 224.162 127.355 224.139 127.074 224.139C126.477 224.139 126.037 224.238 125.756 224.438C125.475 224.637 125.334 224.904 125.334 225.24C125.334 225.447 125.391 225.625 125.504 225.773C125.621 225.922 125.773 226.055 125.961 226.172C126.148 226.289 126.361 226.396 126.6 226.494C126.842 226.588 127.088 226.686 127.338 226.787C127.588 226.889 127.832 227 128.07 227.121C128.312 227.242 128.527 227.387 128.715 227.555C128.902 227.719 129.053 227.912 129.166 228.135C129.283 228.357 129.342 228.621 129.342 228.926ZM119.184 239.961H117.444V239.117H120.215V244.15H121.967V245H117.25V244.15H119.184V239.961ZM119.541 236.65C119.654 236.65 119.76 236.672 119.858 236.715C119.955 236.754 120.039 236.811 120.11 236.885C120.184 236.959 120.24 237.045 120.279 237.143C120.322 237.236 120.344 237.34 120.344 237.453C120.344 237.562 120.322 237.666 120.279 237.764C120.24 237.861 120.184 237.947 120.11 238.021C120.039 238.096 119.955 238.154 119.858 238.197C119.76 238.236 119.654 238.256 119.541 238.256C119.428 238.256 119.322 238.236 119.225 238.197C119.127 238.154 119.041 238.096 118.967 238.021C118.897 237.947 118.84 237.861 118.797 237.764C118.758 237.666 118.738 237.562 118.738 237.453C118.738 237.34 118.758 237.236 118.797 237.143C118.84 237.045 118.897 236.959 118.967 236.885C119.041 236.811 119.127 236.754 119.225 236.715C119.322 236.672 119.428 236.65 119.541 236.65ZM129.096 243.395C129.096 243.602 129.061 243.787 128.99 243.951C128.92 244.115 128.824 244.262 128.703 244.391C128.582 244.516 128.441 244.623 128.281 244.713C128.121 244.803 127.949 244.877 127.766 244.936C127.586 244.994 127.4 245.037 127.209 245.064C127.018 245.092 126.83 245.105 126.646 245.105C126.248 245.105 125.881 245.088 125.545 245.053C125.213 245.018 124.887 244.961 124.566 244.883V243.945C124.91 244.043 125.252 244.117 125.592 244.168C125.932 244.219 126.27 244.244 126.605 244.244C127.094 244.244 127.455 244.178 127.689 244.045C127.924 243.912 128.041 243.723 128.041 243.477C128.041 243.371 128.021 243.277 127.982 243.195C127.947 243.109 127.881 243.029 127.783 242.955C127.686 242.877 127.533 242.797 127.326 242.715C127.123 242.633 126.844 242.539 126.488 242.434C126.223 242.355 125.977 242.268 125.75 242.17C125.527 242.068 125.334 241.949 125.17 241.812C125.006 241.676 124.877 241.516 124.783 241.332C124.689 241.148 124.643 240.932 124.643 240.682C124.643 240.518 124.68 240.338 124.754 240.143C124.832 239.947 124.963 239.766 125.146 239.598C125.33 239.43 125.578 239.291 125.891 239.182C126.203 239.068 126.594 239.012 127.062 239.012C127.293 239.012 127.549 239.025 127.83 239.053C128.111 239.076 128.404 239.119 128.709 239.182V240.09C128.389 240.012 128.084 239.955 127.795 239.92C127.51 239.881 127.262 239.861 127.051 239.861C126.797 239.861 126.582 239.881 126.406 239.92C126.234 239.959 126.094 240.014 125.984 240.084C125.879 240.15 125.803 240.23 125.756 240.324C125.709 240.414 125.686 240.512 125.686 240.617C125.686 240.723 125.705 240.818 125.744 240.904C125.787 240.99 125.863 241.074 125.973 241.156C126.086 241.234 126.242 241.314 126.441 241.396C126.641 241.475 126.9 241.561 127.221 241.654C127.568 241.756 127.861 241.863 128.1 241.977C128.338 242.086 128.531 242.209 128.68 242.346C128.828 242.482 128.934 242.637 128.996 242.809C129.062 242.98 129.096 243.176 129.096 243.395ZM112.256 251.559H110.516V250.721H113.287V258.15H115.039V259H110.323V258.15H112.256V251.559ZM119.514 253.961H117.774V253.117H120.545V258.15H122.297V259H117.58V258.15H119.514V253.961ZM119.871 250.65C119.984 250.65 120.09 250.672 120.188 250.715C120.285 250.754 120.369 250.811 120.44 250.885C120.514 250.959 120.57 251.045 120.609 251.143C120.652 251.236 120.674 251.34 120.674 251.453C120.674 251.562 120.652 251.666 120.609 251.764C120.57 251.861 120.514 251.947 120.44 252.021C120.369 252.096 120.285 252.154 120.188 252.197C120.09 252.236 119.984 252.256 119.871 252.256C119.758 252.256 119.652 252.236 119.555 252.197C119.457 252.154 119.371 252.096 119.297 252.021C119.227 251.947 119.17 251.861 119.127 251.764C119.088 251.666 119.068 251.562 119.068 251.453C119.068 251.34 119.088 251.236 119.127 251.143C119.17 251.045 119.227 250.959 119.297 250.885C119.371 250.811 119.457 250.754 119.555 250.715C119.652 250.672 119.758 250.65 119.871 250.65ZM129.988 251.67C129.453 251.557 128.992 251.5 128.605 251.5C127.687 251.5 127.228 251.98 127.228 252.941V253.973H129.807V254.822H127.228V259H126.191V254.822H124.299V253.973H126.191V253C126.191 251.434 127.008 250.65 128.641 250.65C129.047 250.65 129.496 250.697 129.988 250.791V251.67ZM136.994 255.748C136.994 255.893 136.992 256.014 136.988 256.111C136.984 256.209 136.978 256.301 136.97 256.387H132.84C132.84 256.988 133.008 257.451 133.344 257.775C133.679 258.096 134.164 258.256 134.797 258.256C134.969 258.256 135.14 258.25 135.312 258.238C135.484 258.223 135.65 258.203 135.81 258.18C135.97 258.156 136.123 258.131 136.267 258.104C136.416 258.072 136.552 258.039 136.677 258.004V258.842C136.4 258.92 136.086 258.982 135.734 259.029C135.386 259.08 135.025 259.105 134.65 259.105C134.146 259.105 133.713 259.037 133.349 258.9C132.986 258.764 132.687 258.566 132.453 258.309C132.222 258.047 132.051 257.729 131.937 257.354C131.828 256.975 131.773 256.547 131.773 256.07C131.773 255.656 131.832 255.266 131.949 254.898C132.07 254.527 132.244 254.203 132.47 253.926C132.701 253.645 132.982 253.422 133.314 253.258C133.646 253.094 134.023 253.012 134.445 253.012C134.855 253.012 135.219 253.076 135.535 253.205C135.851 253.334 136.117 253.518 136.332 253.756C136.551 253.99 136.715 254.277 136.824 254.617C136.937 254.953 136.994 255.33 136.994 255.748ZM135.933 255.602C135.945 255.34 135.92 255.102 135.857 254.887C135.795 254.668 135.697 254.48 135.564 254.324C135.435 254.168 135.273 254.047 135.078 253.961C134.883 253.871 134.656 253.826 134.398 253.826C134.176 253.826 133.972 253.869 133.789 253.955C133.605 254.041 133.447 254.162 133.314 254.318C133.181 254.475 133.074 254.662 132.992 254.881C132.91 255.1 132.859 255.34 132.84 255.602H135.933Z" fill="#41FF00"/>
</svg>
