<svg width="196" height="196" viewBox="0 0 196 196" fill="none" xmlns="http://www.w3.org/2000/svg">
<path d="M98 123.73H160V126.823C160 132.125 155.598 136.386 150.19 136.386H147.336L134.296 149V136.386H107.81C102.402 136.386 98 132.125 98 126.823V123.73V123.73ZM98 120.411H160V108.458H98V120.411ZM98 105.027H160V93.0734H98V105.027ZM150.175 77H107.81C102.402 77 98 81.2609 98 86.5203V89.6562H160V86.5203C159.985 81.2609 155.583 77 150.175 77Z" fill="#2C9FD9"/>
<path d="M49.4158 59.3C47.5158 59.3 45.8658 58.65 44.4658 57.35C43.1658 55.95 42.5158 54.3 42.5158 52.4C42.5158 50.5 43.1658 48.9 44.4658 47.6C45.8658 46.2 47.5158 45.5 49.4158 45.5H113.616C115.516 45.5 117.116 46.2 118.416 47.6C119.816 48.9 120.516 50.5 120.516 52.4C120.516 54.3 119.816 55.95 118.416 57.35C117.116 58.65 115.516 59.3 113.616 59.3H91.1158C90.2158 59.3 89.7658 59.75 89.7658 60.65V146.75C89.7658 149.05 88.9658 151 87.3658 152.6C85.7658 154.2 83.8158 155 81.5158 155C79.2158 155 77.2658 154.2 75.6658 152.6C74.0658 151 73.2658 149.05 73.2658 146.75V60.65C73.2658 59.75 72.8158 59.3 71.9158 59.3H49.4158Z" fill="#2C9FD9"/>
</svg>
