<svg width="196" height="196" viewBox="0 0 196 196" fill="none" xmlns="http://www.w3.org/2000/svg">
<path d="M136.954 80.1543C124.032 72.927 103.293 61.3217 71.1239 43.3097C68.955 41.8773 66.4597 41.6896 64.3037 42.4194L119.496 97.6118L136.954 80.1543Z" fill="#32BBFF"/>
<path d="M64.3037 42.4193C63.8996 42.5562 63.5064 42.7213 63.1304 42.9207C60.7495 44.2086 59 46.6868 59 49.821V145.403C59 148.537 60.7493 151.015 63.1304 152.303C63.5058 152.502 63.8988 152.668 64.3024 152.805L119.496 97.6118L64.3037 42.4193Z" fill="#32BBFF"/>
<path d="M119.496 97.6118L64.3022 152.805C66.4589 153.541 68.9542 153.367 71.1237 151.914C102.32 134.445 122.826 122.977 135.897 115.688C136.261 115.484 136.618 115.284 136.97 115.086L119.496 97.6118Z" fill="#32BBFF"/>
<path d="M59 97.6117V145.402C59 148.537 60.7493 151.015 63.1304 152.303C63.5058 152.502 63.8988 152.668 64.3024 152.805L119.496 97.6117H59Z" fill="#2C9FD9"/>
<path d="M71.1239 43.3096C68.5484 41.6089 65.5112 41.6574 63.1304 42.9209L118.659 98.4493L136.954 80.1542C124.032 72.9269 103.293 61.3216 71.1239 43.3096Z" fill="#29CC5E"/>
<path d="M118.659 96.7744L63.1304 152.303C65.5114 153.566 68.5484 153.639 71.1239 151.914C102.321 134.445 122.826 122.977 135.898 115.688C136.261 115.484 136.618 115.284 136.97 115.086L118.659 96.7744Z" fill="#D93F21"/>
<path d="M160 97.6117C160 94.9635 158.664 92.2908 156.015 90.8088C156.015 90.8088 151.062 88.0451 135.88 79.5532L117.822 97.6117L135.898 115.688C150.913 107.257 156.015 104.415 156.015 104.415C158.664 102.933 160 100.26 160 97.6117Z" fill="#FFD500"/>
<path d="M156.015 104.415C158.664 102.933 160 100.26 160 97.6117H117.822L135.898 115.688C150.913 107.257 156.015 104.415 156.015 104.415Z" fill="#FFAA00"/>
</svg>
