<svg width="250" height="309" viewBox="0 0 250 309" fill="none" xmlns="http://www.w3.org/2000/svg">
<path fill-rule="evenodd" clip-rule="evenodd" d="M97.5077 220.764L94.8798 220.789C94.4222 220.793 93.9656 220.747 93.5184 220.649L83.6718 218.511C82.3405 218.222 81.0489 217.774 79.8245 217.176L73.0115 213.852C72.6955 213.698 72.3984 213.507 72.1261 213.285C70.9458 212.321 70.3614 210.871 70.462 209.433C69.6277 209.134 68.8662 208.597 68.2883 207.832L60.4212 197.424C60.0652 196.953 59.5853 196.59 59.0351 196.376L58.5899 196.203C57.6452 195.836 57.0194 194.93 57.0097 193.917C57.0027 193.181 57.3228 192.48 57.8836 192.004L59.1002 190.971C59.9269 190.269 60.9736 189.878 62.0582 189.868L62.9067 189.86C64.1429 189.848 65.2798 190.536 65.8433 191.636L66.1467 192.228C66.4666 192.853 66.4451 193.598 66.0897 194.203C65.4902 195.224 65.8762 196.539 66.9324 197.074L74.2026 200.755C75.9233 201.626 76.8248 203.341 76.7979 205.061C77.3419 205.063 77.8842 205.125 78.4151 205.244L86.0038 206.953C86.83 207.139 87.6411 207.386 88.4304 207.693L95.7977 210.558L98.8009 211.726C100.365 212.334 101.272 213.971 100.959 215.62L99.8552 219.038C99.5257 220.058 98.5802 220.754 97.5077 220.764Z" fill="#FFDBAC"/>
<path d="M93.5184 220.649L93.4123 221.138L93.4123 221.138L93.5184 220.649ZM83.6718 218.511L83.7779 218.022L83.6718 218.511ZM79.8245 217.176L79.6053 217.626L79.8245 217.176ZM73.0115 213.852L73.2308 213.402L73.0115 213.852ZM72.1261 213.285L71.8097 213.672L72.1261 213.285ZM70.462 209.433L70.6306 208.962L70.9872 209.09L70.9608 209.468L70.462 209.433ZM68.2883 207.832L68.6871 207.531L68.2883 207.832ZM60.4212 197.424L60.0223 197.726L60.0223 197.726L60.4212 197.424ZM59.0351 196.376L58.8539 196.842L58.8539 196.842L59.0351 196.376ZM58.5899 196.203L58.7711 195.737L58.7711 195.737L58.5899 196.203ZM57.8836 192.004L57.5599 191.623L57.5599 191.623L57.8836 192.004ZM59.1002 190.971L59.4239 191.352L59.1002 190.971ZM62.0582 189.868L62.0534 189.368L62.0582 189.868ZM62.9067 189.86L62.9115 190.36L62.9067 189.86ZM65.8433 191.636L65.3983 191.864L65.3983 191.864L65.8433 191.636ZM66.1467 192.228L66.5917 192L66.1467 192.228ZM66.0897 194.203L66.5208 194.457L66.5208 194.457L66.0897 194.203ZM66.9324 197.074L67.1582 196.628L67.1582 196.628L66.9324 197.074ZM74.2026 200.755L73.9767 201.201L74.2026 200.755ZM76.7979 205.061L76.796 205.561L76.2901 205.559L76.298 205.053L76.7979 205.061ZM78.4151 205.244L78.3053 205.732L78.4151 205.244ZM86.0038 206.953L85.894 207.441L86.0038 206.953ZM88.4304 207.693L88.2492 208.159L88.4304 207.693ZM95.7977 210.558L95.6165 211.024L95.7977 210.558ZM98.8009 211.726L98.6197 212.192L98.8009 211.726ZM100.959 215.62L101.45 215.713L101.444 215.744L101.435 215.773L100.959 215.62ZM99.8552 219.038L100.331 219.191L100.331 219.191L99.8552 219.038ZM94.875 220.289L97.503 220.264L97.5125 221.264L94.8846 221.289L94.875 220.289ZM93.6245 220.161C94.0353 220.25 94.4547 220.293 94.875 220.289L94.8846 221.289C94.3897 221.294 93.8959 221.243 93.4123 221.138L93.6245 220.161ZM83.7779 218.022L93.6245 220.161L93.4123 221.138L83.5657 219L83.7779 218.022ZM80.0438 216.727C81.2321 217.307 82.4858 217.742 83.7779 218.022L83.5657 219C82.1952 218.702 80.8656 218.241 79.6053 217.626L80.0438 216.727ZM73.2308 213.402L80.0438 216.727L79.6053 217.626L72.7922 214.301L73.2308 213.402ZM72.4424 212.898C72.6849 213.096 72.9494 213.265 73.2308 213.402L72.7922 214.301C72.4416 214.13 72.1119 213.919 71.8097 213.672L72.4424 212.898ZM70.9608 209.468C70.8711 210.749 71.3919 212.039 72.4424 212.898L71.8097 213.672C70.4998 212.602 69.8517 210.993 69.9632 209.398L70.9608 209.468ZM68.6871 207.531C69.2046 208.215 69.8851 208.695 70.6306 208.962L70.2933 209.903C69.3703 209.573 68.5278 208.978 67.8894 208.134L68.6871 207.531ZM60.82 197.123L68.6871 207.531L67.8894 208.134L60.0223 197.726L60.82 197.123ZM59.2163 195.91C59.8529 196.158 60.4082 196.578 60.82 197.123L60.0223 197.726C59.7222 197.329 59.3177 197.023 58.8539 196.842L59.2163 195.91ZM58.7711 195.737L59.2163 195.91L58.8539 196.842L58.4087 196.669L58.7711 195.737ZM57.5097 193.912C57.5174 194.721 58.017 195.444 58.7711 195.737L58.4087 196.669C57.2734 196.228 56.5213 195.14 56.5097 193.922L57.5097 193.912ZM58.2073 192.385C57.7596 192.765 57.5041 193.325 57.5097 193.912L56.5097 193.922C56.5013 193.038 56.886 192.195 57.5599 191.623L58.2073 192.385ZM59.4239 191.352L58.2073 192.385L57.5599 191.623L58.7765 190.59L59.4239 191.352ZM62.0629 190.368C61.0953 190.377 60.1615 190.725 59.4239 191.352L58.7765 190.59C59.6923 189.812 60.8518 189.38 62.0534 189.368L62.0629 190.368ZM62.9115 190.36L62.0629 190.368L62.0534 189.368L62.9019 189.36L62.9115 190.36ZM65.3983 191.864C64.921 190.932 63.9584 190.35 62.9115 190.36L62.9019 189.36C64.3275 189.346 65.6385 190.139 66.2883 191.408L65.3983 191.864ZM65.7016 192.456L65.3983 191.864L66.2883 191.408L66.5917 192L65.7016 192.456ZM65.6585 193.95C65.9274 193.492 65.9436 192.929 65.7016 192.456L66.5917 192C66.9896 192.777 66.9629 193.704 66.5208 194.457L65.6585 193.95ZM66.7065 197.52C65.3931 196.855 64.913 195.22 65.6585 193.95L66.5208 194.457C66.0674 195.229 66.3594 196.223 67.1582 196.628L66.7065 197.52ZM73.9767 201.201L66.7065 197.52L67.1582 196.628L74.4284 200.309L73.9767 201.201ZM76.298 205.053C76.3221 203.51 75.5149 201.98 73.9767 201.201L74.4284 200.309C76.3316 201.272 77.3275 203.171 77.2979 205.069L76.298 205.053ZM78.3053 205.732C77.8098 205.62 77.3037 205.563 76.796 205.561L76.7999 204.561C77.3802 204.563 77.9586 204.629 78.525 204.756L78.3053 205.732ZM85.894 207.441L78.3053 205.732L78.525 204.756L86.1137 206.465L85.894 207.441ZM88.2492 208.159C87.4832 207.861 86.6959 207.621 85.894 207.441L86.1137 206.465C86.9641 206.657 87.7991 206.911 88.6116 207.227L88.2492 208.159ZM95.6165 211.024L88.2492 208.159L88.6116 207.227L95.9789 210.092L95.6165 211.024ZM98.6197 212.192L95.6165 211.024L95.9789 210.092L98.9821 211.26L98.6197 212.192ZM100.468 215.526C100.736 214.115 99.9589 212.713 98.6197 212.192L98.9821 211.26C100.771 211.955 101.808 213.828 101.45 215.713L100.468 215.526ZM99.3794 218.884L100.483 215.466L101.435 215.773L100.331 219.191L99.3794 218.884ZM97.503 220.264C98.3602 220.256 99.116 219.7 99.3794 218.884L100.331 219.191C99.9354 220.417 98.8001 221.252 97.5125 221.264L97.503 220.264Z" fill="black"/>
<path fill-rule="evenodd" clip-rule="evenodd" d="M147.514 222.182L150.142 222.147C150.6 222.141 151.055 222.084 151.5 221.976L161.295 219.614C162.619 219.295 163.9 218.817 165.111 218.192L171.846 214.713C172.158 214.552 172.451 214.355 172.718 214.126C173.876 213.136 174.427 211.673 174.294 210.237C175.121 209.919 175.87 209.365 176.431 208.587L184.058 198.003C184.403 197.524 184.875 197.151 185.42 196.924L185.861 196.741C186.797 196.352 187.402 195.433 187.389 194.419C187.379 193.684 187.043 192.99 186.472 192.527L185.232 191.522C184.389 190.838 183.334 190.472 182.25 190.486L181.401 190.498C180.165 190.514 179.044 191.227 178.506 192.34L178.216 192.939C177.91 193.571 177.949 194.315 178.318 194.912C178.941 195.919 178.585 197.243 177.541 197.801L170.357 201.647C168.656 202.557 167.794 204.292 167.86 206.011C167.316 206.026 166.776 206.1 166.248 206.231L158.7 208.112C157.879 208.317 157.073 208.583 156.291 208.908L148.991 211.939L146.016 213.175C144.466 213.819 143.596 215.477 143.947 217.118L145.128 220.509C145.481 221.522 146.442 222.196 147.514 222.182Z" fill="#FFDBAC"/>
<path d="M151.5 221.976L151.383 221.49L151.383 221.49L151.5 221.976ZM161.295 219.614L161.412 220.1L161.295 219.614ZM165.111 218.192L164.881 217.748L165.111 218.192ZM171.846 214.713L172.075 215.158L171.846 214.713ZM172.718 214.126L172.393 213.747L172.718 214.126ZM174.294 210.237L174.115 209.771L173.761 209.906L173.796 210.284L174.294 210.237ZM176.431 208.587L176.836 208.88L176.431 208.587ZM184.058 198.003L183.653 197.711L183.653 197.711L184.058 198.003ZM185.42 196.924L185.228 196.462L185.42 196.924ZM185.861 196.741L185.669 196.279L185.669 196.279L185.861 196.741ZM186.472 192.527L186.787 192.139L186.787 192.139L186.472 192.527ZM185.232 191.522L184.917 191.91L184.917 191.91L185.232 191.522ZM178.506 192.34L178.956 192.558L178.506 192.34ZM178.216 192.939L178.666 193.157L178.666 193.157L178.216 192.939ZM178.318 194.912L178.743 194.649L178.743 194.649L178.318 194.912ZM177.541 197.801L177.777 198.242L177.541 197.801ZM170.357 201.647L170.593 202.088L170.357 201.647ZM167.86 206.011L167.873 206.511L168.379 206.498L168.36 205.992L167.86 206.011ZM166.248 206.231L166.127 205.746L166.127 205.746L166.248 206.231ZM158.7 208.112L158.579 207.627L158.7 208.112ZM156.291 208.908L156.099 208.446L156.291 208.908ZM148.991 211.939L149.183 212.401L148.991 211.939ZM146.016 213.175L145.824 212.714L146.016 213.175ZM143.947 217.118L143.458 217.222L143.465 217.253L143.475 217.282L143.947 217.118ZM145.128 220.509L145.6 220.345L145.6 220.345L145.128 220.509ZM150.135 221.647L147.508 221.682L147.521 222.682L150.149 222.647L150.135 221.647ZM151.383 221.49C150.974 221.589 150.556 221.641 150.135 221.647L150.149 222.647C150.643 222.64 151.136 222.578 151.617 222.462L151.383 221.49ZM161.177 219.128L151.383 221.49L151.617 222.462L161.412 220.1L161.177 219.128ZM164.881 217.748C163.706 218.355 162.463 218.818 161.177 219.128L161.412 220.1C162.775 219.771 164.094 219.28 165.34 218.636L164.881 217.748ZM171.616 214.269L164.881 217.748L165.34 218.636L172.075 215.158L171.616 214.269ZM172.393 213.747C172.155 213.95 171.894 214.126 171.616 214.269L172.075 215.158C172.422 214.979 172.747 214.76 173.043 214.506L172.393 213.747ZM173.796 210.284C173.915 211.562 173.424 212.865 172.393 213.747L173.043 214.506C174.328 213.406 174.94 211.783 174.792 210.191L173.796 210.284ZM176.025 208.295C175.523 208.991 174.854 209.487 174.115 209.771L174.473 210.704C175.389 210.352 176.217 209.739 176.836 208.88L176.025 208.295ZM183.653 197.711L176.025 208.295L176.836 208.88L184.464 198.295L183.653 197.711ZM185.228 196.462C184.597 196.724 184.052 197.157 183.653 197.711L184.464 198.295C184.755 197.892 185.152 197.577 185.612 197.386L185.228 196.462ZM185.669 196.279L185.228 196.462L185.612 197.386L186.053 197.203L185.669 196.279ZM186.889 194.426C186.9 195.235 186.417 195.969 185.669 196.279L186.053 197.203C187.178 196.736 187.905 195.631 187.889 194.413L186.889 194.426ZM186.157 192.915C186.613 193.285 186.881 193.839 186.889 194.426L187.889 194.413C187.877 193.529 187.473 192.695 186.787 192.139L186.157 192.915ZM184.917 191.91L186.157 192.915L186.787 192.139L185.547 191.133L184.917 191.91ZM182.256 190.986C183.224 190.974 184.165 191.3 184.917 191.91L185.547 191.133C184.613 190.376 183.444 189.971 182.243 189.986L182.256 190.986ZM181.408 190.998L182.256 190.986L182.243 189.986L181.395 189.998L181.408 190.998ZM178.956 192.558C179.412 191.616 180.361 191.011 181.408 190.998L181.395 189.998C179.969 190.017 178.677 190.839 178.056 192.123L178.956 192.558ZM178.666 193.157L178.956 192.558L178.056 192.123L177.766 192.722L178.666 193.157ZM178.743 194.649C178.464 194.198 178.435 193.635 178.666 193.157L177.766 192.722C177.386 193.507 177.434 194.433 177.893 195.175L178.743 194.649ZM177.777 198.242C179.075 197.547 179.518 195.902 178.743 194.649L177.893 195.175C178.364 195.937 178.094 196.938 177.305 197.36L177.777 198.242ZM170.593 202.088L177.777 198.242L177.305 197.36L170.121 201.206L170.593 202.088ZM168.36 205.992C168.3 204.45 169.073 202.901 170.593 202.088L170.121 201.206C168.24 202.213 167.288 204.133 167.36 206.031L168.36 205.992ZM166.369 206.716C166.861 206.593 167.366 206.525 167.873 206.511L167.847 205.512C167.267 205.527 166.69 205.606 166.127 205.746L166.369 206.716ZM158.821 208.597L166.369 206.716L166.127 205.746L158.579 207.627L158.821 208.597ZM156.483 209.37C157.242 209.054 158.024 208.796 158.821 208.597L158.579 207.627C157.733 207.838 156.904 208.112 156.099 208.446L156.483 209.37ZM149.183 212.401L156.483 209.37L156.099 208.446L148.8 211.478L149.183 212.401ZM146.207 213.637L149.183 212.401L148.8 211.478L145.824 212.714L146.207 213.637ZM144.436 217.013C144.136 215.608 144.88 214.188 146.207 213.637L145.824 212.714C144.052 213.45 143.057 215.345 143.458 217.222L144.436 217.013ZM145.6 220.345L144.419 216.953L143.475 217.282L144.656 220.674L145.6 220.345ZM147.508 221.682C146.65 221.693 145.882 221.155 145.6 220.345L144.656 220.674C145.079 221.89 146.233 222.699 147.521 222.682L147.508 221.682Z" fill="black"/>
<path d="M101.634 226.525L100.252 223.571L85.5185 221.729L69.4032 213.441L60.6549 201.93L69.4032 196.865L83.2163 203.772L89.6624 207.455L103.967 210.678H108.646C110.998 210.678 113.197 211.844 114.517 213.791C115.836 215.738 118.035 216.904 120.387 216.904H124.622C126.737 216.904 128.666 215.695 129.587 213.791C130.509 211.887 132.438 210.678 134.553 210.678H140.137L154.584 208.837L162.872 206.074L177.146 196.865L182.21 201.93L174.383 214.822L166.095 219.427L154.584 221.729L145.375 223.571L144.455 226.525L142.613 233.24L139.85 242.909V255.341L140.311 264.55L106.238 265.01V255.341V244.29L103.476 233.24L101.634 226.525Z" fill="#CA1C19" stroke="black"/>
<path d="M112.147 207.516L113.332 199.222C113.639 197.07 115.33 195.38 117.482 195.072C117.711 195.04 117.942 195.023 118.173 195.023H122.369C125.649 195.023 128.453 197.387 129.007 200.62L130.731 210.679C131.165 213.207 129.954 215.733 127.712 216.978C126.815 217.477 125.805 217.738 124.779 217.738H118.127C117.18 217.738 116.244 217.535 115.382 217.144C112.509 215.838 110.954 212.688 111.663 209.613L112.147 207.516Z" fill="#FFDBAC" stroke="black"/>
<path d="M120.972 210.678L111.764 207.916L110.843 216.664L121.433 220.808L132.483 216.204L130.641 207.455L120.972 210.678Z" fill="#FABB47" stroke="black"/>
<circle cx="122.814" cy="121.814" r="76.314" fill="#FFDBAC" stroke="black" stroke-width="3"/>
<path d="M108.476 116.749H79.1565C77.553 116.749 76.6015 118.542 77.4999 119.87L85.3841 131.525C85.7561 132.075 86.3768 132.404 87.0407 132.404H104.363C105.211 132.404 105.967 131.869 106.249 131.07L110.362 119.415C110.822 118.114 109.856 116.749 108.476 116.749Z" fill="black" fill-opacity="0.24" stroke="black"/>
<path d="M81.1059 130.013L76.659 123.856C76.2055 123.228 76.3244 122.355 76.9292 121.871C77.589 121.343 78.5584 121.488 79.0355 122.185L83.3244 128.453C83.7653 129.098 83.5724 129.98 82.9029 130.382C82.299 130.744 81.5183 130.584 81.1059 130.013Z" fill="black" stroke="black"/>
<path d="M135.31 116.749H164.63C166.233 116.749 167.185 118.542 166.286 119.87L158.402 131.525C158.03 132.075 157.41 132.404 156.746 132.404H139.423C138.576 132.404 137.82 131.869 137.537 131.07L133.424 119.415C132.965 118.114 133.93 116.749 135.31 116.749Z" fill="black" fill-opacity="0.24" stroke="black"/>
<path d="M120.972 124.116L127.504 144.529C127.917 145.819 126.954 147.138 125.599 147.138H120.972" stroke="black"/>
<path d="M110.382 118.13H133.404" stroke="black"/>
<path d="M64.526 103.059L48.6835 118.591L47.9468 119.143C47.4915 119.485 46.8418 119.16 46.8418 118.591V118.084C46.8418 113.526 47.3648 108.983 48.4005 104.544C49.5059 99.8063 51.1873 95.222 53.4072 90.8933L55.4346 86.9397C57.9864 81.9639 61.0722 77.2805 64.6374 72.9724L64.9142 72.638C68.5088 68.2945 72.5925 64.3802 77.0842 60.9727C81.4654 57.6491 86.2066 54.8289 91.2184 52.5656L92.152 52.1439C96.0098 50.4017 100.016 49.0089 104.123 47.9822C108.592 46.8649 113.16 46.1864 117.761 45.9563L118.832 45.9027C125.756 45.5566 132.696 46.0922 139.485 47.4968L142.613 48.144L146.079 49.3741C153.251 51.9189 160.046 55.4208 166.281 59.7848C172.271 63.9779 177.691 68.9307 182.407 74.5192L185.08 77.6872C186.844 79.7784 188.354 82.0716 189.578 84.5189L190.085 85.5338C193.717 92.7981 196.258 100.559 197.625 108.565L198.786 115.368C199.162 116.622 197.633 117.562 196.684 116.66L175.974 96.9684C173.581 94.6933 170.122 93.9363 166.998 95.0042L142.137 103.501C138.05 104.898 133.559 104.465 129.814 102.314L121.538 97.5592C116.911 94.9013 111.221 94.9013 106.594 97.5592L99.4052 101.689C95.0459 104.193 89.7218 104.347 85.2251 102.099L81.7353 100.354C76.0093 97.4908 69.0974 98.5773 64.526 103.059Z" fill="#3B3024" stroke="black"/>
<path d="M137.088 165.556L110.382 168.318L117.289 177.527H130.181L137.088 165.556Z" fill="white" stroke="black"/>
<path fill-rule="evenodd" clip-rule="evenodd" d="M94.3828 166.445L116.122 155.772C116.592 155.542 117.082 155.355 117.586 155.216L120.167 154.498C123.414 153.597 126.836 153.528 130.116 154.3L132.005 154.745C132.628 154.891 133.225 155.127 133.78 155.444L152.164 165.949C153.539 164.989 155.054 164.243 156.658 163.737L159.649 162.793L174.532 157.265C175.352 156.96 176.195 156.721 177.053 156.55L180.013 155.958C181.765 155.607 183.571 155.634 185.312 156.035L187.42 156.522C188.229 156.709 188.974 157.109 189.577 157.681C190.107 158.237 190.15 159.097 189.678 159.704L187.275 162.793L179.649 172.927C178.96 173.842 178.178 174.684 177.316 175.438L167.78 183.776C166.966 184.488 166.083 185.119 165.146 185.659L156.886 190.419L146.802 194.901C145.246 195.592 143.593 196.04 141.901 196.228L125.377 198.064C124.285 198.186 123.184 198.198 122.089 198.101L110.018 197.036C108.731 196.923 107.46 196.659 106.234 196.25L90.8474 191.121C89.4497 190.655 88.1204 190.005 86.8945 189.188L74.9127 181.2C74.0045 180.595 73.1583 179.901 72.3865 179.129L65.0021 171.745C63.6489 170.391 62.5399 168.813 61.7249 167.082C61.3763 166.341 60.9731 165.627 60.5191 164.946L58.5056 161.926C58.4611 161.859 58.4256 161.786 58.4002 161.71C58.198 161.104 58.6724 160.485 59.3108 160.522L65.8055 160.904L80.6997 161.672C82.6686 161.773 84.6036 162.225 86.4137 163.006L94.3828 166.445ZM97.0226 167.584L97.3525 167.726C98.9685 168.423 100.463 169.374 101.78 170.541L116.806 183.859C118.897 185.712 121.594 186.736 124.388 186.736C127.227 186.736 129.964 185.679 132.067 183.772L148.598 168.779L150.386 167.333L135.146 161.757C133.68 161.221 132.172 160.807 130.638 160.519C127.291 159.891 123.858 159.873 120.505 160.465L117.749 160.951L97.0226 167.584Z" fill="#3B3024" stroke="#3B3024"/>
<path d="M98.5851 115.368H85.6815C85.5743 115.368 85.4686 115.393 85.3727 115.441C84.7208 115.767 84.9527 116.749 85.6815 116.749H98.5851C99.2004 116.749 99.5086 116.005 99.0735 115.57C98.9439 115.441 98.7683 115.368 98.5851 115.368Z" fill="black" stroke="black"/>
<path d="M98.8712 121.354L99.0657 121.451C100.075 121.956 100.713 122.987 100.713 124.116V124.116" stroke="black"/>
<path d="M91.2216 128.584L91.0158 128.514C89.9474 128.149 89.1764 127.213 89.0243 126.095V126.095" stroke="black"/>
<path d="M94.7273 120.433L95.4374 120.764C97.8132 121.873 99.3317 124.257 99.3317 126.879V126.879" stroke="black"/>
<path d="M90.686 122.274L90.7709 123.053C91.0546 125.66 92.8223 127.866 95.3041 128.711V128.711" stroke="black"/>
<circle cx="95.1877" cy="124.577" r="1.38131" fill="black"/>
<path d="M135.697 253.039H111.303V264.089H136.167L135.697 253.039Z" fill="#FFA500" stroke="black"/>
<path d="M100.713 224.492L98.4108 209.758L103.936 210.678L105.778 222.189L108.08 225.412L112.684 242.909V264.55H106.238L105.778 243.37L101.634 227.254L100.713 224.492Z" fill="#FABB47" stroke="black"/>
<path d="M145.375 224.031L146.757 209.758L141.231 210.678L139.39 222.189L137.088 225.412L132.483 242.909V264.55H140.311L139.85 243.37L143.994 228.636L145.375 224.031Z" fill="#FABB47" stroke="black"/>
<circle cx="116.368" cy="257.183" r="0.881313" fill="#FFA500" stroke="black"/>
<circle cx="122.814" cy="257.183" r="0.881313" fill="#FFA500" stroke="black"/>
<circle cx="129.26" cy="257.183" r="0.881313" fill="#FFA500" stroke="black"/>
<circle cx="122.814" cy="260.866" r="0.881313" fill="#FFA500" stroke="black"/>
<circle cx="116.368" cy="260.866" r="0.881313" fill="#FFA500" stroke="black"/>
<path d="M130.141 260.866C130.141 261.353 129.747 261.747 129.26 261.747C128.773 261.747 128.379 261.353 128.379 260.866C128.379 260.379 128.773 259.985 129.26 259.985C129.747 259.985 130.141 260.379 130.141 260.866Z" fill="#FFA500" stroke="black"/>
<path d="M121.267 228.553L122.052 230.515L122.837 231.301L123.622 230.515L124.407 228.553L123.23 226.198L122.837 225.413L122.445 226.198L121.267 228.553Z" fill="#FFA500" stroke="black"/>
<path d="M124.431 237.581L123.629 235.625L122.837 234.847L122.059 235.638L121.291 237.608L122.488 239.953L122.888 240.734L123.273 239.946L124.431 237.581Z" fill="#FFA500" stroke="black"/>
<path d="M124.886 229.075L123.946 230.968L123.883 232.077L124.992 232.139L126.978 231.417L127.95 228.969L128.274 228.153L127.427 228.384L124.886 229.075Z" fill="#FFA500" stroke="black"/>
<path d="M120.776 229.075L121.722 230.968L121.785 232.077L120.67 232.139L118.671 231.417L117.694 228.969L117.368 228.153L118.22 228.384L120.776 229.075Z" fill="#FFA500" stroke="black"/>
<path d="M127.133 231.3L125.284 232.324L124.603 233.202L125.48 233.882L127.526 234.416L129.715 232.953L130.445 232.466L129.617 232.174L127.133 231.3Z" fill="#FFA500" stroke="black"/>
<path d="M118.515 231.3L120.376 232.324L121.06 233.202L120.178 233.882L118.121 234.416L115.918 232.953L115.184 232.466L116.017 232.174L118.515 231.3Z" fill="#FFA500" stroke="black"/>
<path d="M126.946 234.983L124.924 234.367L123.82 234.487L123.941 235.591L124.98 237.432L127.553 237.988L128.411 238.174L128.045 237.376L126.946 234.983Z" fill="#FFA500" stroke="black"/>
<path d="M118.704 234.983L120.738 234.367L121.848 234.487L121.727 235.591L120.682 237.432L118.093 237.988L117.23 238.174L117.599 237.376L118.704 234.983Z" fill="#FFA500" stroke="black"/>
<circle cx="122.837" cy="233.263" r="1.85517" fill="#FABB47" stroke="black"/>
<path d="M64.7988 207.455L60.6549 201.93L69.4032 196.865L76.3098 200.549L64.7988 207.455Z" fill="#FABB47" stroke="black"/>
<path d="M178.987 206.995L182.21 201.93L177.146 196.865L169.318 201.93L178.987 206.995Z" fill="#FABB47" stroke="black"/>
</svg>
