<svg width="250" height="309" viewBox="0 0 250 309" fill="none" xmlns="http://www.w3.org/2000/svg">
<path fill-rule="evenodd" clip-rule="evenodd" d="M94.733 225.687L92.1196 225.948C91.6644 225.994 91.2056 225.988 90.7516 225.932L80.7582 224.688C79.4061 224.52 78.0792 224.19 76.8059 223.705L69.7257 221.008C69.3971 220.883 69.0842 220.72 68.793 220.523C67.531 219.669 66.8187 218.277 66.7898 216.836C65.9321 216.613 65.1256 216.147 64.4814 215.438L55.7139 205.783C55.3172 205.346 54.8068 205.028 54.2398 204.864L53.7814 204.732C52.8077 204.451 52.1031 203.606 52.0023 202.597C51.9291 201.866 52.1848 201.139 52.7002 200.614L53.8184 199.476C54.5781 198.702 55.585 198.22 56.6638 198.112L57.5071 198.028C58.7371 197.905 59.931 198.487 60.5911 199.532L60.9462 200.094C61.3209 200.688 61.3666 201.431 61.0672 202.066C60.5622 203.136 61.0649 204.411 62.1646 204.848L69.7338 207.86C71.5252 208.572 72.577 210.199 72.7048 211.914C73.2463 211.867 73.7914 211.88 74.3304 211.951L82.0379 212.97C82.8776 213.081 83.7078 213.254 84.5217 213.489L92.1128 215.678L95.207 216.571C96.8189 217.036 97.8697 218.585 97.706 220.254L96.915 223.757C96.6788 224.803 95.7999 225.58 94.733 225.687Z" fill="#FFDBAC"/>
<path d="M90.7516 225.932L90.6899 226.428L90.6899 226.428L90.7516 225.932ZM80.7582 224.688L80.6965 225.184L80.7582 224.688ZM76.8059 223.705L76.628 224.172L76.628 224.172L76.8059 223.705ZM69.7257 221.008L69.9037 220.541L69.9037 220.541L69.7257 221.008ZM68.793 220.523L68.5127 220.937L68.5127 220.937L68.793 220.523ZM66.7898 216.836L66.9154 216.352L67.2821 216.447L67.2897 216.826L66.7898 216.836ZM64.4814 215.438L64.1112 215.774L64.4814 215.438ZM55.7139 205.783L56.0841 205.447L56.0841 205.447L55.7139 205.783ZM54.2398 204.864L54.1012 205.345L54.1012 205.345L54.2398 204.864ZM53.7814 204.732L53.92 204.252L53.92 204.252L53.7814 204.732ZM52.7002 200.614L53.0569 200.965L53.0569 200.965L52.7002 200.614ZM53.8184 199.476L53.4617 199.126L53.4617 199.126L53.8184 199.476ZM60.5911 199.532L60.1683 199.799L60.5911 199.532ZM60.9462 200.094L60.5235 200.361L60.9462 200.094ZM61.0672 202.066L61.5194 202.279L61.5194 202.279L61.0672 202.066ZM62.1646 204.848L61.9797 205.313L62.1646 204.848ZM69.7338 207.86L69.9186 207.395L69.7338 207.86ZM72.7048 211.914L72.7478 212.412L72.2438 212.456L72.2062 211.951L72.7048 211.914ZM74.3304 211.951L74.396 211.455L74.3304 211.951ZM82.0379 212.97L81.9724 213.465L82.0379 212.97ZM84.5217 213.489L84.3831 213.969L84.5217 213.489ZM92.1128 215.678L92.2514 215.198L92.1128 215.678ZM95.207 216.571L95.0684 217.051L95.207 216.571ZM97.706 220.254L98.2036 220.303L98.2006 220.334L98.1937 220.364L97.706 220.254ZM96.915 223.757L96.4273 223.647L96.4273 223.647L96.915 223.757ZM92.0698 225.451L94.6833 225.189L94.7828 226.184L92.1693 226.446L92.0698 225.451ZM90.8134 225.435C91.2303 225.487 91.6518 225.492 92.0698 225.451L92.1693 226.446C91.6771 226.495 91.1808 226.489 90.6899 226.428L90.8134 225.435ZM80.82 224.192L90.8134 225.435L90.6899 226.428L80.6965 225.184L80.82 224.192ZM76.9839 223.237C78.2197 223.708 79.5076 224.029 80.82 224.192L80.6965 225.184C79.3046 225.011 77.9387 224.671 76.628 224.172L76.9839 223.237ZM69.9037 220.541L76.9839 223.237L76.628 224.172L69.5477 221.475L69.9037 220.541ZM69.0733 220.109C69.3325 220.284 69.6112 220.429 69.9037 220.541L69.5477 221.475C69.1831 221.336 68.8358 221.156 68.5127 220.937L69.0733 220.109ZM67.2897 216.826C67.3154 218.11 67.9499 219.348 69.0733 220.109L68.5127 220.937C67.112 219.989 66.3219 218.444 66.2899 216.846L67.2897 216.826ZM64.8515 215.101C65.4284 215.737 66.149 216.153 66.9154 216.352L66.6641 217.32C65.7153 217.074 64.8228 216.557 64.1112 215.774L64.8515 215.101ZM56.0841 205.447L64.8515 215.101L64.1112 215.774L55.3438 206.119L56.0841 205.447ZM54.3783 204.384C55.0344 204.573 55.625 204.941 56.0841 205.447L55.3438 206.119C55.0094 205.751 54.5792 205.483 54.1012 205.345L54.3783 204.384ZM53.92 204.252L54.3783 204.384L54.1012 205.345L53.6428 205.212L53.92 204.252ZM52.4998 202.548C52.5803 203.353 53.1427 204.027 53.92 204.252L53.6428 205.212C52.4727 204.875 51.6259 203.859 51.5048 202.647L52.4998 202.548ZM53.0569 200.965C52.6455 201.384 52.4414 201.964 52.4998 202.548L51.5048 202.647C51.4168 201.768 51.7241 200.895 52.3435 200.264L53.0569 200.965ZM54.1751 199.826L53.0569 200.965L52.3435 200.264L53.4617 199.126L54.1751 199.826ZM56.7136 198.609C55.7511 198.706 54.8529 199.136 54.1751 199.826L53.4617 199.126C54.3034 198.269 55.4189 197.734 56.6141 197.614L56.7136 198.609ZM57.5569 198.525L56.7136 198.609L56.6141 197.614L57.4574 197.53L57.5569 198.525ZM60.1683 199.799C59.6094 198.914 58.5984 198.421 57.5569 198.525L57.4574 197.53C58.8758 197.388 60.2526 198.06 61.0138 199.265L60.1683 199.799ZM60.5235 200.361L60.1683 199.799L61.0138 199.265L61.3689 199.827L60.5235 200.361ZM60.615 201.853C60.8414 201.373 60.8069 200.81 60.5235 200.361L61.3689 199.827C61.835 200.565 61.8917 201.49 61.5194 202.279L60.615 201.853ZM61.9797 205.313C60.6121 204.769 59.987 203.184 60.615 201.853L61.5194 202.279C61.1374 203.089 61.5176 204.053 62.3494 204.384L61.9797 205.313ZM69.5489 208.324L61.9797 205.313L62.3494 204.384L69.9186 207.395L69.5489 208.324ZM72.2062 211.951C72.0916 210.413 71.1503 208.961 69.5489 208.324L69.9186 207.395C71.9001 208.183 73.0624 209.984 73.2034 211.877L72.2062 211.951ZM74.2649 212.447C73.7619 212.38 73.2532 212.369 72.7478 212.412L72.6618 211.416C73.2395 211.366 73.8209 211.379 74.396 211.455L74.2649 212.447ZM81.9724 213.465L74.2649 212.447L74.396 211.455L82.1034 212.474L81.9724 213.465ZM84.3831 213.969C83.5932 213.742 82.7874 213.573 81.9724 213.465L82.1034 212.474C82.9678 212.588 83.8225 212.767 84.6602 213.009L84.3831 213.969ZM91.9742 216.159L84.3831 213.969L84.6602 213.009L92.2514 215.198L91.9742 216.159ZM95.0684 217.051L91.9742 216.159L92.2514 215.198L95.3456 216.091L95.0684 217.051ZM97.2084 220.206C97.3486 218.776 96.4488 217.449 95.0684 217.051L95.3456 216.091C97.1891 216.622 98.3909 218.394 98.2036 220.303L97.2084 220.206ZM96.4273 223.647L97.2183 220.144L98.1937 220.364L97.4027 223.867L96.4273 223.647ZM94.6833 225.189C95.536 225.104 96.2385 224.483 96.4273 223.647L97.4027 223.867C97.1191 225.123 96.0638 226.056 94.7828 226.184L94.6833 225.189Z" fill="black"/>
<path fill-rule="evenodd" clip-rule="evenodd" d="M158.714 216.68L161.341 216.68C161.799 216.68 162.255 216.731 162.701 216.833L172.524 219.064C173.852 219.366 175.14 219.827 176.358 220.436L183.137 223.824C183.452 223.981 183.747 224.174 184.017 224.399C185.188 225.375 185.758 226.83 185.644 228.266C186.475 228.573 187.231 229.117 187.802 229.887L195.567 240.367C195.919 240.842 196.395 241.209 196.943 241.428L197.386 241.605C198.327 241.982 198.944 242.893 198.944 243.906C198.944 244.642 198.618 245.339 198.052 245.81L196.826 246.831C195.993 247.526 194.943 247.906 193.859 247.906L193.01 247.906C191.774 247.906 190.644 247.207 190.091 246.102L189.794 245.507C189.48 244.879 189.509 244.135 189.87 243.533C190.479 242.518 190.105 241.2 189.055 240.655L181.822 236.906C180.11 236.019 179.225 234.296 179.268 232.576C178.724 232.569 178.183 232.502 177.653 232.378L170.083 230.597C169.259 230.403 168.45 230.148 167.664 229.834L160.326 226.899L157.335 225.703C155.777 225.08 154.886 223.435 155.215 221.79L156.351 218.383C156.69 217.366 157.642 216.68 158.714 216.68Z" fill="#FFDBAC"/>
<path d="M162.701 216.833L162.812 216.345V216.345L162.701 216.833ZM172.524 219.064L172.635 218.577V218.577L172.524 219.064ZM176.358 220.436L176.582 219.989L176.358 220.436ZM183.137 223.824L183.361 223.377H183.361L183.137 223.824ZM184.017 224.399L184.337 224.015L184.017 224.399ZM185.644 228.266L185.471 228.735L185.115 228.604L185.145 228.227L185.644 228.266ZM187.802 229.887L188.204 229.59V229.59L187.802 229.887ZM195.567 240.367L195.969 240.07H195.969L195.567 240.367ZM196.943 241.428L196.757 241.892H196.757L196.943 241.428ZM197.386 241.605L197.201 242.07H197.201L197.386 241.605ZM198.052 245.81L198.372 246.194H198.372L198.052 245.81ZM196.826 246.831L196.506 246.447L196.826 246.831ZM190.091 246.102L190.539 245.878H190.539L190.091 246.102ZM189.794 245.507L189.347 245.731V245.731L189.794 245.507ZM189.87 243.533L190.298 243.79H190.298L189.87 243.533ZM189.055 240.655L189.285 240.212L189.055 240.655ZM181.822 236.906L181.592 237.35L181.822 236.906ZM179.268 232.576L179.275 232.076L179.781 232.083L179.768 232.589L179.268 232.576ZM177.653 232.378L177.767 231.891L177.653 232.378ZM170.083 230.597L169.969 231.084L170.083 230.597ZM167.664 229.834L167.478 230.298L167.664 229.834ZM160.326 226.899L160.512 226.435L160.326 226.899ZM157.335 225.703L157.149 226.168V226.168L157.335 225.703ZM155.215 221.79L154.725 221.692L154.731 221.661L154.741 221.632L155.215 221.79ZM156.351 218.383L155.876 218.225V218.225L156.351 218.383ZM161.341 217.18L158.714 217.18L158.714 216.18L161.341 216.18L161.341 217.18ZM162.59 217.32C162.181 217.227 161.762 217.18 161.341 217.18L161.341 216.18C161.836 216.18 162.329 216.236 162.812 216.345L162.59 217.32ZM172.413 219.552L162.59 217.32L162.812 216.345L172.635 218.577L172.413 219.552ZM176.135 220.883C174.952 220.292 173.703 219.845 172.413 219.552L172.635 218.577C174.002 218.888 175.328 219.362 176.582 219.989L176.135 220.883ZM182.914 224.271L176.135 220.883L176.582 219.989L183.361 223.377L182.914 224.271ZM183.697 224.784C183.457 224.583 183.194 224.411 182.914 224.271L183.361 223.377C183.71 223.551 184.037 223.766 184.337 224.015L183.697 224.784ZM185.145 228.227C185.247 226.947 184.739 225.652 183.697 224.784L184.337 224.015C185.636 225.098 186.269 226.713 186.142 228.306L185.145 228.227ZM187.4 230.185C186.889 229.496 186.214 229.01 185.471 228.735L185.817 227.797C186.737 228.137 187.573 228.739 188.204 229.59L187.4 230.185ZM195.166 240.665L187.4 230.185L188.204 229.59L195.969 240.07L195.166 240.665ZM196.757 241.892C196.123 241.639 195.572 241.214 195.166 240.665L195.969 240.07C196.265 240.47 196.667 240.779 197.129 240.964L196.757 241.892ZM197.201 242.07L196.757 241.892L197.129 240.964L197.572 241.141L197.201 242.07ZM198.444 243.906C198.444 243.097 197.952 242.37 197.201 242.07L197.572 241.141C198.703 241.593 199.444 242.688 199.444 243.906L198.444 243.906ZM197.732 245.426C198.184 245.05 198.444 244.493 198.444 243.906L199.444 243.906C199.444 244.79 199.052 245.628 198.372 246.194L197.732 245.426ZM196.506 246.447L197.732 245.426L198.372 246.194L197.146 247.216L196.506 246.447ZM193.859 247.406C194.826 247.406 195.763 247.067 196.506 246.447L197.146 247.216C196.223 247.985 195.06 248.406 193.859 248.406L193.859 247.406ZM193.01 247.406L193.859 247.406L193.859 248.406L193.01 248.406L193.01 247.406ZM190.539 245.878C191.007 246.814 191.964 247.406 193.01 247.406L193.01 248.406C191.585 248.406 190.282 247.6 189.644 246.326L190.539 245.878ZM190.241 245.283L190.539 245.878L189.644 246.326L189.347 245.731L190.241 245.283ZM190.298 243.79C190.025 244.246 190.004 244.809 190.241 245.283L189.347 245.731C188.956 244.95 188.992 244.024 189.441 243.276L190.298 243.79ZM189.285 240.212C190.591 240.889 191.056 242.528 190.298 243.79L189.441 243.276C189.902 242.508 189.619 241.511 188.824 241.099L189.285 240.212ZM182.052 236.462L189.285 240.212L188.824 241.099L181.592 237.35L182.052 236.462ZM179.768 232.589C179.729 234.131 180.521 235.669 182.052 236.462L181.592 237.35C179.698 236.369 178.72 234.461 178.768 232.564L179.768 232.589ZM177.767 231.891C178.262 232.007 178.767 232.069 179.275 232.076L179.261 233.076C178.681 233.068 178.104 232.997 177.539 232.864L177.767 231.891ZM170.198 230.11L177.767 231.891L177.539 232.864L169.969 231.084L170.198 230.11ZM167.849 229.369C168.612 229.674 169.397 229.922 170.198 230.11L169.969 231.084C169.12 230.884 168.287 230.621 167.478 230.298L167.849 229.369ZM160.512 226.435L167.849 229.369L167.478 230.298L160.14 227.364L160.512 226.435ZM157.521 225.239L160.512 226.435L160.14 227.364L157.149 226.168L157.521 225.239ZM155.705 221.888C155.423 223.297 156.187 224.706 157.521 225.239L157.149 226.168C155.368 225.455 154.348 223.573 154.725 221.692L155.705 221.888ZM156.825 218.542L155.689 221.948L154.741 221.632L155.876 218.225L156.825 218.542ZM158.714 217.18C157.857 217.18 157.096 217.729 156.825 218.542L155.876 218.225C156.284 217.004 157.427 216.18 158.714 216.18L158.714 217.18Z" fill="black"/>
<path d="M112.842 208.535L112.382 212.679L136.785 213.139L137.706 208.535L134.023 206.233L116.526 206.693L112.842 208.535Z" fill="white" stroke="black"/>
<path d="M115.973 210.435L117.158 202.143C117.465 199.992 119.155 198.301 121.306 197.994C121.536 197.961 121.767 197.945 121.998 197.945L126.192 197.945C129.472 197.945 132.275 200.308 132.829 203.541L134.553 213.596C134.986 216.124 133.776 218.649 131.534 219.894C130.637 220.393 129.628 220.654 128.602 220.654L121.952 220.654C121.005 220.654 120.069 220.452 119.207 220.06C116.335 218.754 114.78 215.605 115.489 212.531L115.973 210.435Z" fill="#FFDBAC" stroke="black"/>
<path d="M91.202 215.441L108.025 211.57L112.272 211.57C114.577 211.57 116.723 212.748 117.96 214.693C119.198 216.638 121.343 217.815 123.648 217.815L127.304 217.815C129.393 217.815 131.289 216.594 132.154 214.693C133.018 212.791 134.914 211.57 137.003 211.57L142.089 211.57L162.527 216.68L157.986 225.764L148.334 223.493L144.928 225.764L144.928 239.389L144.928 249.041L144.928 257.557L144.928 266.073L106.889 266.073L106.889 245.634L106.889 235.415L106.889 227.467L104.618 223.493L93.9647 226.031L91.202 215.441Z" fill="white" stroke="black"/>
<path d="M129.418 217.744L128.037 221.427L126.195 222.348L128.037 229.255L126.656 244.449L124.353 252.737L122.051 244.449L120.67 229.255L122.512 222.348L120.67 221.427L119.289 217.744L129.418 217.744Z" fill="#FF7373"/>
<path d="M122.512 222.348L120.67 221.427L119.289 217.744L129.418 217.744L128.037 221.427L126.195 222.348M122.512 222.348L124.353 223.269L126.195 222.348M122.512 222.348L120.67 229.255L122.051 244.449L124.353 252.737L126.656 244.449L128.037 229.255L126.195 222.348" stroke="black"/>
<path d="M112.382 212.679L118.368 208.995L121.591 220.967L117.907 223.269L112.382 212.679Z" fill="white" stroke="black"/>
<path d="M137.246 213.139L131.26 209.456L127.576 220.613L131.085 222.809L137.246 213.139Z" fill="white" stroke="black"/>
<circle cx="124.814" cy="123.814" r="77.314" fill="#FFDBAC" stroke="black"/>
<path d="M110.476 118.75L81.1565 118.75C79.553 118.75 78.6015 120.542 79.4999 121.87L87.3841 133.525C87.7561 134.075 88.3768 134.404 89.0407 134.404L106.363 134.404C107.211 134.404 107.967 133.87 108.249 133.07L112.362 121.415C112.822 120.114 111.856 118.75 110.476 118.75Z" fill="black" fill-opacity="0.24" stroke="black"/>
<path d="M137.31 118.75L166.63 118.75C168.233 118.75 169.185 120.542 168.286 121.87L160.402 133.525C160.03 134.075 159.41 134.404 158.746 134.404L141.423 134.404C140.576 134.404 139.82 133.87 139.538 133.07L135.424 121.415C134.965 120.114 135.93 118.75 137.31 118.75Z" fill="black" fill-opacity="0.24" stroke="black"/>
<path d="M122.972 126.116L129.504 146.528C129.917 147.819 128.954 149.138 127.599 149.138L122.972 149.138" stroke="black"/>
<path d="M112.382 120.13L135.404 120.13" stroke="black"/>
<path d="M81.9933 125.656L53.9066 117.368" stroke="black"/>
<path d="M165.793 125.656L200.326 116.908" stroke="black"/>
<path d="M66.526 105.059L50.6835 120.591L49.9468 121.143C49.4915 121.485 48.8418 121.16 48.8418 120.591L48.8418 120.083C48.8418 115.525 49.3648 110.982 50.4005 106.544C51.5059 101.806 53.1873 97.2218 55.4072 92.893L57.4346 88.9395C59.9864 83.9636 63.0722 79.2803 66.6374 74.9722L66.9142 74.6378C70.5088 70.2943 74.5925 66.38 79.0842 62.9724C83.4654 59.6488 88.2066 56.8287 93.2184 54.5653L94.152 54.1437C98.0098 52.4014 102.016 51.0086 106.123 49.982C110.592 48.8646 115.16 48.1861 119.761 47.9561L120.832 47.9025C127.756 47.5563 134.696 48.0919 141.485 49.4965L144.613 50.1437L148.079 51.3738C155.251 53.9186 162.046 57.4205 168.281 61.7845C174.271 65.9776 179.691 70.9305 184.407 76.5189L187.08 79.687C188.844 81.7781 190.354 84.0714 191.578 86.5186L192.085 87.5335C195.717 94.7979 198.258 102.558 199.625 110.564L200.786 117.368C201.162 118.622 199.633 119.562 198.684 118.66L177.974 98.9682C175.581 96.693 172.122 95.9361 168.998 97.0039L144.137 105.501C140.05 106.898 135.559 106.465 131.814 104.313L123.538 99.559C118.911 96.9011 113.221 96.9011 108.594 99.559L101.405 103.689C97.0459 106.193 91.7218 106.347 87.2251 104.098L83.7353 102.354C78.0093 99.4905 71.0974 100.577 66.526 105.059Z" fill="#3B3024" stroke="#3B3024" stroke-width="3"/>
<path d="M139.088 167.556L112.382 170.319L119.289 179.527L132.181 179.527L139.088 167.556Z" fill="white" stroke="black"/>
</svg>
