<svg width="533" height="163" viewBox="0 0 533 163" fill="none" xmlns="http://www.w3.org/2000/svg">
<path d="M42.509 57.2756C38.7014 59.0247 34.4646 60 30 60C13.4315 60 0 46.5685 0 30C0 13.4315 13.4315 0 30 0C46.5685 0 60 13.4315 60 30C60 38.1389 56.7589 45.5208 51.4971 50.9255L118.121 151.5H452.416L485.486 73.3597C477.924 67.9129 473 59.0315 473 49C473 32.4315 486.431 19 503 19C519.569 19 533 32.4315 533 49C533 65.5685 519.569 79 503 79C500.392 79 497.862 78.6672 495.449 78.0417L461.125 159.144C460.264 161.178 458.269 162.5 456.06 162.5H115.167C113.322 162.5 111.6 161.575 110.581 160.037L42.509 57.2756Z" fill="#595959"/>
</svg>
