<svg width="250" height="309" viewBox="0 0 250 309" fill="none" xmlns="http://www.w3.org/2000/svg">
<path fill-rule="evenodd" clip-rule="evenodd" d="M94.8215 228.241H92.1955C91.7381 228.241 91.2821 228.293 90.8361 228.394L81.0173 230.626C79.6886 230.928 78.401 231.388 77.1823 231.998L70.4066 235.385C70.0921 235.543 69.7968 235.736 69.5267 235.961C68.3561 236.936 67.7858 238.392 67.9004 239.828C67.0691 240.135 66.313 240.68 65.7425 241.45L57.9803 251.929C57.6291 252.403 57.1529 252.77 56.605 252.989L56.1623 253.166C55.2214 253.543 54.6044 254.454 54.6044 255.467C54.6044 256.203 54.9311 256.9 55.4961 257.371L56.7219 258.393C57.5547 259.087 58.6045 259.467 59.6886 259.467H60.5357C61.7718 259.467 62.9019 258.769 63.4547 257.663L63.752 257.068C64.0659 256.441 64.0373 255.696 63.6762 255.094C63.0673 254.08 63.4407 252.761 64.4914 252.217L71.7229 248.467C73.4343 247.58 74.3189 245.857 74.2755 244.137C74.8189 244.13 75.3599 244.063 75.889 243.939L83.4558 242.159C84.2804 241.965 85.0893 241.709 85.8758 241.395L93.2104 238.461L96.2 237.265C97.7576 236.642 98.6491 234.996 98.3201 233.351L97.1846 229.945C96.8456 228.928 95.8937 228.241 94.8215 228.241Z" fill="#FFDBAC"/>
<path d="M90.8361 228.394L90.7252 227.906V227.906L90.8361 228.394ZM81.0173 230.626L80.9065 230.138V230.138L81.0173 230.626ZM77.1823 231.998L76.9587 231.55L77.1823 231.998ZM70.4066 235.385L70.6302 235.833L70.4066 235.385ZM69.5267 235.961L69.8468 236.345L69.5267 235.961ZM67.9004 239.828L68.0735 240.298L68.4289 240.166L68.3988 239.789L67.9004 239.828ZM65.7425 241.45L65.3408 241.152L65.7425 241.45ZM57.9803 251.929L57.5786 251.631H57.5786L57.9803 251.929ZM56.605 252.989L56.4193 252.525H56.4193L56.605 252.989ZM56.1623 253.166L55.9766 252.702H55.9766L56.1623 253.166ZM55.4961 257.371L55.176 257.755H55.176L55.4961 257.371ZM56.7219 258.393L57.042 258.009H57.042L56.7219 258.393ZM63.6762 255.094L63.2475 255.352L63.6762 255.094ZM64.4914 252.217L64.2612 251.773L64.4914 252.217ZM71.7229 248.467L71.9531 248.911L71.7229 248.467ZM74.2755 244.137L74.2687 243.637L73.7629 243.644L73.7757 244.15L74.2755 244.137ZM75.889 243.939L75.7745 243.452L75.889 243.939ZM83.4558 242.159L83.3413 241.672L83.4558 242.159ZM85.8758 241.395L86.0615 241.859L86.0615 241.859L85.8758 241.395ZM93.2104 238.461L93.0247 237.996L93.2104 238.461ZM96.2 237.265L96.3857 237.729L96.2 237.265ZM98.3201 233.351L98.8104 233.253L98.8043 233.222L98.7944 233.193L98.3201 233.351ZM97.1846 229.945L96.7103 230.103V230.103L97.1846 229.945ZM92.1955 228.741H94.8215V227.741H92.1955V228.741ZM90.9469 228.882C91.3566 228.788 91.7754 228.741 92.1955 228.741V227.741C91.7008 227.741 91.2077 227.797 90.7252 227.906L90.9469 228.882ZM81.1282 231.113L90.9469 228.882L90.7252 227.906L80.9065 230.138L81.1282 231.113ZM77.4059 232.445C78.5888 231.853 79.8385 231.406 81.1282 231.113L80.9065 230.138C79.5387 230.449 78.2133 230.923 76.9587 231.55L77.4059 232.445ZM70.6302 235.833L77.4059 232.445L76.9587 231.55L70.183 234.938L70.6302 235.833ZM69.8468 236.345C70.0873 236.145 70.3502 235.973 70.6302 235.833L70.183 234.938C69.834 235.113 69.5064 235.327 69.2066 235.577L69.8468 236.345ZM68.3988 239.789C68.2967 238.509 68.8048 237.213 69.8468 236.345L69.2066 235.577C67.9073 236.659 67.2749 238.275 67.402 239.868L68.3988 239.789ZM66.1443 241.747C66.6551 241.058 67.3307 240.572 68.0735 240.298L67.7272 239.359C66.8075 239.699 65.9708 240.302 65.3408 241.152L66.1443 241.747ZM58.3821 252.226L66.1443 241.747L65.3408 241.152L57.5786 251.631L58.3821 252.226ZM56.7906 253.454C57.4247 253.2 57.9757 252.775 58.3821 252.226L57.5786 251.631C57.2825 252.031 56.8811 252.34 56.4193 252.525L56.7906 253.454ZM56.348 253.631L56.7906 253.454L56.4193 252.525L55.9766 252.702L56.348 253.631ZM55.1044 255.467C55.1044 254.659 55.5969 253.931 56.348 253.631L55.9766 252.702C54.8458 253.154 54.1044 254.25 54.1044 255.467H55.1044ZM55.8162 256.987C55.3652 256.611 55.1044 256.055 55.1044 255.467H54.1044C54.1044 256.351 54.497 257.19 55.176 257.755L55.8162 256.987ZM57.042 258.009L55.8162 256.987L55.176 257.755L56.4018 258.777L57.042 258.009ZM59.6886 258.967C58.7215 258.967 57.7849 258.628 57.042 258.009L56.4018 258.777C57.3245 259.546 58.4875 259.967 59.6886 259.967V258.967ZM60.5357 258.967H59.6886V259.967H60.5357V258.967ZM63.0075 257.439C62.5394 258.376 61.5825 258.967 60.5357 258.967V259.967C61.9612 259.967 63.2644 259.162 63.9019 257.886L63.0075 257.439ZM63.3048 256.845L63.0075 257.439L63.9019 257.886L64.1993 257.292L63.3048 256.845ZM63.2475 255.352C63.5206 255.807 63.5422 256.37 63.3048 256.845L64.1993 257.292C64.5895 256.511 64.554 255.585 64.105 254.837L63.2475 255.352ZM64.2612 251.773C62.9546 252.45 62.4902 254.09 63.2475 255.352L64.105 254.837C63.6444 254.07 63.9268 253.073 64.7215 252.66L64.2612 251.773ZM71.4927 248.023L64.2612 251.773L64.7215 252.66L71.9531 248.911L71.4927 248.023ZM73.7757 244.15C73.8146 245.692 73.0226 247.23 71.4927 248.023L71.9531 248.911C73.846 247.929 74.8233 246.022 74.7754 244.125L73.7757 244.15ZM75.7745 243.452C75.2807 243.568 74.7758 243.631 74.2687 243.637L74.2823 244.637C74.8619 244.629 75.4391 244.559 76.0035 244.426L75.7745 243.452ZM83.3413 241.672L75.7745 243.452L76.0035 244.426L83.5703 242.645L83.3413 241.672ZM85.6901 240.93C84.9267 241.236 84.1416 241.484 83.3413 241.672L83.5703 242.645C84.4192 242.446 85.2519 242.183 86.0615 241.859L85.6901 240.93ZM93.0247 237.996L85.6901 240.93L86.0615 241.859L93.3961 238.925L93.0247 237.996ZM96.0143 236.801L93.0247 237.996L93.3961 238.925L96.3857 237.729L96.0143 236.801ZM97.8298 233.449C98.1115 234.858 97.3481 236.267 96.0143 236.801L96.3857 237.729C98.1671 237.017 99.1866 235.134 98.8104 233.253L97.8298 233.449ZM96.7103 230.103L97.8457 233.509L98.7944 233.193L97.6589 229.787L96.7103 230.103ZM94.8215 228.741C95.6785 228.741 96.4393 229.29 96.7103 230.103L97.6589 229.787C97.2518 228.565 96.1089 227.741 94.8215 227.741V228.741Z" fill="black"/>
<path fill-rule="evenodd" clip-rule="evenodd" d="M162.635 228.241H165.263C165.72 228.241 166.176 228.293 166.622 228.394L176.445 230.626C177.774 230.928 179.061 231.388 180.279 231.997L187.058 235.385C187.373 235.543 187.668 235.736 187.938 235.961C189.109 236.936 189.679 238.391 189.565 239.828C190.396 240.134 191.152 240.679 191.723 241.449L199.488 251.929C199.84 252.403 200.316 252.77 200.864 252.989L201.307 253.167C202.248 253.543 202.865 254.454 202.865 255.467C202.865 256.203 202.539 256.9 201.973 257.371L200.747 258.393C199.914 259.087 198.864 259.467 197.78 259.467H196.931C195.695 259.467 194.565 258.769 194.012 257.663L193.715 257.068C193.401 256.441 193.43 255.696 193.791 255.094C194.4 254.08 194.026 252.761 192.976 252.217L185.743 248.468C184.031 247.58 183.146 245.857 183.189 244.137C182.645 244.13 182.104 244.064 181.574 243.939L174.004 242.158C173.18 241.964 172.371 241.709 171.585 241.395L164.247 238.461L161.256 237.265C159.698 236.642 158.807 234.996 159.136 233.351L160.272 229.945C160.611 228.928 161.563 228.241 162.635 228.241Z" fill="#FFDBAC"/>
<path d="M166.622 228.394L166.733 227.906V227.906L166.622 228.394ZM176.445 230.626L176.556 230.138L176.445 230.626ZM180.279 231.997L180.503 231.55L180.279 231.997ZM187.058 235.385L187.282 234.938L187.058 235.385ZM187.938 235.961L187.618 236.345L187.938 235.961ZM189.565 239.828L189.392 240.297L189.037 240.166L189.067 239.788L189.565 239.828ZM191.723 241.449L192.125 241.151V241.151L191.723 241.449ZM199.488 251.929L199.087 252.226L199.087 252.226L199.488 251.929ZM200.864 252.989L200.678 253.454H200.678L200.864 252.989ZM201.307 253.167L201.493 252.702L201.493 252.702L201.307 253.167ZM201.973 257.371L201.653 256.987H201.653L201.973 257.371ZM200.747 258.393L201.067 258.777H201.067L200.747 258.393ZM194.012 257.663L194.46 257.44L194.012 257.663ZM193.715 257.068L193.268 257.292L193.715 257.068ZM193.791 255.094L194.219 255.352L193.791 255.094ZM192.976 252.217L193.206 251.773L192.976 252.217ZM185.743 248.468L185.513 248.911H185.513L185.743 248.468ZM183.189 244.137L183.196 243.637L183.702 243.644L183.689 244.15L183.189 244.137ZM181.574 243.939L181.46 244.426L181.574 243.939ZM174.004 242.158L173.89 242.645L173.89 242.645L174.004 242.158ZM171.585 241.395L171.77 240.931L171.585 241.395ZM164.247 238.461L164.433 237.996L164.247 238.461ZM161.256 237.265L161.07 237.729L161.256 237.265ZM159.136 233.351L158.646 233.253L158.652 233.222L158.662 233.193L159.136 233.351ZM160.272 229.945L159.797 229.787V229.787L160.272 229.945ZM165.263 228.741H162.635V227.741H165.263V228.741ZM166.511 228.882C166.102 228.788 165.683 228.741 165.263 228.741V227.741C165.757 227.741 166.251 227.797 166.733 227.906L166.511 228.882ZM176.334 231.113L166.511 228.882L166.733 227.906L176.556 230.138L176.334 231.113ZM180.056 232.444C178.873 231.853 177.624 231.406 176.334 231.113L176.556 230.138C177.923 230.449 179.249 230.923 180.503 231.55L180.056 232.444ZM186.835 235.833L180.056 232.444L180.503 231.55L187.282 234.938L186.835 235.833ZM187.618 236.345C187.378 236.144 187.115 235.973 186.835 235.833L187.282 234.938C187.631 235.113 187.958 235.327 188.258 235.577L187.618 236.345ZM189.067 239.788C189.168 238.508 188.66 237.213 187.618 236.345L188.258 235.577C189.558 236.659 190.19 238.274 190.063 239.867L189.067 239.788ZM191.321 241.746C190.81 241.057 190.135 240.571 189.392 240.297L189.738 239.359C190.658 239.698 191.494 240.301 192.125 241.151L191.321 241.746ZM199.087 252.226L191.321 241.746L192.125 241.151L199.89 251.631L199.087 252.226ZM200.678 253.454C200.044 253.2 199.493 252.775 199.087 252.226L199.89 251.631C200.186 252.031 200.588 252.34 201.05 252.525L200.678 253.454ZM201.122 253.631L200.678 253.454L201.05 252.525L201.493 252.702L201.122 253.631ZM202.365 255.467C202.365 254.659 201.873 253.931 201.122 253.631L201.493 252.702C202.624 253.154 203.365 254.25 203.365 255.467H202.365ZM201.653 256.987C202.105 256.611 202.365 256.055 202.365 255.467H203.365C203.365 256.351 202.973 257.19 202.293 257.755L201.653 256.987ZM200.427 258.009L201.653 256.987L202.293 257.755L201.067 258.777L200.427 258.009ZM197.78 258.967C198.747 258.967 199.684 258.628 200.427 258.009L201.067 258.777C200.144 259.546 198.981 259.967 197.78 259.967V258.967ZM196.931 258.967H197.78V259.967H196.931V258.967ZM194.46 257.44C194.928 258.376 195.885 258.967 196.931 258.967V259.967C195.506 259.967 194.203 259.162 193.565 257.887L194.46 257.44ZM194.162 256.845L194.46 257.44L193.565 257.887L193.268 257.292L194.162 256.845ZM194.219 255.352C193.946 255.807 193.925 256.37 194.162 256.845L193.268 257.292C192.877 256.511 192.913 255.585 193.362 254.837L194.219 255.352ZM193.206 251.773C194.512 252.45 194.977 254.09 194.219 255.352L193.362 254.837C193.823 254.07 193.54 253.073 192.745 252.661L193.206 251.773ZM185.973 248.024L193.206 251.773L192.745 252.661L185.513 248.911L185.973 248.024ZM183.689 244.15C183.65 245.692 184.442 247.23 185.973 248.024L185.513 248.911C183.619 247.93 182.641 246.022 182.689 244.125L183.689 244.15ZM181.689 243.452C182.183 243.569 182.688 243.631 183.196 243.637L183.182 244.637C182.602 244.63 182.025 244.559 181.46 244.426L181.689 243.452ZM174.119 241.672L181.689 243.452L181.46 244.426L173.89 242.645L174.119 241.672ZM171.77 240.931C172.534 241.236 173.319 241.483 174.119 241.672L173.89 242.645C173.041 242.445 172.209 242.183 171.399 241.859L171.77 240.931ZM164.433 237.996L171.77 240.931L171.399 241.859L164.062 238.925L164.433 237.996ZM161.442 236.8L164.433 237.996L164.062 238.925L161.07 237.729L161.442 236.8ZM159.626 233.449C159.344 234.858 160.108 236.267 161.442 236.8L161.07 237.729C159.289 237.016 158.269 235.134 158.646 233.253L159.626 233.449ZM160.746 230.103L159.61 233.509L158.662 233.193L159.797 229.787L160.746 230.103ZM162.635 228.741C161.778 228.741 161.017 229.29 160.746 230.103L159.797 229.787C160.205 228.565 161.348 227.741 162.635 227.741V228.741Z" fill="black"/>
<path d="M119.894 221.996L121.079 213.704C121.386 211.553 123.076 209.862 125.227 209.555C125.456 209.522 125.687 209.506 125.919 209.506H130.113C133.393 209.506 136.196 211.869 136.75 215.102L138.474 225.157C138.907 227.685 137.697 230.21 135.455 231.456C134.558 231.954 133.549 232.215 132.523 232.215H125.872C124.926 232.215 123.99 232.013 123.128 231.621C120.256 230.315 118.701 227.167 119.41 224.092L119.894 221.996Z" fill="#FFDBAC" stroke="black"/>
<path d="M68.7979 232.783L111.946 223.132H116.193C118.498 223.132 120.644 224.309 121.881 226.254C123.119 228.199 125.264 229.377 127.569 229.377H131.225C133.314 229.377 135.21 228.156 136.075 226.254C136.939 224.353 138.835 223.132 140.924 223.132H146.01L190.861 233.919L199.945 248.68L190.861 253.789L182.345 245.841L152.255 235.054L148.849 237.325V250.951V260.602V269.118V277.634H110.81V257.196V246.977V239.028L108.539 235.054L75.6107 244.706L65.9592 253.789L58.5786 248.68L68.7979 232.783Z" fill="black" stroke="black"/>
<path d="M120.462 269.118V277.634H135.791V269.118L137.494 239.028L142.036 230.512L136.358 225.97L133.52 228.809L128.41 229.377L124.436 228.809L121.597 225.97L115.352 230.512L118.759 239.028L120.462 269.118Z" fill="white" stroke="black"/>
<path d="M120.883 229.431L122.777 226.276C123.064 225.796 123.69 225.646 124.164 225.942L127.404 227.968C127.679 228.139 128.02 228.167 128.319 228.043L133.388 225.931C134.014 225.67 134.713 226.095 134.769 226.771L135.109 230.85C135.165 231.525 134.548 232.06 133.888 231.907L127.989 230.546C127.892 230.524 127.792 230.516 127.693 230.523L121.812 230.943C121.005 231.001 120.467 230.125 120.883 229.431Z" fill="black" stroke="black"/>
<circle cx="127.814" cy="135.375" r="76.314" fill="#FFDBAC" stroke="black" stroke-width="3"/>
<path d="M125.972 137.678L132.504 158.09C132.917 159.381 131.954 160.7 130.599 160.7H125.972" stroke="black"/>
<path d="M69.526 116.621L53.6835 132.152L52.9468 132.705C52.4915 133.046 51.8418 132.722 51.8418 132.152V131.645C51.8418 127.087 52.3648 122.544 53.4005 118.105C54.5059 113.368 56.1873 108.784 58.4072 104.455L60.4346 100.501C62.9864 95.5254 66.0722 90.842 69.6374 86.534L69.9142 86.1995C73.5088 81.8561 77.5925 77.9417 82.0842 74.5342C86.4654 71.2106 91.2066 68.3905 96.2184 66.1271L97.152 65.7054C101.01 63.9632 105.016 62.5704 109.123 61.5437C113.592 60.4264 118.16 59.7479 122.761 59.5178L123.832 59.4643C130.756 59.1181 137.696 59.6537 144.485 61.0583L147.613 61.7055L151.079 62.9356C158.251 65.4804 165.046 68.9823 171.281 73.3463C177.271 77.5394 182.691 82.4922 187.407 88.0807L190.08 91.2487C191.844 93.3399 193.354 95.6332 194.578 98.0804L195.085 99.0953C198.717 106.36 201.258 114.12 202.625 122.126L203.786 128.929C204.162 130.183 202.633 131.123 201.684 130.221L180.974 110.53C178.581 108.255 175.122 107.498 171.998 108.566L147.137 117.062C143.05 118.459 138.559 118.027 134.814 115.875L126.538 111.121C121.911 108.463 116.221 108.463 111.594 111.121L104.405 115.25C100.046 117.755 94.7218 117.909 90.2251 115.66L86.7353 113.915C81.0093 111.052 74.0974 112.139 69.526 116.621Z" fill="#3B3024" stroke="black"/>
<path d="M142.087 179.117L115.382 181.88L122.289 191.088H135.181L142.087 179.117Z" fill="white" stroke="black"/>
<path fill-rule="evenodd" clip-rule="evenodd" d="M99.3829 180.006L121.123 169.334C121.592 169.103 122.082 168.917 122.586 168.777L125.167 168.06C128.414 167.158 131.836 167.09 135.116 167.862L137.006 168.306C137.628 168.453 138.225 168.688 138.78 169.005L157.164 179.51C158.539 178.551 160.055 177.804 161.658 177.298L164.649 176.354L179.532 170.826C180.352 170.522 181.195 170.282 182.053 170.111L185.013 169.519C186.765 169.169 188.571 169.195 190.312 169.597L192.42 170.083C193.23 170.27 193.975 170.67 194.577 171.242C195.107 171.799 195.15 172.659 194.678 173.265L192.275 176.354L184.649 186.488C183.96 187.404 183.178 188.245 182.316 189L172.78 197.337C171.966 198.05 171.083 198.68 170.146 199.221L161.886 203.981L151.803 208.462C150.247 209.154 148.593 209.602 146.901 209.79L130.377 211.626C129.285 211.747 128.184 211.759 127.089 211.663L115.019 210.598C113.731 210.484 112.46 210.22 111.234 209.811L95.8475 204.683C94.4498 204.217 93.1205 203.567 91.8946 202.749L79.9128 194.761C79.0046 194.156 78.1584 193.462 77.3866 192.69L70.0022 185.306C68.649 183.953 67.54 182.375 66.7251 180.643C66.3764 179.903 65.9733 179.188 65.5192 178.507L63.5058 175.487C63.4612 175.42 63.4258 175.348 63.4003 175.272C63.1981 174.665 63.6725 174.046 64.3109 174.084L70.8056 174.466L85.6998 175.233C87.6687 175.334 89.6037 175.786 91.4138 176.567L99.3829 180.006ZM102.023 181.145L102.353 181.287C103.969 181.985 105.463 182.935 106.78 184.102L121.806 197.421C123.897 199.274 126.594 200.297 129.388 200.297C132.227 200.297 134.965 199.241 137.067 197.333L153.599 182.34L155.386 180.894L140.146 175.318C138.68 174.782 137.173 174.368 135.638 174.08C132.291 173.453 128.859 173.434 125.505 174.026L122.749 174.513L102.023 181.145Z" fill="#3B3024" stroke="#3B3024"/>
<circle cx="96.9646" cy="137.678" r="13.3131" fill="#C2A783" stroke="black"/>
<circle cx="79.0076" cy="137.217" r="3.22306" fill="black"/>
<path d="M79.0076 137.678V137.678C76.7161 139.11 75.3241 141.621 75.3241 144.324V209.506" stroke="black" stroke-linecap="round" stroke-linejoin="round"/>
<path d="M75.7845 141.361V141.361C73.493 142.793 72.101 145.305 72.101 148.007V213.189" stroke="black" stroke-linecap="round" stroke-linejoin="round"/>
<path d="M69.3383 210.427L72.101 209.045L74.4032 210.427L75.7845 215.031H74.8636H67.957L69.3383 210.427Z" fill="#FF4848" stroke="black"/>
<path d="M83.6313 137.735H81.3083" stroke="black"/>
<path d="M72.5615 208.124L75.3241 206.743L77.6263 208.124L79.0076 212.729H78.0867H71.1802L72.5615 208.124Z" fill="#10FFD4" stroke="black"/>
<circle cx="152.217" cy="137.678" r="4.52525" fill="white" stroke="black" stroke-width="2"/>
<path d="M143.929 129.39L156.822 125.706" stroke="black" stroke-width="4"/>
<path d="M84.0724 57.5613L68.4175 91.1733L102.029 77.3602L123.21 88.8711L145.771 75.5184L188.5 92.5L160.045 50.1943L84.0724 57.5613Z" fill="black" stroke="black"/>
<path d="M62.4318 67.6911L96.0437 35H209.311L182.606 58.0219L62.4318 67.6911Z" fill="black" stroke="black"/>
<path d="M206.549 50.1945L207.47 36.8418L202.405 40.9857L203.326 50.1945H206.549Z" fill="#FFE600" stroke="black"/>
<path d="M198.549 82.6853L202.744 52.8967C202.814 52.4031 203.236 52.0361 203.734 52.0361H206.174C206.657 52.0361 207.072 52.3824 207.158 52.8585L212.64 83.2225C212.786 84.0329 211.945 84.6629 211.209 84.2946L210.711 84.0457C210.412 83.8961 210.058 83.906 209.768 84.0719L207.752 85.2237C207.324 85.468 206.783 85.3647 206.475 84.9802L205.866 84.2183C205.493 83.7529 204.799 83.7145 204.378 84.1359L203.905 84.608C203.568 84.945 203.04 84.9973 202.644 84.7329L201.081 83.6913C200.765 83.4804 200.355 83.4706 200.029 83.6663C199.32 84.0921 198.433 83.5048 198.549 82.6853Z" fill="#FFE500" stroke="black"/>
<circle cx="205.168" cy="51.5758" r="2.72306" fill="black" stroke="black"/>
</svg>
