<svg width="250" height="309" viewBox="0 0 250 309" fill="none" xmlns="http://www.w3.org/2000/svg">
<path fill-rule="evenodd" clip-rule="evenodd" d="M89.0686 214.763H86.442C85.9845 214.763 85.5284 214.815 85.0822 214.916L75.2607 217.148C73.9319 217.45 72.6443 217.911 71.4256 218.52L64.6478 221.909C64.3332 222.066 64.0379 222.259 63.7677 222.485C62.5968 223.46 62.0264 224.916 62.141 226.353C61.3096 226.66 60.5532 227.205 59.9827 227.975L52.2186 238.456C51.8672 238.931 51.3909 239.298 50.8429 239.517L50.4001 239.694C49.4589 240.071 48.8418 240.982 48.8418 241.996C48.8418 242.732 49.1686 243.429 49.7337 243.9L50.9598 244.922C51.7928 245.616 52.8429 245.996 53.9272 245.996H54.7746C56.011 245.996 57.1413 245.298 57.6943 244.192L57.9917 243.597C58.3056 242.969 58.277 242.225 57.9159 241.623C57.3068 240.608 57.6802 239.289 58.7312 238.744L65.9644 234.994C67.6763 234.106 68.5611 232.383 68.5177 230.663C69.0612 230.656 69.6023 230.589 70.1316 230.465L77.7005 228.684C78.5251 228.49 79.334 228.234 80.1205 227.92L87.4572 224.985L90.4474 223.789C92.0055 223.166 92.8971 221.52 92.568 219.874L91.4323 216.467C91.0932 215.45 90.1411 214.763 89.0686 214.763Z" fill="#FFDBAC"/>
<path d="M85.0822 214.916L84.9714 214.428L85.0822 214.916ZM75.2607 217.148L75.3715 217.636L75.2607 217.148ZM71.4256 218.52L71.202 218.073L71.4256 218.52ZM64.6478 221.909L64.8714 222.356L64.6478 221.909ZM63.7677 222.485L64.0878 222.869H64.0878L63.7677 222.485ZM62.141 226.353L62.3142 226.822L62.6696 226.691L62.6394 226.314L62.141 226.353ZM59.9827 227.975L60.3844 228.273L59.9827 227.975ZM52.2186 238.456L52.6204 238.754L52.6204 238.754L52.2186 238.456ZM50.8429 239.517L51.0286 239.982L51.0286 239.982L50.8429 239.517ZM50.4001 239.694L50.2144 239.23L50.2144 239.23L50.4001 239.694ZM49.7337 243.9L50.0538 243.516H50.0538L49.7337 243.9ZM50.9598 244.922L51.2799 244.538L50.9598 244.922ZM57.9159 241.623L58.3446 241.366L57.9159 241.623ZM58.7312 238.744L58.9614 239.188H58.9614L58.7312 238.744ZM65.9644 234.994L65.7343 234.55L65.9644 234.994ZM68.5177 230.663L68.5109 230.163L68.0051 230.17L68.0179 230.676L68.5177 230.663ZM70.1316 230.465L70.2461 230.951V230.951L70.1316 230.465ZM77.7005 228.684L77.815 229.171H77.815L77.7005 228.684ZM80.1205 227.92L80.3062 228.384L80.1205 227.92ZM87.4572 224.985L87.2715 224.521L87.4572 224.985ZM90.4474 223.789L90.6331 224.253L90.4474 223.789ZM92.568 219.874L93.0583 219.776L93.0522 219.746L93.0424 219.716L92.568 219.874ZM91.4323 216.467L90.9579 216.625V216.625L91.4323 216.467ZM86.442 215.263H89.0686V214.263H86.442V215.263ZM85.193 215.404C85.6028 215.31 86.0218 215.263 86.442 215.263V214.263C85.9472 214.263 85.4539 214.319 84.9714 214.428L85.193 215.404ZM75.3715 217.636L85.193 215.404L84.9714 214.428L75.1498 216.661L75.3715 217.636ZM71.6492 218.967C72.8321 218.376 74.0818 217.929 75.3715 217.636L75.1498 216.661C73.782 216.971 72.4566 217.446 71.202 218.073L71.6492 218.967ZM64.8714 222.356L71.6492 218.967L71.202 218.073L64.4242 221.462L64.8714 222.356ZM64.0878 222.869C64.3284 222.668 64.5913 222.496 64.8714 222.356L64.4242 221.462C64.0751 221.636 63.7475 221.851 63.4477 222.101L64.0878 222.869ZM62.6394 226.314C62.5373 225.033 63.0455 223.737 64.0878 222.869L63.4477 222.101C62.148 223.184 61.5155 224.799 61.6426 226.393L62.6394 226.314ZM60.3844 228.273C60.8953 227.583 61.5712 227.097 62.3142 226.822L61.9679 225.884C61.048 226.224 60.2111 226.827 59.5809 227.677L60.3844 228.273ZM52.6204 238.754L60.3844 228.273L59.5809 227.677L51.8168 238.159L52.6204 238.754ZM51.0286 239.982C51.6627 239.728 52.2138 239.303 52.6204 238.754L51.8168 238.159C51.5206 238.559 51.1191 238.868 50.6572 239.053L51.0286 239.982ZM50.5858 240.159L51.0286 239.982L50.6572 239.053L50.2144 239.23L50.5858 240.159ZM49.3418 241.996C49.3418 241.187 49.8344 240.459 50.5858 240.159L50.2144 239.23C49.0834 239.683 48.3418 240.778 48.3418 241.996H49.3418ZM50.0538 243.516C49.6027 243.14 49.3418 242.583 49.3418 241.996H48.3418C48.3418 242.88 48.7345 243.719 49.4137 244.285L50.0538 243.516ZM51.2799 244.538L50.0538 243.516L49.4137 244.285L50.6397 245.306L51.2799 244.538ZM53.9272 245.496C52.9598 245.496 52.0231 245.157 51.2799 244.538L50.6397 245.306C51.5626 246.075 52.7259 246.496 53.9272 246.496V245.496ZM54.7746 245.496H53.9272V246.496H54.7746V245.496ZM57.247 243.968C56.7788 244.905 55.8216 245.496 54.7746 245.496V246.496C56.2004 246.496 57.5038 245.691 58.1415 244.416L57.247 243.968ZM57.5445 243.374L57.247 243.968L58.1415 244.416L58.4389 243.821L57.5445 243.374ZM57.4871 241.88C57.7603 242.335 57.7819 242.899 57.5445 243.374L58.4389 243.821C58.8292 243.04 58.7937 242.114 58.3446 241.366L57.4871 241.88ZM58.501 238.301C57.1941 238.978 56.7297 240.618 57.4871 241.88L58.3446 241.366C57.8839 240.598 58.1664 239.6 58.9614 239.188L58.501 238.301ZM65.7343 234.55L58.501 238.301L58.9614 239.188L66.1946 235.438L65.7343 234.55ZM68.0179 230.676C68.0568 232.218 67.2646 233.756 65.7343 234.55L66.1946 235.438C68.088 234.456 69.0655 232.548 69.0175 230.651L68.0179 230.676ZM70.017 229.978C69.5231 230.094 69.0181 230.156 68.5109 230.163L68.5245 231.163C69.1042 231.155 69.6815 231.084 70.2461 230.951L70.017 229.978ZM77.586 228.197L70.017 229.978L70.2461 230.951L77.815 229.171L77.586 228.197ZM79.9348 227.456C79.1714 227.761 78.3863 228.009 77.586 228.197L77.815 229.171C78.6638 228.971 79.4965 228.708 80.3062 228.384L79.9348 227.456ZM87.2715 224.521L79.9348 227.456L80.3062 228.384L87.6429 225.449L87.2715 224.521ZM90.2617 223.325L87.2715 224.521L87.6429 225.449L90.6331 224.253L90.2617 223.325ZM92.0777 219.972C92.3596 221.381 91.596 222.791 90.2617 223.325L90.6331 224.253C92.4149 223.541 93.4347 221.658 93.0583 219.776L92.0777 219.972ZM90.9579 216.625L92.0937 220.032L93.0424 219.716L91.9066 216.309L90.9579 216.625ZM89.0686 215.263C89.9258 215.263 90.6869 215.812 90.9579 216.625L91.9066 216.309C91.4994 215.087 90.3563 214.263 89.0686 214.263V215.263Z" fill="black"/>
<path fill-rule="evenodd" clip-rule="evenodd" d="M156.899 214.763H159.527C159.984 214.763 160.44 214.815 160.887 214.916L170.712 217.148C172.041 217.45 173.328 217.911 174.547 218.52L181.328 221.909C181.642 222.066 181.938 222.259 182.208 222.485C183.379 223.46 183.949 224.915 183.835 226.352C184.666 226.659 185.423 227.204 185.993 227.974L193.761 238.456C194.112 238.931 194.589 239.298 195.137 239.517L195.58 239.695C196.521 240.071 197.139 240.982 197.139 241.996C197.139 242.732 196.812 243.429 196.246 243.9L195.02 244.922C194.187 245.616 193.136 245.996 192.052 245.996H191.203C189.967 245.996 188.837 245.298 188.284 244.192L187.986 243.597C187.672 242.969 187.7 242.225 188.062 241.623C188.671 240.608 188.297 239.289 187.246 238.745L180.012 234.994C178.299 234.107 177.414 232.384 177.458 230.663C176.914 230.656 176.372 230.589 175.842 230.465L168.27 228.684C167.446 228.49 166.637 228.235 165.851 227.92L158.511 224.985L155.519 223.789C153.961 223.166 153.069 221.52 153.399 219.874L154.535 216.467C154.874 215.45 155.826 214.763 156.899 214.763Z" fill="#FFDBAC"/>
<path d="M160.887 214.916L160.776 215.404V215.404L160.887 214.916ZM170.712 217.148L170.602 217.636L170.712 217.148ZM174.547 218.52L174.77 218.072L174.547 218.52ZM181.328 221.909L181.551 221.462L181.328 221.909ZM182.208 222.485L182.528 222.1H182.528L182.208 222.485ZM183.835 226.352L183.662 226.821L183.307 226.69L183.337 226.313L183.835 226.352ZM185.993 227.974L185.592 228.271L185.993 227.974ZM193.761 238.456L193.359 238.754H193.359L193.761 238.456ZM195.137 239.517L194.951 239.982H194.951L195.137 239.517ZM195.58 239.695L195.766 239.23H195.766L195.58 239.695ZM196.246 243.9L195.926 243.516H195.926L196.246 243.9ZM195.02 244.922L195.34 245.306L195.34 245.306L195.02 244.922ZM188.284 244.192L187.836 244.416H187.836L188.284 244.192ZM187.986 243.597L188.433 243.374L187.986 243.597ZM188.062 241.623L187.633 241.366L188.062 241.623ZM187.246 238.745L187.016 239.188H187.016L187.246 238.745ZM180.012 234.994L179.782 235.438L180.012 234.994ZM177.458 230.663L177.464 230.163L177.97 230.17L177.957 230.676L177.458 230.663ZM175.842 230.465L175.957 229.978L175.842 230.465ZM168.27 228.684L168.385 228.197L168.27 228.684ZM165.851 227.92L165.665 228.384L165.851 227.92ZM158.511 224.985L158.697 224.521L158.511 224.985ZM155.519 223.789L155.705 223.325L155.519 223.789ZM153.399 219.874L152.908 219.776L152.914 219.746L152.924 219.716L153.399 219.874ZM154.535 216.467L154.06 216.309V216.309L154.535 216.467ZM159.527 215.263H156.899V214.263H159.527V215.263ZM160.776 215.404C160.366 215.31 159.947 215.263 159.527 215.263V214.263C160.022 214.263 160.515 214.319 160.997 214.428L160.776 215.404ZM170.602 217.636L160.776 215.404L160.997 214.428L170.823 216.661L170.602 217.636ZM174.323 218.967C173.141 218.376 171.891 217.929 170.602 217.636L170.823 216.661C172.191 216.972 173.516 217.445 174.77 218.072L174.323 218.967ZM181.104 222.356L174.323 218.967L174.77 218.072L181.551 221.462L181.104 222.356ZM181.888 222.869C181.647 222.668 181.384 222.496 181.104 222.356L181.551 221.462C181.9 221.636 182.228 221.851 182.528 222.1L181.888 222.869ZM183.337 226.313C183.438 225.033 182.93 223.737 181.888 222.869L182.528 222.1C183.827 223.183 184.46 224.798 184.333 226.392L183.337 226.313ZM185.592 228.271C185.081 227.582 184.405 227.096 183.662 226.821L184.008 225.883C184.928 226.223 185.765 226.826 186.395 227.676L185.592 228.271ZM193.359 238.754L185.592 228.271L186.395 227.676L194.162 238.159L193.359 238.754ZM194.951 239.982C194.317 239.728 193.766 239.303 193.359 238.754L194.162 238.159C194.459 238.559 194.86 238.868 195.322 239.053L194.951 239.982ZM195.395 240.159L194.951 239.982L195.322 239.053L195.766 239.23L195.395 240.159ZM196.639 241.996C196.639 241.187 196.146 240.459 195.395 240.159L195.766 239.23C196.897 239.683 197.639 240.778 197.639 241.996H196.639ZM195.926 243.516C196.378 243.14 196.639 242.583 196.639 241.996H197.639C197.639 242.88 197.246 243.719 196.566 244.284L195.926 243.516ZM194.7 244.538L195.926 243.516L196.566 244.284L195.34 245.306L194.7 244.538ZM192.052 245.496C193.019 245.496 193.956 245.157 194.7 244.538L195.34 245.306C194.417 246.075 193.253 246.496 192.052 246.496V245.496ZM191.203 245.496H192.052V246.496H191.203V245.496ZM188.731 243.969C189.199 244.905 190.156 245.496 191.203 245.496V246.496C189.777 246.496 188.474 245.691 187.836 244.416L188.731 243.969ZM188.433 243.374L188.731 243.969L187.836 244.416L187.539 243.821L188.433 243.374ZM188.49 241.88C188.217 242.335 188.196 242.899 188.433 243.374L187.539 243.821C187.148 243.04 187.184 242.114 187.633 241.366L188.49 241.88ZM187.477 238.301C188.784 238.978 189.248 240.618 188.49 241.88L187.633 241.366C188.094 240.598 187.811 239.601 187.016 239.188L187.477 238.301ZM180.242 234.551L187.477 238.301L187.016 239.188L179.782 235.438L180.242 234.551ZM177.957 230.676C177.919 232.218 178.711 233.757 180.242 234.551L179.782 235.438C177.888 234.457 176.91 232.549 176.958 230.651L177.957 230.676ZM175.957 229.978C176.451 230.094 176.957 230.156 177.464 230.163L177.451 231.163C176.871 231.155 176.293 231.084 175.728 230.951L175.957 229.978ZM168.385 228.197L175.957 229.978L175.728 230.951L168.156 229.17L168.385 228.197ZM166.036 227.456C166.8 227.761 167.584 228.009 168.385 228.197L168.156 229.17C167.307 228.971 166.475 228.708 165.665 228.384L166.036 227.456ZM158.697 224.521L166.036 227.456L165.665 228.384L158.325 225.449L158.697 224.521ZM155.705 223.325L158.697 224.521L158.325 225.449L155.334 224.253L155.705 223.325ZM153.889 219.972C153.607 221.381 154.371 222.791 155.705 223.325L155.334 224.253C153.552 223.54 152.532 221.658 152.908 219.776L153.889 219.972ZM155.009 216.625L153.873 220.032L152.924 219.716L154.06 216.309L155.009 216.625ZM156.899 215.263C156.041 215.263 155.28 215.812 155.009 216.625L154.06 216.309C154.468 215.087 155.611 214.263 156.899 214.263V215.263Z" fill="black"/>
<path d="M67.7197 216.983L105.507 210.758H110.186C112.538 210.758 114.737 211.924 116.056 213.87C117.376 215.817 119.575 216.983 121.927 216.983H126.162C128.277 216.983 130.205 215.774 131.127 213.87C132.049 211.967 133.977 210.758 136.092 210.758H141.676L183.29 219.506L195.261 236.542L184.21 240.686L176.383 231.477L146.915 221.808L144.69 226.604V238.489V248.111V256.6V265.089H104.301V244.715V234.528V226.604L101.89 222.643L73.245 230.556L61.734 240.686L52.0648 234.528L67.7197 216.983Z" fill="#111190" stroke="black"/>
<path d="M110.54 207.074L110.08 211.218L134.483 211.678L135.404 207.074L131.721 204.772L114.224 205.232L110.54 207.074Z" fill="#7C7C7C" stroke="black"/>
<path d="M114.147 208.517L115.332 200.222C115.64 198.071 117.33 196.38 119.482 196.073C119.711 196.04 119.942 196.023 120.174 196.023H124.369C127.65 196.023 130.453 198.387 131.007 201.621L132.731 211.679C133.165 214.207 131.954 216.733 129.712 217.978C128.815 218.477 127.806 218.738 126.779 218.738H120.127C119.18 218.738 118.244 218.536 117.382 218.144C114.509 216.838 112.954 213.688 113.663 210.613L114.147 208.517Z" fill="#FFDBAC" stroke="black"/>
<circle cx="124.814" cy="122.814" r="76.314" fill="#FFDBAC" stroke="black" stroke-width="3"/>
<path d="M110.476 117.749H81.1565C79.553 117.749 78.6015 119.541 79.4999 120.87L87.3841 132.525C87.7561 133.074 88.3768 133.404 89.0407 133.404H106.363C107.211 133.404 107.967 132.869 108.249 132.07L112.362 120.415C112.822 119.113 111.856 117.749 110.476 117.749Z" fill="black" fill-opacity="0.24" stroke="black"/>
<path d="M137.31 117.749H166.63C168.233 117.749 169.185 119.541 168.286 120.87L160.402 132.525C160.03 133.074 159.41 133.404 158.746 133.404H141.423C140.576 133.404 139.82 132.869 139.537 132.07L135.424 120.415C134.965 119.113 135.93 117.749 137.31 117.749Z" fill="black" fill-opacity="0.24" stroke="black"/>
<path d="M122.972 125.116L129.504 145.529C129.917 146.819 128.954 148.138 127.599 148.138H122.972" stroke="black"/>
<path d="M112.382 119.13H135.404" stroke="black"/>
<path d="M66.526 104.059L50.6835 119.591L49.9468 120.143C49.4915 120.485 48.8418 120.16 48.8418 119.591V119.084C48.8418 114.526 49.3648 109.983 50.4005 105.544C51.5059 100.806 53.1873 96.222 55.4072 91.8933L57.4346 87.9397C59.9864 82.9639 63.0722 78.2805 66.6374 73.9724L66.9142 73.638C70.5088 69.2945 74.5925 65.3802 79.0842 61.9727C83.4654 58.6491 88.2066 55.8289 93.2184 53.5656L94.152 53.1439C98.0098 51.4017 102.016 50.0089 106.123 48.9822C110.592 47.8649 115.16 47.1864 119.761 46.9563L120.832 46.9027C127.756 46.5566 134.696 47.0922 141.485 48.4968L144.613 49.144L148.079 50.3741C155.251 52.9189 162.046 56.4208 168.281 60.7848C174.271 64.9779 179.691 69.9307 184.407 75.5192L187.08 78.6872C188.844 80.7784 190.354 83.0716 191.578 85.5189L192.085 86.5338C195.717 93.7981 198.258 101.559 199.625 109.565L200.786 116.368C201.162 117.622 199.633 118.562 198.684 117.66L177.974 97.9684C175.581 95.6933 172.122 94.9363 168.998 96.0042L144.137 104.501C140.05 105.898 135.559 105.465 131.814 103.314L123.538 98.5592C118.911 95.9013 113.221 95.9013 108.594 98.5592L101.405 102.689C97.0459 105.193 91.7218 105.347 87.2251 103.099L83.7353 101.354C78.0093 98.4908 71.0974 99.5773 66.526 104.059Z" fill="#3B3024" stroke="black"/>
<path d="M139.088 166.555L112.382 169.318L119.289 178.527H132.181L139.088 166.555Z" fill="white" stroke="black"/>
<path fill-rule="evenodd" clip-rule="evenodd" d="M96.3828 167.444L118.122 156.772C118.592 156.542 119.082 156.355 119.586 156.215L122.167 155.498C125.414 154.596 128.836 154.528 132.116 155.3L134.005 155.745C134.628 155.891 135.225 156.126 135.78 156.444L154.164 166.948C155.539 165.989 157.054 165.243 158.658 164.737L161.649 163.793L176.532 158.265C177.352 157.96 178.195 157.721 179.053 157.549L182.013 156.957C183.765 156.607 185.571 156.634 187.312 157.035L189.42 157.522C190.229 157.709 190.974 158.109 191.577 158.681C192.107 159.237 192.15 160.097 191.678 160.703L189.275 163.793L181.649 173.927C180.96 174.842 180.178 175.684 179.316 176.438L169.78 184.776C168.966 185.488 168.083 186.119 167.146 186.659L158.886 191.419L148.802 195.901C147.246 196.592 145.593 197.04 143.901 197.228L127.377 199.064C126.285 199.185 125.184 199.198 124.089 199.101L112.018 198.036C110.731 197.923 109.46 197.659 108.234 197.25L92.8474 192.121C91.4497 191.655 90.1204 191.005 88.8945 190.188L76.9127 182.2C76.0045 181.594 75.1583 180.901 74.3865 180.129L67.0021 172.744C65.6489 171.391 64.5399 169.813 63.7249 168.082C63.3763 167.341 62.9731 166.627 62.5191 165.946L60.5056 162.926C60.4611 162.859 60.4256 162.786 60.4002 162.71C60.198 162.103 60.6724 161.484 61.3108 161.522L67.8055 161.904L82.6997 162.672C84.6686 162.773 86.6036 163.225 88.4137 164.006L96.3828 167.444ZM99.0226 168.584L99.3525 168.726C100.969 169.423 102.463 170.373 103.78 171.541L118.806 184.859C120.897 186.712 123.594 187.736 126.388 187.736C129.227 187.736 131.964 186.679 134.067 184.772L150.598 169.779L152.386 168.332L137.146 162.757C135.68 162.221 134.172 161.807 132.638 161.519C129.291 160.891 125.858 160.873 122.505 161.465L119.749 161.951L99.0226 168.584Z" fill="#3B3024" stroke="#3B3024"/>
<path d="M118.368 228.715L113.303 216.743L117.447 211.678H127.116L129.879 216.283L128.037 228.715L129.879 264.629H116.986L118.368 228.715Z" fill="#7C7C7C" stroke="black"/>
<path d="M110.08 211.218L116.066 207.534L119.289 219.506L115.605 221.808L110.08 211.218Z" fill="#7C7C7C" stroke="black"/>
<path d="M134.944 211.678L128.958 207.995L125.274 219.153L128.783 221.348L134.944 211.678Z" fill="#7C7C7C" stroke="black"/>
<circle cx="122.972" cy="225.952" r="2.30219" fill="black"/>
<path d="M121.821 225.952L122.972 224.801L124.123 225.952L122.972 227.103L121.821 225.952Z" fill="#EBFF00"/>
<circle cx="122.972" cy="235.161" r="2.30219" fill="black"/>
<path d="M121.821 235.161L122.972 234.01L124.123 235.161L122.972 236.312L121.821 235.161Z" fill="#EBFF00"/>
<circle cx="122.972" cy="243.449" r="2.30219" fill="black"/>
<path d="M121.821 243.449L122.972 242.298L124.123 243.449L122.972 244.6L121.821 243.449Z" fill="#EBFF00"/>
<circle cx="122.972" cy="251.737" r="2.30219" fill="black"/>
<path d="M121.821 251.737L122.972 250.585L124.123 251.737L122.972 252.888L121.821 251.737Z" fill="#EBFF00"/>
<circle cx="122.972" cy="260.945" r="2.30219" fill="black"/>
<path d="M121.821 260.945L122.972 259.794L124.123 260.945L122.972 262.096L121.821 260.945Z" fill="#EBFF00"/>
<path d="M185.131 233.319L179.606 235.621L181.448 237.463L186.513 234.7L185.131 233.319Z" fill="#FFD600" stroke="#FFD600"/>
<path d="M187.462 233.815L192.048 231.477L191.117 230.103L186.07 232.444L187.462 233.815Z" fill="#FFD600" stroke="#FFD600"/>
<circle cx="186.973" cy="232.859" r="3.1835" fill="#FFD600" stroke="#AF9301"/>
<path d="M186.052 231.477L186.973 233.319L188.354 232.859" stroke="#FCEFAC" stroke-linecap="round" stroke-linejoin="round"/>
</svg>
