<svg width="196" height="196" viewBox="0 0 196 196" fill="none" xmlns="http://www.w3.org/2000/svg">
<path d="M149.28 82.8813C150.19 81.0183 150.7 78.9813 150.7 76.8571C150.7 67.6295 141.159 60.1429 129.4 60.1429C125.029 60.1429 120.947 61.1875 117.574 62.9634C111.428 54.6062 99.9572 49 86.8 49C67.1862 49 51.3 61.4661 51.3 76.8571C51.3 77.3272 51.3222 77.7973 51.3444 78.2674C38.9194 81.6973 30 90.9946 30 101.929C30 115.77 44.3109 127 61.95 127H143.6C159.287 127 172 117.024 172 104.714C172 93.9371 162.237 84.9357 149.28 82.8813Z" fill="#C1C1C1" fill-opacity="0.63"/>
</svg>
