<svg width="536" height="100" viewBox="0 0 536 100" fill="none" xmlns="http://www.w3.org/2000/svg">
<path d="M125.678 0C124.676 0 123.697 0.301061 122.868 0.864139L51.6584 49.2415C46.1981 43.546 38.5131 40 30 40C13.4315 40 0 53.4315 0 70C0 86.5685 13.4315 100 30 100C46.5685 100 60 86.5685 60 70C60 65.5425 59.0278 61.312 57.2839 57.509L127.216 10H432.996L480.011 53.0042C477.46 57.4159 476 62.5374 476 68C476 84.5685 489.431 98 506 98C522.569 98 536 84.5685 536 68C536 51.4315 522.569 38 506 38C498.506 38 491.653 40.748 486.395 45.2914L438.313 1.31061C437.391 0.467543 436.187 0 434.938 0H125.678Z" fill="#595959"/>
</svg>
