<svg width="474" height="374" viewBox="0 0 474 374" fill="none" xmlns="http://www.w3.org/2000/svg">
<rect x="1" width="208.457" height="152" rx="5" fill="#FF9898"/>
<path d="M1 5C1 2.23858 3.23858 0 6 0L204.457 0C207.219 0 209.457 2.23858 209.457 5V16.2857L1 16.2857L1 5Z" fill="black"/>
<circle cx="175.257" cy="8.14253" r="3.8" fill="#FFC01E"/>
<circle cx="187.2" cy="8.14302" r="3.8" fill="#14FF1D"/>
<circle cx="199.143" cy="8.14302" r="3.8" fill="#FF4A4A"/>
<rect x="21.6285" y="43.4287" width="157.429" height="79.2571" rx="3" fill="#FF7979"/>
<path d="M80.0213 76.7875C78.2213 76.7875 76.8173 76.2895 75.8093 75.2935C74.8133 74.2975 74.3153 72.8755 74.3153 71.0275V63.9715H77.2313V70.9195C77.2313 73.1755 78.1673 74.3035 80.0393 74.3035C80.9513 74.3035 81.6473 74.0335 82.1273 73.4935C82.6073 72.9415 82.8473 72.0835 82.8473 70.9195V63.9715H85.7273V71.0275C85.7273 72.8755 85.2233 74.2975 84.2153 75.2935C83.2193 76.2895 81.8213 76.7875 80.0213 76.7875ZM89.5988 63.9715H92.5148V76.5715H89.5988V63.9715ZM108.181 76.7875C106.381 76.7875 104.977 76.2895 103.969 75.2935C102.973 74.2975 102.475 72.8755 102.475 71.0275V63.9715L105.391 63.9715V70.9195C105.391 73.1755 106.327 74.3035 108.199 74.3035C109.111 74.3035 109.807 74.0335 110.287 73.4935C110.767 72.9415 111.007 72.0835 111.007 70.9195V63.9715H113.887V71.0275C113.887 72.8755 113.383 74.2975 112.375 75.2935C111.379 76.2895 109.981 76.7875 108.181 76.7875ZM125.52 76.5715L122.478 72.1975L119.49 76.5715H116.142L120.804 70.1635L116.376 63.9715H119.688L122.586 68.0575L125.43 63.9715H128.58L124.188 70.0555L128.886 76.5715H125.52ZM57.8355 85.9715H63.5595C64.9275 85.9715 66.1335 86.2355 67.1775 86.7635C68.2335 87.2795 69.0495 88.0115 69.6255 88.9595C70.2135 89.9075 70.5075 91.0115 70.5075 92.2715C70.5075 93.5315 70.2135 94.6355 69.6255 95.5835C69.0495 96.5315 68.2335 97.2695 67.1775 97.7975C66.1335 98.3135 64.9275 98.5715 63.5595 98.5715H57.8355V85.9715ZM63.4155 96.1775C64.6755 96.1775 65.6775 95.8295 66.4215 95.1335C67.1775 94.4255 67.5555 93.4715 67.5555 92.2715C67.5555 91.0715 67.1775 90.1235 66.4215 89.4275C65.6775 88.7195 64.6755 88.3655 63.4155 88.3655H60.7515V96.1775H63.4155ZM83.4526 96.2315V98.5715H73.6966V85.9715H83.2186V88.3115H76.5946V91.0475H82.4446V93.3155H76.5946V96.2315H83.4526ZM90.9028 98.7875C89.9068 98.7875 88.9408 98.6555 88.0048 98.3915C87.0808 98.1155 86.3368 97.7615 85.7728 97.3295L86.7628 95.1335C87.3028 95.5295 87.9448 95.8475 88.6888 96.0875C89.4328 96.3275 90.1768 96.4475 90.9208 96.4475C91.7488 96.4475 92.3608 96.3275 92.7568 96.0875C93.1528 95.8355 93.3508 95.5055 93.3508 95.0975C93.3508 94.7975 93.2308 94.5515 92.9908 94.3595C92.7628 94.1555 92.4628 93.9935 92.0908 93.8735C91.7308 93.7535 91.2388 93.6215 90.6148 93.4775C89.6548 93.2495 88.8688 93.0215 88.2568 92.7935C87.6448 92.5655 87.1168 92.1995 86.6728 91.6955C86.2408 91.1915 86.0248 90.5195 86.0248 89.6795C86.0248 88.9475 86.2228 88.2875 86.6188 87.6995C87.0148 87.0995 87.6088 86.6255 88.4008 86.2775C89.2048 85.9295 90.1828 85.7555 91.3348 85.7555C92.1388 85.7555 92.9248 85.8515 93.6928 86.0435C94.4608 86.2355 95.1328 86.5115 95.7088 86.8715L94.8088 89.0855C93.6448 88.4255 92.4808 88.0955 91.3168 88.0955C90.5008 88.0955 89.8948 88.2275 89.4988 88.4915C89.1148 88.7555 88.9228 89.1035 88.9228 89.5355C88.9228 89.9675 89.1448 90.2915 89.5888 90.5075C90.0448 90.7115 90.7348 90.9155 91.6588 91.1195C92.6188 91.3475 93.4048 91.5755 94.0168 91.8035C94.6288 92.0315 95.1508 92.3915 95.5828 92.8835C96.0268 93.3755 96.2488 94.0415 96.2488 94.8815C96.2488 95.6015 96.0448 96.2615 95.6368 96.8615C95.2408 97.4495 94.6408 97.9175 93.8368 98.2655C93.0328 98.6135 92.0548 98.7875 90.9028 98.7875ZM99.2313 85.9715H102.147V98.5715H99.2313V85.9715ZM114.642 92.0735H117.306V97.1855C116.622 97.7015 115.83 98.0975 114.93 98.3735C114.03 98.6495 113.124 98.7875 112.212 98.7875C110.904 98.7875 109.728 98.5115 108.684 97.9595C107.64 97.3955 106.818 96.6215 106.218 95.6375C105.63 94.6415 105.336 93.5195 105.336 92.2715C105.336 91.0235 105.63 89.9075 106.218 88.9235C106.818 87.9275 107.646 87.1535 108.702 86.6015C109.758 86.0375 110.946 85.7555 112.266 85.7555C113.37 85.7555 114.372 85.9415 115.272 86.3135C116.172 86.6855 116.928 87.2255 117.54 87.9335L115.668 89.6615C114.768 88.7135 113.682 88.2395 112.41 88.2395C111.606 88.2395 110.892 88.4075 110.268 88.7435C109.644 89.0795 109.158 89.5535 108.81 90.1655C108.462 90.7775 108.288 91.4795 108.288 92.2715C108.288 93.0515 108.462 93.7475 108.81 94.3595C109.158 94.9715 109.638 95.4515 110.25 95.7995C110.874 96.1355 111.582 96.3035 112.374 96.3035C113.214 96.3035 113.97 96.1235 114.642 95.7635V92.0735ZM132.56 85.9715V98.5715H130.166L123.884 90.9215V98.5715H121.004V85.9715H123.416L129.68 93.6215V85.9715H132.56ZM140.671 98.7875C139.675 98.7875 138.709 98.6555 137.773 98.3915C136.849 98.1155 136.105 97.7615 135.541 97.3295L136.531 95.1335C137.071 95.5295 137.713 95.8475 138.457 96.0875C139.201 96.3275 139.945 96.4475 140.689 96.4475C141.517 96.4475 142.129 96.3275 142.525 96.0875C142.921 95.8355 143.119 95.5055 143.119 95.0975C143.119 94.7975 142.999 94.5515 142.759 94.3595C142.531 94.1555 142.231 93.9935 141.859 93.8735C141.499 93.7535 141.007 93.6215 140.383 93.4775C139.423 93.2495 138.637 93.0215 138.025 92.7935C137.413 92.5655 136.885 92.1995 136.441 91.6955C136.009 91.1915 135.793 90.5195 135.793 89.6795C135.793 88.9475 135.991 88.2875 136.387 87.6995C136.783 87.0995 137.377 86.6255 138.169 86.2775C138.973 85.9295 139.951 85.7555 141.103 85.7555C141.907 85.7555 142.693 85.8515 143.461 86.0435C144.229 86.2355 144.901 86.5115 145.477 86.8715L144.577 89.0855C143.413 88.4255 142.249 88.0955 141.085 88.0955C140.269 88.0955 139.663 88.2275 139.267 88.4915C138.883 88.7555 138.691 89.1035 138.691 89.5355C138.691 89.9675 138.913 90.2915 139.357 90.5075C139.813 90.7115 140.503 90.9155 141.427 91.1195C142.387 91.3475 143.173 91.5755 143.785 91.8035C144.397 92.0315 144.919 92.3915 145.351 92.8835C145.795 93.3755 146.017 94.0415 146.017 94.8815C146.017 95.6015 145.813 96.2615 145.405 96.8615C145.009 97.4495 144.409 97.9175 143.605 98.2655C142.801 98.6135 141.823 98.7875 140.671 98.7875Z" fill="white"/>
<rect x="265" width="209" height="152" rx="5" fill="#98D4FF"/>
<path d="M265 5C265 2.23858 267.239 0 270 0H469C471.761 0 474 2.23858 474 5V16.2857H265V5Z" fill="black"/>
<ellipse cx="439.711" cy="8.14253" rx="3.8099" ry="3.8" fill="#FFC01E"/>
<ellipse cx="451.685" cy="8.14302" rx="3.8099" ry="3.8" fill="#14FF1D"/>
<ellipse cx="463.659" cy="8.14302" rx="3.8099" ry="3.8" fill="#FF4A4A"/>
<rect x="285.682" y="43.4285" width="157.839" height="79.2571" rx="3" fill="#58B9FF"/>
<path d="M313.839 76.7875C312.555 76.7875 311.391 76.5115 310.347 75.9595C309.315 75.3955 308.499 74.6215 307.899 73.6375C307.311 72.6415 307.017 71.5195 307.017 70.2715C307.017 69.0235 307.311 67.9075 307.899 66.9235C308.499 65.9275 309.315 65.1535 310.347 64.6015C311.391 64.0375 312.561 63.7555 313.857 63.7555C314.949 63.7555 315.933 63.9475 316.809 64.3315C317.697 64.7155 318.441 65.2675 319.041 65.9875L317.169 67.7155C316.317 66.7315 315.261 66.2395 314.001 66.2395C313.221 66.2395 312.525 66.4135 311.913 66.7615C311.301 67.0975 310.821 67.5715 310.473 68.1835C310.137 68.7955 309.969 69.4915 309.969 70.2715C309.969 71.0515 310.137 71.7475 310.473 72.3595C310.821 72.9715 311.301 73.4515 311.913 73.7995C312.525 74.1355 313.221 74.3035 314.001 74.3035C315.261 74.3035 316.317 73.8055 317.169 72.8095L319.041 74.5375C318.441 75.2695 317.697 75.8275 316.809 76.2115C315.921 76.5955 314.931 76.7875 313.839 76.7875ZM327.839 76.7875C326.531 76.7875 325.349 76.5055 324.293 75.9415C323.249 75.3775 322.427 74.6035 321.827 73.6195C321.239 72.6235 320.945 71.5075 320.945 70.2715C320.945 69.0355 321.239 67.9255 321.827 66.9415C322.427 65.9455 323.249 65.1655 324.293 64.6015C325.349 64.0375 326.531 63.7555 327.839 63.7555C329.147 63.7555 330.323 64.0375 331.367 64.6015C332.411 65.1655 333.233 65.9455 333.833 66.9415C334.433 67.9255 334.733 69.0355 334.733 70.2715C334.733 71.5075 334.433 72.6235 333.833 73.6195C333.233 74.6035 332.411 75.3775 331.367 75.9415C330.323 76.5055 329.147 76.7875 327.839 76.7875ZM327.839 74.3035C328.583 74.3035 329.255 74.1355 329.855 73.7995C330.455 73.4515 330.923 72.9715 331.259 72.3595C331.607 71.7475 331.781 71.0515 331.781 70.2715C331.781 69.4915 331.607 68.7955 331.259 68.1835C330.923 67.5715 330.455 67.0975 329.855 66.7615C329.255 66.4135 328.583 66.2395 327.839 66.2395C327.095 66.2395 326.423 66.4135 325.823 66.7615C325.223 67.0975 324.749 67.5715 324.401 68.1835C324.065 68.7955 323.897 69.4915 323.897 70.2715C323.897 71.0515 324.065 71.7475 324.401 72.3595C324.749 72.9715 325.223 73.4515 325.823 73.7995C326.423 74.1355 327.095 74.3035 327.839 74.3035ZM349.47 63.9715V76.5715H347.076L340.794 68.9215V76.5715H337.914V63.9715H340.326L346.59 71.6215V63.9715H349.47ZM357.581 76.7875C356.585 76.7875 355.619 76.6555 354.683 76.3915C353.759 76.1155 353.015 75.7615 352.451 75.3295L353.441 73.1335C353.981 73.5295 354.623 73.8475 355.367 74.0875C356.111 74.3275 356.855 74.4475 357.599 74.4475C358.427 74.4475 359.039 74.3275 359.435 74.0875C359.831 73.8355 360.029 73.5055 360.029 73.0975C360.029 72.7975 359.909 72.5515 359.669 72.3595C359.441 72.1555 359.141 71.9935 358.769 71.8735C358.409 71.7535 357.917 71.6215 357.293 71.4775C356.333 71.2495 355.547 71.0215 354.935 70.7935C354.323 70.5655 353.795 70.1995 353.351 69.6955C352.919 69.1915 352.703 68.5195 352.703 67.6795C352.703 66.9475 352.901 66.2875 353.297 65.6995C353.693 65.0995 354.287 64.6255 355.079 64.2775C355.883 63.9295 356.861 63.7555 358.013 63.7555C358.817 63.7555 359.603 63.8515 360.371 64.0435C361.139 64.2355 361.811 64.5115 362.387 64.8715L361.487 67.0855C360.323 66.4255 359.159 66.0955 357.995 66.0955C357.179 66.0955 356.573 66.2275 356.177 66.4915C355.793 66.7555 355.601 67.1035 355.601 67.5355C355.601 67.9675 355.823 68.2915 356.267 68.5075C356.723 68.7115 357.413 68.9155 358.337 69.1195C359.297 69.3475 360.083 69.5755 360.695 69.8035C361.307 70.0315 361.829 70.3915 362.261 70.8835C362.705 71.3755 362.927 72.0415 362.927 72.8815C362.927 73.6015 362.723 74.2615 362.315 74.8615C361.919 75.4495 361.319 75.9175 360.515 76.2655C359.711 76.6135 358.733 76.7875 357.581 76.7875ZM371.508 76.7875C369.708 76.7875 368.304 76.2895 367.296 75.2935C366.3 74.2975 365.802 72.8755 365.802 71.0275V63.9715H368.718V70.9195C368.718 73.1755 369.654 74.3035 371.526 74.3035C372.438 74.3035 373.134 74.0335 373.614 73.4935C374.094 72.9415 374.334 72.0835 374.334 70.9195V63.9715H377.214V71.0275C377.214 72.8755 376.71 74.2975 375.702 75.2935C374.706 76.2895 373.308 76.7875 371.508 76.7875ZM392.551 76.5715L392.533 69.0115L388.825 75.2395H387.511L383.821 69.1735V76.5715H381.085V63.9715H383.497L388.213 71.8015L392.857 63.9715H395.251L395.287 76.5715H392.551ZM409.023 74.2315V76.5715H399.267V63.9715H408.789V66.3115H402.165V69.0475H408.015V71.3155H402.165V74.2315H409.023ZM420.361 76.5715L417.931 73.0615H417.787H415.249V76.5715H412.333V63.9715H417.787C418.903 63.9715 419.869 64.1575 420.685 64.5295C421.513 64.9015 422.149 65.4295 422.593 66.1135C423.037 66.7975 423.259 67.6075 423.259 68.5435C423.259 69.4795 423.031 70.2895 422.575 70.9735C422.131 71.6455 421.495 72.1615 420.667 72.5215L423.493 76.5715H420.361ZM420.307 68.5435C420.307 67.8355 420.079 67.2955 419.623 66.9235C419.167 66.5395 418.501 66.3475 417.625 66.3475H415.249V70.7395H417.625C418.501 70.7395 419.167 70.5475 419.623 70.1635C420.079 69.7795 420.307 69.2395 420.307 68.5435ZM333.474 85.9715L329.352 98.5715H326.22L323.448 90.0395L320.586 98.5715H317.472L313.332 85.9715H316.356L319.2 94.8275L322.17 85.9715H324.87L327.75 94.8995L330.684 85.9715H333.474ZM345.848 96.2315V98.5715H336.092V85.9715H345.614V88.3115H338.99V91.0475H344.84V93.3155H338.99V96.2315H345.848ZM358.41 92.0195C359.13 92.2475 359.694 92.6315 360.102 93.1715C360.51 93.6995 360.714 94.3535 360.714 95.1335C360.714 96.2375 360.282 97.0895 359.418 97.6895C358.566 98.2775 357.318 98.5715 355.674 98.5715H349.158V85.9715H355.314C356.85 85.9715 358.026 86.2655 358.842 86.8535C359.67 87.4415 360.084 88.2395 360.084 89.2475C360.084 89.8595 359.934 90.4055 359.634 90.8855C359.346 91.3655 358.938 91.7435 358.41 92.0195ZM352.056 88.1675V91.1375H354.954C355.674 91.1375 356.22 91.0115 356.592 90.7595C356.964 90.5075 357.15 90.1355 357.15 89.6435C357.15 89.1515 356.964 88.7855 356.592 88.5455C356.22 88.2935 355.674 88.1675 354.954 88.1675H352.056ZM355.458 96.3755C356.226 96.3755 356.802 96.2495 357.186 95.9975C357.582 95.7455 357.78 95.3555 357.78 94.8275C357.78 93.7835 357.006 93.2615 355.458 93.2615H352.056V96.3755H355.458ZM368.052 98.7875C367.056 98.7875 366.09 98.6555 365.154 98.3915C364.23 98.1155 363.486 97.7615 362.922 97.3295L363.912 95.1335C364.452 95.5295 365.094 95.8475 365.838 96.0875C366.582 96.3275 367.326 96.4475 368.07 96.4475C368.898 96.4475 369.51 96.3275 369.906 96.0875C370.302 95.8355 370.5 95.5055 370.5 95.0975C370.5 94.7975 370.38 94.5515 370.14 94.3595C369.912 94.1555 369.612 93.9935 369.24 93.8735C368.88 93.7535 368.388 93.6215 367.764 93.4775C366.804 93.2495 366.018 93.0215 365.406 92.7935C364.794 92.5655 364.266 92.1995 363.822 91.6955C363.39 91.1915 363.174 90.5195 363.174 89.6795C363.174 88.9475 363.372 88.2875 363.768 87.6995C364.164 87.0995 364.758 86.6255 365.55 86.2775C366.354 85.9295 367.332 85.7555 368.484 85.7555C369.288 85.7555 370.074 85.8515 370.842 86.0435C371.61 86.2355 372.282 86.5115 372.858 86.8715L371.958 89.0855C370.794 88.4255 369.63 88.0955 368.466 88.0955C367.65 88.0955 367.044 88.2275 366.648 88.4915C366.264 88.7555 366.072 89.1035 366.072 89.5355C366.072 89.9675 366.294 90.2915 366.738 90.5075C367.194 90.7115 367.884 90.9155 368.808 91.1195C369.768 91.3475 370.554 91.5755 371.166 91.8035C371.778 92.0315 372.3 92.3915 372.732 92.8835C373.176 93.3755 373.398 94.0415 373.398 94.8815C373.398 95.6015 373.194 96.2615 372.786 96.8615C372.39 97.4495 371.79 97.9175 370.986 98.2655C370.182 98.6135 369.204 98.7875 368.052 98.7875ZM376.38 85.9715H379.296V98.5715L376.38 98.5715V85.9715ZM385.887 88.3475H381.855V85.9715H392.835V88.3475H388.803V98.5715H385.887V88.3475ZM405.15 96.2315V98.5715H395.394V85.9715H404.916V88.3115H398.292V91.0475H404.142V93.3155H398.292V96.2315H405.15ZM412.6 98.7875C411.604 98.7875 410.638 98.6555 409.702 98.3915C408.778 98.1155 408.034 97.7615 407.47 97.3295L408.46 95.1335C409 95.5295 409.642 95.8475 410.386 96.0875C411.13 96.3275 411.874 96.4475 412.618 96.4475C413.446 96.4475 414.058 96.3275 414.454 96.0875C414.85 95.8355 415.048 95.5055 415.048 95.0975C415.048 94.7975 414.928 94.5515 414.688 94.3595C414.46 94.1555 414.16 93.9935 413.788 93.8735C413.428 93.7535 412.936 93.6215 412.312 93.4775C411.352 93.2495 410.566 93.0215 409.954 92.7935C409.342 92.5655 408.814 92.1995 408.37 91.6955C407.938 91.1915 407.722 90.5195 407.722 89.6795C407.722 88.9475 407.92 88.2875 408.316 87.6995C408.712 87.0995 409.306 86.6255 410.098 86.2775C410.902 85.9295 411.88 85.7555 413.032 85.7555C413.836 85.7555 414.622 85.8515 415.39 86.0435C416.158 86.2355 416.83 86.5115 417.406 86.8715L416.506 89.0855C415.342 88.4255 414.178 88.0955 413.014 88.0955C412.198 88.0955 411.592 88.2275 411.196 88.4915C410.812 88.7555 410.62 89.1035 410.62 89.5355C410.62 89.9675 410.842 90.2915 411.286 90.5075C411.742 90.7115 412.432 90.9155 413.356 91.1195C414.316 91.3475 415.102 91.5755 415.714 91.8035C416.326 92.0315 416.848 92.3915 417.28 92.8835C417.724 93.3755 417.946 94.0415 417.946 94.8815C417.946 95.6015 417.742 96.2615 417.334 96.8615C416.938 97.4495 416.338 97.9175 415.534 98.2655C414.73 98.6135 413.752 98.7875 412.6 98.7875Z" fill="white"/>
<rect y="221" width="209" height="152" rx="5" fill="#FFFB98"/>
<path d="M0 226C0 223.239 2.23858 221 5 221H204C206.761 221 209 223.239 209 226V237.286H0L0 226Z" fill="black"/>
<ellipse cx="174.711" cy="229.143" rx="3.8099" ry="3.8" fill="#FFC01E"/>
<ellipse cx="186.685" cy="229.143" rx="3.8099" ry="3.8" fill="#14FF1D"/>
<ellipse cx="198.659" cy="229.143" rx="3.8099" ry="3.8" fill="#FF4A4A"/>
<rect x="20.6823" y="264.429" width="157.839" height="79.2571" rx="3" fill="#FFF500"/>
<path d="M41.9059 295.972C43.0219 295.972 43.9879 296.158 44.8039 296.53C45.6319 296.902 46.2679 297.43 46.7119 298.114C47.1559 298.798 47.3779 299.608 47.3779 300.544C47.3779 301.468 47.1559 302.278 46.7119 302.974C46.2679 303.658 45.6319 304.186 44.8039 304.558C43.9879 304.918 43.0219 305.098 41.9059 305.098H39.3679V308.572H36.4519V295.972H41.9059ZM41.7439 302.722C42.6199 302.722 43.2859 302.536 43.7419 302.164C44.1979 301.78 44.4259 301.24 44.4259 300.544C44.4259 299.836 44.1979 299.296 43.7419 298.924C43.2859 298.54 42.6199 298.348 41.7439 298.348H39.3679V302.722H41.7439ZM56.7275 308.788C55.4195 308.788 54.2375 308.506 53.1815 307.942C52.1375 307.378 51.3155 306.604 50.7155 305.62C50.1275 304.624 49.8335 303.508 49.8335 302.272C49.8335 301.036 50.1275 299.926 50.7155 298.942C51.3155 297.946 52.1375 297.166 53.1815 296.602C54.2375 296.038 55.4195 295.756 56.7275 295.756C58.0355 295.756 59.2115 296.038 60.2555 296.602C61.2995 297.166 62.1215 297.946 62.7215 298.942C63.3215 299.926 63.6215 301.036 63.6215 302.272C63.6215 303.508 63.3215 304.624 62.7215 305.62C62.1215 306.604 61.2995 307.378 60.2555 307.942C59.2115 308.506 58.0355 308.788 56.7275 308.788ZM56.7275 306.304C57.4715 306.304 58.1435 306.136 58.7435 305.8C59.3435 305.452 59.8115 304.972 60.1475 304.36C60.4955 303.748 60.6695 303.052 60.6695 302.272C60.6695 301.492 60.4955 300.796 60.1475 300.184C59.8115 299.572 59.3435 299.098 58.7435 298.762C58.1435 298.414 57.4715 298.24 56.7275 298.24C55.9835 298.24 55.3115 298.414 54.7115 298.762C54.1115 299.098 53.6375 299.572 53.2895 300.184C52.9535 300.796 52.7855 301.492 52.7855 302.272C52.7855 303.052 52.9535 303.748 53.2895 304.36C53.6375 304.972 54.1115 305.452 54.7115 305.8C55.3115 306.136 55.9835 306.304 56.7275 306.304ZM74.831 308.572L72.401 305.062H72.257H69.719V308.572H66.803V295.972H72.257C73.373 295.972 74.339 296.158 75.155 296.53C75.983 296.902 76.619 297.43 77.063 298.114C77.507 298.798 77.729 299.608 77.729 300.544C77.729 301.48 77.501 302.29 77.045 302.974C76.601 303.646 75.965 304.162 75.137 304.522L77.963 308.572H74.831ZM74.777 300.544C74.777 299.836 74.549 299.296 74.093 298.924C73.637 298.54 72.971 298.348 72.095 298.348H69.719V302.74H72.095C72.971 302.74 73.637 302.548 74.093 302.164C74.549 301.78 74.777 301.24 74.777 300.544ZM83.4635 298.348H79.4315V295.972H90.4115V298.348H86.3795V308.572H83.4635V298.348ZM95.8865 298.312V301.642H101.718V303.982H95.8865L95.8865 308.572H92.9705L92.9705 295.972H102.492V298.312H95.8865ZM111.436 308.788C110.128 308.788 108.946 308.506 107.89 307.942C106.846 307.378 106.024 306.604 105.424 305.62C104.836 304.624 104.542 303.508 104.542 302.272C104.542 301.036 104.836 299.926 105.424 298.942C106.024 297.946 106.846 297.166 107.89 296.602C108.946 296.038 110.128 295.756 111.436 295.756C112.744 295.756 113.92 296.038 114.964 296.602C116.008 297.166 116.83 297.946 117.43 298.942C118.03 299.926 118.33 301.036 118.33 302.272C118.33 303.508 118.03 304.624 117.43 305.62C116.83 306.604 116.008 307.378 114.964 307.942C113.92 308.506 112.744 308.788 111.436 308.788ZM111.436 306.304C112.18 306.304 112.852 306.136 113.452 305.8C114.052 305.452 114.52 304.972 114.856 304.36C115.204 303.748 115.378 303.052 115.378 302.272C115.378 301.492 115.204 300.796 114.856 300.184C114.52 299.572 114.052 299.098 113.452 298.762C112.852 298.414 112.18 298.24 111.436 298.24C110.692 298.24 110.02 298.414 109.42 298.762C108.82 299.098 108.346 299.572 107.998 300.184C107.662 300.796 107.494 301.492 107.494 302.272C107.494 303.052 107.662 303.748 107.998 304.36C108.346 304.972 108.82 305.452 109.42 305.8C110.02 306.136 110.692 306.304 111.436 306.304ZM121.511 295.972H124.427L124.427 306.196H130.745V308.572H121.511L121.511 295.972ZM133.364 295.972H136.28L136.28 308.572H133.364L133.364 295.972ZM146.363 308.788C145.055 308.788 143.873 308.506 142.817 307.942C141.773 307.378 140.951 306.604 140.351 305.62C139.763 304.624 139.469 303.508 139.469 302.272C139.469 301.036 139.763 299.926 140.351 298.942C140.951 297.946 141.773 297.166 142.817 296.602C143.873 296.038 145.055 295.756 146.363 295.756C147.671 295.756 148.847 296.038 149.891 296.602C150.935 297.166 151.757 297.946 152.357 298.942C152.957 299.926 153.257 301.036 153.257 302.272C153.257 303.508 152.957 304.624 152.357 305.62C151.757 306.604 150.935 307.378 149.891 307.942C148.847 308.506 147.671 308.788 146.363 308.788ZM146.363 306.304C147.107 306.304 147.779 306.136 148.379 305.8C148.979 305.452 149.447 304.972 149.783 304.36C150.131 303.748 150.305 303.052 150.305 302.272C150.305 301.492 150.131 300.796 149.783 300.184C149.447 299.572 148.979 299.098 148.379 298.762C147.779 298.414 147.107 298.24 146.363 298.24C145.619 298.24 144.947 298.414 144.347 298.762C143.747 299.098 143.273 299.572 142.925 300.184C142.589 300.796 142.421 301.492 142.421 302.272C142.421 303.052 142.589 303.748 142.925 304.36C143.273 304.972 143.747 305.452 144.347 305.8C144.947 306.136 145.619 306.304 146.363 306.304ZM160.578 308.788C159.582 308.788 158.616 308.656 157.68 308.392C156.756 308.116 156.012 307.762 155.448 307.33L156.438 305.134C156.978 305.53 157.62 305.848 158.364 306.088C159.108 306.328 159.852 306.448 160.596 306.448C161.424 306.448 162.036 306.328 162.432 306.088C162.828 305.836 163.026 305.506 163.026 305.098C163.026 304.798 162.906 304.552 162.666 304.36C162.438 304.156 162.138 303.994 161.766 303.874C161.406 303.754 160.914 303.622 160.29 303.478C159.33 303.25 158.544 303.022 157.932 302.794C157.32 302.566 156.792 302.2 156.348 301.696C155.916 301.192 155.7 300.52 155.7 299.68C155.7 298.948 155.898 298.288 156.294 297.7C156.69 297.1 157.284 296.626 158.076 296.278C158.88 295.93 159.858 295.756 161.01 295.756C161.814 295.756 162.6 295.852 163.368 296.044C164.136 296.236 164.808 296.512 165.384 296.872L164.484 299.086C163.32 298.426 162.156 298.096 160.992 298.096C160.176 298.096 159.57 298.228 159.174 298.492C158.79 298.756 158.598 299.104 158.598 299.536C158.598 299.968 158.82 300.292 159.264 300.508C159.72 300.712 160.41 300.916 161.334 301.12C162.294 301.348 163.08 301.576 163.692 301.804C164.304 302.032 164.826 302.392 165.258 302.884C165.702 303.376 165.924 304.042 165.924 304.882C165.924 305.602 165.72 306.262 165.312 306.862C164.916 307.45 164.316 307.918 163.512 308.266C162.708 308.614 161.73 308.788 160.578 308.788Z" fill="black"/>
<rect x="264" y="221" width="209" height="152.396" rx="5" fill="#98FFC1"/>
<path d="M264 226C264 223.239 266.239 221 269 221L468 221C470.761 221 473 223.239 473 226V237.328L264 237.328V226Z" fill="black"/>
<circle cx="438.711" cy="229.164" r="3.8099" fill="#FFC01E"/>
<circle cx="450.685" cy="229.164" r="3.8099" fill="#14FF1D"/>
<circle cx="462.659" cy="229.164" r="3.8099" fill="#FF4A4A"/>
<rect x="284.682" y="264.542" width="157.839" height="79.4635" rx="3" fill="#00FF66"/>
<path d="M341.967 296.056C343.083 296.056 344.049 296.242 344.865 296.614C345.693 296.986 346.329 297.514 346.773 298.198C347.217 298.882 347.439 299.692 347.439 300.628C347.439 301.552 347.217 302.362 346.773 303.058C346.329 303.742 345.693 304.27 344.865 304.642C344.049 305.002 343.083 305.182 341.967 305.182H339.429V308.656H336.513V296.056H341.967ZM341.805 302.806C342.681 302.806 343.347 302.62 343.803 302.248C344.259 301.864 344.487 301.324 344.487 300.628C344.487 299.92 344.259 299.38 343.803 299.008C343.347 298.624 342.681 298.432 341.805 298.432H339.429V302.806H341.805ZM369.414 296.056L365.292 308.656H362.16L359.388 300.124L356.526 308.656H353.412L349.272 296.056H352.296L355.14 304.912L358.11 296.056H360.81L363.69 304.984L366.624 296.056H369.414ZM379.908 305.956H374.058L372.942 308.656H369.954L375.57 296.056H378.45L384.084 308.656H381.024L379.908 305.956ZM378.99 303.742L376.992 298.918L374.994 303.742H378.99ZM389.353 308.8C388.549 308.8 387.763 308.704 386.995 308.512C386.227 308.308 385.615 308.056 385.159 307.756L386.095 305.74C386.527 306.016 387.049 306.244 387.661 306.424C388.273 306.592 388.873 306.676 389.461 306.676C390.649 306.676 391.243 306.382 391.243 305.794C391.243 305.518 391.081 305.32 390.757 305.2C390.433 305.08 389.935 304.978 389.263 304.894C388.471 304.774 387.817 304.636 387.301 304.48C386.785 304.324 386.335 304.048 385.951 303.652C385.579 303.256 385.393 302.692 385.393 301.96C385.393 301.348 385.567 300.808 385.915 300.34C386.275 299.86 386.791 299.488 387.463 299.224C388.147 298.96 388.951 298.828 389.875 298.828C390.559 298.828 391.237 298.906 391.909 299.062C392.593 299.206 393.157 299.41 393.601 299.674L392.665 301.672C391.813 301.192 390.883 300.952 389.875 300.952C389.275 300.952 388.825 301.036 388.525 301.204C388.225 301.372 388.075 301.588 388.075 301.852C388.075 302.152 388.237 302.362 388.561 302.482C388.885 302.602 389.401 302.716 390.109 302.824C390.901 302.956 391.549 303.1 392.053 303.256C392.557 303.4 392.995 303.67 393.367 304.066C393.739 304.462 393.925 305.014 393.925 305.722C393.925 306.322 393.745 306.856 393.385 307.324C393.025 307.792 392.497 308.158 391.801 308.422C391.117 308.674 390.301 308.8 389.353 308.8Z" fill="black"/>
</svg>
